<svg version="1.1" xmlns="http://www.w3.org/2000/svg" xmlns:xlink="http://www.w3.org/1999/xlink" width="65.2217" height="112.91745" viewBox="0,0,65.2217,112.91745"><g transform="translate(-191.89993,-141.30541)"><g data-paper-data="{&quot;isPaintingLayer&quot;:true}" fill-rule="nonzero" stroke-linejoin="miter" stroke-miterlimit="10" stroke-dasharray="" stroke-dashoffset="0" style="mix-blend-mode: normal"><g stroke="#703d00" stroke-linecap="round"><path d="M193.68514,200.70776c0.06034,-14.18087 3.6657,-24.69162 9.83783,-36.29447c2.93979,-5.51354 8.18766,-10.76026 15.65265,-13.79752c5.96919,-2.40462 14.66559,-3.68063 20.68061,-1.46201c6.95595,2.56562 10.05788,8.43988 11.80127,13.45034c3.97066,11.463 4.51886,23.42544 3.98519,35.16728c-0.04526,13.22193 -0.53152,26.65398 -5.71659,39.51203c-1.9587,4.85971 -7.71591,9.17425 -14.08492,12.05417c-4.252,1.84692 -11.42447,3.23441 -16.54585,1.47961c-7.33822,-2.92425 -13.00186,-8.1454 -16.08161,-13.73256c-6.35274,-11.59014 -9.58894,-22.196 -9.52859,-36.37688z" data-paper-data="{&quot;origPos&quot;:null}" fill="#a85b00" stroke-width="2.61452"/><path d="M193.78995,200.84691c0.06037,-14.18787 0.73769,-24.64748 5.49324,-36.33005c2.21465,-5.43453 7.61688,-13.09311 14.16507,-12.86414c6.3288,-0.17417 10.05731,7.91457 11.5889,12.97373c3.62456,11.97873 4.45029,24.26366 4.19602,36.66409c-0.0501,12.4324 -1.64853,25.40672 -5.86823,37.68967c-1.40002,4.09148 -4.99494,10.31634 -10.32984,9.76283c-6.86068,-0.3258 -12.1248,-6.58165 -14.0613,-11.52064c-4.60374,-11.7496 -5.24423,-22.18762 -5.18386,-36.37549z" data-paper-data="{&quot;origPos&quot;:null}" fill="#a85b00" stroke-width="2.4183"/><path d="M194.10087,197.67617c0.06369,-21.15525 4.03889,-25.89305 7.47937,-38.21852c1.61867,-5.79516 5.46478,-12.39286 10.91139,-14.4037c7.59198,-2.79972 20.88202,-2.54416 24.24531,1.15318c2.38987,2.62119 -11.28671,6.72403 -11.89819,11.29947c-0.69532,2.89407 7.68207,0.47069 9.2846,3.63954c2.15568,4.30921 -4.61921,12.02445 -1.11148,14.4454c3.98336,2.74298 10.54959,-5.28716 15.51518,-3.53401c3.22434,0.86673 5.2156,7.38926 2.5604,9.31098c-5.06563,3.66248 -13.19258,-0.59614 -18.6109,2.52083c-2.85199,1.63688 -3.00413,6.83928 -1.08956,9.29545c3.61139,4.61641 11.61958,4.11748 14.96263,8.81375c1.78632,2.51262 0.51241,6.48424 -1.08744,8.79545c-4.97689,5.83887 -16.22103,7.25804 -17.61133,14.37519c-1.05586,5.36956 12.9189,8.27605 11.29926,11.94819c-1.84967,4.14917 -15.7497,-0.57302 -19.11302,3.0187c-2.06947,2.22021 9.87429,6.53208 8.21269,8.78503c-2.24415,2.61647 -11.02839,2.8891 -16.00432,0.98191c-5.03158,-1.98943 -9.68801,-6.59728 -11.11187,-11.80539c-3.55562,-13.02225 -5.42202,-10.89517 -6.83273,-40.42144z" data-paper-data="{&quot;origPos&quot;:null}" fill="#703d00" stroke-width="1.99513"/></g><path d="M192.91209,199.75446c0.37036,-12.82054 1.17002,-25.94726 4.94622,-38.2293c1.96109,-6.36171 5.94915,-14.26381 12.52068,-17.14688c7.18642,-3.09145 20.83665,-2.83436 24.27098,1.65329c2.26849,3.10968 -12.03188,7.93587 -12.86536,13.54538c-0.48843,3.08495 7.90276,0.47163 9.55169,3.64068c2.21808,4.30948 -4.75041,12.02389 -1.14168,14.44527c4.09816,2.74346 10.85199,-5.28587 15.96037,-3.53212c3.31704,0.86712 5.3663,7.3899 2.6351,9.3113c-5.21073,3.66186 -13.57158,-0.59776 -19.14509,2.51856c-2.93369,1.63653 -3.08963,6.83891 -1.11976,9.29532c3.71569,4.61685 11.95378,4.1189 15.39343,8.81558c1.83792,2.51284 0.52791,6.48431 -1.11754,8.79532c-5.11909,5.83827 -16.68603,7.25606 -18.11543,14.37304c-1.08546,5.36943 13.291,8.27763 11.62526,11.94958c-1.90227,4.14894 -16.2021,-0.57495 -19.66161,3.01636c-2.12857,2.21996 10.15869,6.53329 8.44969,8.78604c-2.30825,2.6162 -11.34479,2.88775 -16.46382,0.97995c-5.17638,-1.99004 -9.96711,-6.59847 -11.43246,-11.80676c-3.65932,-13.02269 -4.13941,-26.88986 -4.29068,-40.41062z" data-paper-data="{&quot;origPos&quot;:null}" fill="#ddc6d2" stroke="#ddc6d2" stroke-width="2.02398" stroke-linecap="round"/><path d="M204.21444,198.42754c0.01394,-3.27597 0.25657,-6.24396 0.63672,-8.39237c0.38014,-2.1474 0.8978,-3.47621 1.4638,-3.4738c0.56599,0.00241 1.07233,1.33558 1.43418,3.48613c0.36185,2.15156 0.57921,5.12151 0.56527,8.39748c-0.01394,3.27597 -0.25657,6.24396 -0.63672,8.39237c-0.38014,2.1474 -0.8978,3.47621 -1.4638,3.4738c-0.56599,-0.00241 -1.07233,-1.33558 -1.43418,-3.48613c-0.36185,-2.15156 -0.57921,-5.12151 -0.56527,-8.39748z" fill="#a85b00" stroke="#703d00" stroke-width="1.99513" stroke-linecap="butt"/><g data-paper-data="{&quot;origPos&quot;:null}" fill="none" stroke="#6148a4" stroke-width="1.99513" stroke-linecap="round"><path d="M218.40976,222.26316l-6.68675,-3.12848" data-paper-data="{&quot;origPos&quot;:null}"/><path d="M196.45355,200.96954l0.02638,-6.19994" data-paper-data="{&quot;origPos&quot;:null}"/><path d="M224.86648,197.99042l-2.0236,-6.20867" data-paper-data="{&quot;origPos&quot;:null}"/><path d="M217.21762,174.20766l-2.07424,5.69123" data-paper-data="{&quot;origPos&quot;:null}"/><path d="M223.73011,230.03587l2.02807,5.15868" data-paper-data="{&quot;origPos&quot;:null}"/><path d="M213.65001,248.04314l-4.14996,-0.01766" data-paper-data="{&quot;origPos&quot;:null}"/><path d="M195.37888,218.51513l0.48021,4.65209" data-paper-data="{&quot;origPos&quot;:null}"/><path d="M223.04288,144.78218l-5.69995,-0.02426" data-paper-data="{&quot;origPos&quot;:null}"/><path d="M207.41558,174.66595l-0.01979,4.64996" data-paper-data="{&quot;origPos&quot;:null}"/><path d="M195.54143,180.31547l0.01319,-3.09997z" data-paper-data="{&quot;origPos&quot;:null}"/></g><g data-paper-data="{&quot;origPos&quot;:null}" fill="none" stroke="#9b4976" stroke-width="1.99513" stroke-linecap="round"><path d="M204.59581,226.30442l-0.97808,-5.15421" data-paper-data="{&quot;origPos&quot;:null}"/><path d="M217.06591,209.85733l0.02638,-6.19994" data-paper-data="{&quot;origPos&quot;:null}"/><path d="M211.58958,169.03366l-4.64996,-0.01979" data-paper-data="{&quot;origPos&quot;:null}"/><path d="M200.67606,183.93735l-3.1221,5.18676" data-paper-data="{&quot;origPos&quot;:null}"/><path d="M220.96652,150.9734l-5.69995,-0.02426" data-paper-data="{&quot;origPos&quot;:null}"/><path d="M203.3271,160.19842l0.01766,-4.14996" data-paper-data="{&quot;origPos&quot;:null}"/><path d="M210.73193,241.33066l-4.63017,-4.66974" data-paper-data="{&quot;origPos&quot;:null}"/></g><g data-paper-data="{&quot;origPos&quot;:null}" fill="none" stroke="#ffffff" stroke-width="1.99513" stroke-linecap="round"><path d="M216.95613,235.6571l-0.98254,-4.10422" data-paper-data="{&quot;origPos&quot;:null}"/><path d="M197.45737,211.82391l3.61763,-4.13464" data-paper-data="{&quot;origPos&quot;:null}"/><path d="M233.11958,209.02902l-3.63252,-4.11549" data-paper-data="{&quot;origPos&quot;:null}"/><path d="M223.9118,187.33964l3.11763,-4.13677" data-paper-data="{&quot;origPos&quot;:null}"/><path d="M224.46902,173.89189l3.09784,0.51319z" data-paper-data="{&quot;origPos&quot;:null}"/><path d="M199.19117,168.63428l-0.01979,4.64996" data-paper-data="{&quot;origPos&quot;:null}"/><path d="M213.6938,156.29589l1.03254,4.10443" data-paper-data="{&quot;origPos&quot;:null}"/><path d="M203.50774,246.99998l-2.07573,-5.70888" data-paper-data="{&quot;origPos&quot;:null}"/><path d="M198.91862,232.6837l3.60656,-1.53467z" data-paper-data="{&quot;origPos&quot;:null}"/><path d="M211.50531,188.83686l2.55232,-0.53914z" data-paper-data="{&quot;origPos&quot;:null}"/></g></g></g></svg>