<svg version="1.1" xmlns="http://www.w3.org/2000/svg" xmlns:xlink="http://www.w3.org/1999/xlink" width="112.95988" height="65.1515" viewBox="0,0,112.95988,65.1515"><g transform="translate(-167.89126,-165.0702)"><g data-paper-data="{&quot;isPaintingLayer&quot;:true}" fill-rule="nonzero" stroke-linejoin="miter" stroke-miterlimit="10" stroke-dasharray="" stroke-dashoffset="0" style="mix-blend-mode: normal"><g stroke="#703d00" stroke-linecap="round"><path d="M227.51868,228.42891c-14.1809,0.05233 -24.71997,-3.46941 -36.37148,-9.54915c-5.53672,-2.89589 -10.82497,-8.10191 -13.92145,-15.54254c-2.45197,-5.94989 -3.79703,-14.63589 -1.62628,-20.66834c2.51028,-6.97611 8.3597,-10.12462 13.35615,-11.90777c11.43109,-4.06161 23.3888,-4.70484 35.1345,-4.26448c13.22187,-0.05979 26.65736,0.31974 39.5562,5.40247c4.87512,1.92002 9.23526,7.64277 12.1657,13.9887c1.88065,4.23719 3.32508,11.39841 1.61102,16.53357c-2.86586,7.36123 -8.04184,13.06616 -13.60435,16.19021c-11.5393,6.44462 -22.11912,9.76499 -36.30002,9.81731z" data-paper-data="{&quot;origPos&quot;:null}" fill="#a85b00" stroke-width="2.61452"/><path d="M227.65699,228.32299c-14.1879,0.05235 -24.65257,-0.54184 -36.37255,-5.20442c-5.45195,-2.1714 -13.15321,-7.51262 -12.97628,-14.06241c-0.22445,-6.32721 7.83441,-10.11988 12.88125,-11.69161c11.94956,-3.71962 24.22753,-4.64293 36.62959,-4.48719c12.43241,-0.04868 25.41901,1.44661 37.73511,5.56859c4.10247,1.36747 10.3557,4.91282 9.8446,10.25194c-0.27128,6.86305 -6.48511,12.17671 -11.40856,14.15239c-11.71265,4.69695 -22.14525,5.42035 -36.33315,5.47271z" data-paper-data="{&quot;origPos&quot;:null}" fill="#a85b00" stroke-width="2.4183"/><path d="M224.48388,228.03727c-21.15509,0.10439 -25.92432,-3.83304 -38.27674,-7.17548c-5.80784,-1.57258 -12.43589,-5.36615 -14.48994,-10.79661c-2.85995,-7.5695 -2.71,-20.86114 0.96051,-24.25371c2.60212,-2.41062 6.8135,11.23293 11.39365,11.80804c2.8995,0.67231 0.40964,-7.68556 3.56566,-9.31322c4.29195,-2.18985 12.06077,4.52353 14.45378,0.99667c2.71124,-4.00503 -5.37081,-10.50725 -3.65717,-15.48661c0.84108,-3.23113 7.34759,-5.27415 9.29034,-2.6343c3.70261,5.03637 -0.49131,13.1969 2.66862,18.59028c1.65949,2.8389 6.86293,2.9497 9.30381,1.01568c4.58757,-3.64795 4.02503,-11.65193 8.69459,-15.03219c2.49835,-1.80623 6.47996,-0.56391 8.80381,1.01752c5.87823,4.93034 7.38669,16.16285 14.51466,17.49656c5.37778,1.01316 8.17314,-12.98425 11.85804,-11.39383c4.16373,1.81665 -0.44787,15.75376 3.17046,19.08843c2.23659,2.05176 6.45342,-9.92588 8.7195,-8.28223c2.63422,2.22329 2.97663,11.00509 1.10903,15.99602c-1.94939,5.04723 -6.5201,9.74013 -11.71673,11.20531c-12.99359,3.65897 -10.85175,5.50841 -40.36588,7.15367z" data-paper-data="{&quot;origPos&quot;:null}" fill="#703d00" stroke-width="1.99513"/></g><path d="M226.57155,229.20951c-12.82308,-0.26848 -25.95573,-0.96383 -38.26739,-4.64232c-6.37709,-1.91048 -14.31063,-5.83563 -17.24581,-12.38405c-3.14845,-7.16163 -2.99982,-20.81347 1.4604,-24.28335c3.09156,-2.29312 8.03122,11.96845 13.64717,12.75733c3.08873,0.46391 0.40883,-7.90626 3.56467,-9.58032c4.29172,-2.25225 12.06126,4.65473 14.45389,1.02687c2.71082,-4.11983 -5.37192,-10.80965 -3.65881,-15.93181c0.84074,-3.32382 7.34703,-5.42485 9.29007,-2.709c3.70314,5.18147 -0.48991,13.5759 2.67059,19.12448c1.65979,2.9206 6.86325,3.0352 9.30392,1.04588c4.58719,-3.75225 4.0238,-11.98613 8.693,-15.46298c2.49816,-1.85783 6.47991,-0.57941 8.80393,1.04762c5.87876,5.07254 7.38841,16.62785 14.51652,18.00066c5.37788,1.04276 8.17177,-13.35634 11.85683,-11.71983c4.16393,1.86925 -0.4462,16.20616 3.17248,19.63703c2.2368,2.11086 6.45237,-10.21028 8.71862,-8.51923c2.63446,2.28739 2.9778,11.32149 1.11073,16.45551c-1.94885,5.19203 -6.51907,10.01922 -11.71555,11.52591c-12.9932,3.76267 -26.85612,4.35293 -40.37526,4.61162z" data-paper-data="{&quot;origPos&quot;:null}" fill="#ddc6d2" stroke="#ddc6d2" stroke-width="2.02398" stroke-linecap="round"/><path d="M225.15488,217.91806c-3.27598,0.01209 -6.24581,-0.20695 -8.39716,-0.57002c-2.15035,-0.36307 -3.48323,-0.87015 -3.48532,-1.43615c-0.00209,-0.566 1.32701,-1.0829 3.47463,-1.46183c2.14862,-0.37893 5.11675,-0.61989 8.39273,-0.63197c3.27598,-0.01209 6.24581,0.20695 8.39716,0.57002c2.15035,0.36307 3.48323,0.87015 3.48532,1.43615c0.00209,0.566 -1.32701,1.0829 -3.47463,1.46183c-2.14862,0.37893 -5.11675,0.61989 -8.39273,0.63197z" fill="#a85b00" stroke="#703d00" stroke-width="1.99513" stroke-linecap="butt"/><g data-paper-data="{&quot;origPos&quot;:null}" fill="none" stroke="#6148a4" stroke-width="1.99513" stroke-linecap="round"><path d="M248.87696,203.5338l-3.07526,6.71139" data-paper-data="{&quot;origPos&quot;:null}"/><path d="M227.75846,225.6585l-6.19996,0.02288" data-paper-data="{&quot;origPos&quot;:null}"/><path d="M224.55368,197.27013l-6.19239,2.07286" data-paper-data="{&quot;origPos&quot;:null}"/><path d="M200.83244,205.10772l5.70753,2.02895" data-paper-data="{&quot;origPos&quot;:null}"/><path d="M256.60716,198.15186l5.1424,-2.06899" data-paper-data="{&quot;origPos&quot;:null}"/><path d="M274.69394,208.08857l0.01531,4.14997" data-paper-data="{&quot;origPos&quot;:null}"/><path d="M245.31203,226.59374l4.64812,-0.51716" data-paper-data="{&quot;origPos&quot;:null}"/><path d="M171.36161,199.51643l0.02103,5.69996" data-paper-data="{&quot;origPos&quot;:null}"/><path d="M201.3686,214.90581l4.64997,-0.01716" data-paper-data="{&quot;origPos&quot;:null}"/><path d="M207.11229,226.73469l-3.09998,0.01144z" data-paper-data="{&quot;origPos&quot;:null}"/></g><g data-paper-data="{&quot;origPos&quot;:null}" fill="none" stroke="#9b4976" stroke-width="1.99513" stroke-linecap="round"><path d="M253.02784,217.3152l-5.14627,1.019" data-paper-data="{&quot;origPos&quot;:null}"/><path d="M236.4822,204.97617l-6.19996,0.02288" data-paper-data="{&quot;origPos&quot;:null}"/><path d="M195.70333,210.77668l0.01716,4.64997" data-paper-data="{&quot;origPos&quot;:null}"/><path d="M210.69326,221.57144l5.2114,3.08079" data-paper-data="{&quot;origPos&quot;:null}"/><path d="M177.56913,201.54354l0.02103,5.69996" data-paper-data="{&quot;origPos&quot;:null}"/><path d="M186.93401,219.1091l-4.14997,0.01531" data-paper-data="{&quot;origPos&quot;:null}"/><path d="M268.00486,211.05989l-4.63281,4.66713" data-paper-data="{&quot;origPos&quot;:null}"/></g><g data-paper-data="{&quot;origPos&quot;:null}" fill="none" stroke="#ffffff" stroke-width="1.99513" stroke-linecap="round"><path d="M262.28202,204.88097l-4.09628,1.01512" data-paper-data="{&quot;origPos&quot;:null}"/><path d="M238.60451,224.56847l-4.16326,-3.58466" data-paper-data="{&quot;origPos&quot;:null}"/><path d="M235.52636,188.92959l-4.0865,3.6651" data-paper-data="{&quot;origPos&quot;:null}"/><path d="M213.91083,198.30941l-4.16141,-3.08467" data-paper-data="{&quot;origPos&quot;:null}"/><path d="M200.45907,197.85905l0.48856,-3.10182z" data-paper-data="{&quot;origPos&quot;:null}"/><path d="M195.40246,223.17788l4.64997,-0.01716" data-paper-data="{&quot;origPos&quot;:null}"/><path d="M182.94924,208.77373l4.0961,-1.06512" data-paper-data="{&quot;origPos&quot;:null}"/><path d="M273.73139,218.23881l-5.69221,2.12102" data-paper-data="{&quot;origPos&quot;:null}"/><path d="M259.45203,222.94153l-1.56327,-3.59426z" data-paper-data="{&quot;origPos&quot;:null}"/><path d="M215.50657,210.70361l-0.55941,-2.54795z" data-paper-data="{&quot;origPos&quot;:null}"/></g></g></g></svg>