<svg version="1.1" xmlns="http://www.w3.org/2000/svg" xmlns:xlink="http://www.w3.org/1999/xlink" width="65.06175" height="113.0143" viewBox="0,0,65.06175,113.0143"><g transform="translate(-191.70071,-141.20493)"><g data-paper-data="{&quot;isPaintingLayer&quot;:true}" fill-rule="nonzero" stroke-linejoin="miter" stroke-miterlimit="10" stroke-dasharray="" stroke-dashoffset="0" style="mix-blend-mode: normal"><g stroke="#703d00" stroke-linecap="round"><path d="M254.95927,194.28c0.20955,14.17945 -3.19512,24.75692 -9.14532,36.47512c-2.83433,5.56849 -7.9814,10.91413 -15.38723,14.09291c-5.92234,2.51779 -14.59289,3.95907 -20.64904,1.85533c-7.00351,-2.43278 -10.21668,-8.24693 -12.05511,-13.22331c-4.1881,-11.38536 -4.96386,-23.3352 -4.65375,-35.08506c-0.20638,-13.22039 0.02417,-26.65927 4.96358,-39.61367c1.86586,-4.89611 7.53991,-9.31943 13.85296,-12.32005c4.21608,-1.92751 11.36084,-3.45125 16.51469,-1.79423c7.39255,2.78407 13.15452,7.89648 16.34005,13.42401c6.57216,11.46714 10.00962,22.00949 10.21917,36.18895z" data-paper-data="{&quot;origPos&quot;:null}" fill="#a85b00" stroke-width="2.61452"/><path d="M254.85184,194.14287c0.20965,14.18645 -0.26848,24.65706 -4.80084,36.42802c-2.11082,5.47569 -7.36632,13.2357 -13.91768,13.13139c-6.32434,0.29459 -10.20612,-7.72173 -11.83371,-12.75083c-3.85188,-11.90758 -4.91126,-24.17457 -4.89303,-36.57759c-0.18651,-12.4311 1.1647,-25.43349 5.14988,-37.79452c1.3219,-4.11738 4.79771,-10.40953 10.14217,-9.95766c6.86563,0.19517 12.24787,6.34971 14.27801,11.25095c4.82652,11.65985 5.66554,22.08379 5.8752,36.27024z" data-paper-data="{&quot;origPos&quot;:null}" fill="#a85b00" stroke-width="2.4183"/><path d="M254.60131,197.31895c0.33893,21.15263 -3.54538,25.96522 -6.75066,38.35394c-1.50809,5.82492 -5.22794,12.49462 -10.63529,14.60875c-7.53732,2.9437 -20.82981,2.94112 -24.26287,-0.69155c-2.43932,-2.57524 11.1567,-6.93762 11.68099,-11.52386c0.64012,-2.90678 -7.68963,-0.32441 -9.35218,-3.46218c-2.2373,-4.26741 4.38953,-12.11019 0.83636,-14.46394c-4.03485,-2.66667 -10.44706,5.48697 -15.44511,3.82865c-3.24025,-0.80521 -5.35529,-7.28866 -2.73714,-9.26057c4.99501,-3.75822 13.20154,0.34496 18.55955,-2.87456c2.82032,-1.69086 2.87343,-6.89521 0.91246,-9.3145c-3.69859,-4.54684 -11.69584,-3.8956 -15.12766,-8.52739c-1.83382,-2.47817 -0.63572,-6.47331 0.91985,-8.81455c4.86487,-5.93253 16.07996,-7.56543 17.33456,-14.70775c0.95348,-5.38868 -13.07407,-8.02868 -11.5246,-11.73099c1.77037,-4.18362 15.75776,0.27318 19.05211,-3.3819c2.02684,-2.2592 -9.99682,-6.34297 -8.3784,-8.62714c2.19395,-2.65871 10.97141,-3.09846 15.98274,-1.28631c5.06853,1.89331 9.81182,6.41171 11.33453,11.59178c3.80281,12.95222 5.62839,10.79001 7.60077,40.28408z" data-paper-data="{&quot;origPos&quot;:null}" fill="#703d00" stroke-width="1.99513"/></g><path d="M255.75033,195.21841c-0.1263,12.82527 -0.676,25.96482 -4.21777,38.31651c-1.83966,6.39788 -5.67661,14.37445 -12.19208,17.38206c-7.12628,3.22766 -20.77893,3.2304 -24.29805,-1.19108c-2.32726,-3.06595 11.87867,-8.16342 12.60524,-13.78777c0.42963,-3.09369 -7.91031,-0.32115 -9.61925,-3.45824c-2.2997,-4.26648 4.52072,-12.11212 0.86656,-14.46438c-4.14963,-2.66497 -10.74943,5.49144 -15.89026,3.83522c-3.33294,-0.80384 -5.50597,-7.28644 -2.81183,-9.25946c5.1401,-3.76036 13.5805,0.33936 19.09369,-2.88246c2.90201,-1.69207 2.95892,-6.89648 0.94266,-9.31495c-3.80288,-4.5453 -12.03,-3.89066 -15.55841,-8.52103c-1.88541,-2.47741 -0.65122,-6.47308 0.94995,-8.815c5.00705,-5.93464 16.54491,-7.57231 17.83861,-14.7152c0.98307,-5.38911 -13.44612,-8.02319 -11.85057,-11.72617c1.82297,-4.18439 16.21011,0.2665 19.60065,-3.39c2.08593,-2.26007 -10.28119,-6.33877 -8.61537,-8.62363c2.25805,-2.65966 11.28778,-3.10314 16.44219,-1.2931c5.21331,1.89117 10.09088,6.40759 11.65509,11.58704c3.9065,12.95069 4.65042,26.80621 5.05897,40.32165z" data-paper-data="{&quot;origPos&quot;:null}" fill="#ddc6d2" stroke="#ddc6d2" stroke-width="2.02398" stroke-linecap="round"/><path d="M244.47528,196.76019c0.04841,3.27564 -0.13769,6.24772 -0.47688,8.40296c-0.3392,2.15425 -0.83148,3.49267 -1.39742,3.50103c-0.56594,0.00836 -1.09755,-1.31493 -1.50026,-3.45821c-0.40273,-2.14428 -0.67658,-5.10956 -0.72498,-8.3852c-0.04841,-3.27564 0.13769,-6.24772 0.47688,-8.40296c0.3392,-2.15425 0.83148,-3.49267 1.39742,-3.50103c0.56594,-0.00836 1.09755,1.31493 1.50026,3.45821c0.40273,2.14428 0.67658,5.10956 0.72498,8.3852z" fill="#a85b00" stroke="#703d00" stroke-width="1.99513" stroke-linecap="butt"/><g data-paper-data="{&quot;origPos&quot;:null}" fill="none" stroke="#6148a4" stroke-width="1.99513" stroke-linecap="round"><path d="M229.8289,173.19904l6.74508,3.00066" data-paper-data="{&quot;origPos&quot;:null}"/><path d="M252.18638,194.07095l0.09162,6.19932" data-paper-data="{&quot;origPos&quot;:null}"/><path d="M223.83529,197.59027l2.14139,6.16903" data-paper-data="{&quot;origPos&quot;:null}"/><path d="M231.93539,221.22316l1.96555,-5.72967" data-paper-data="{&quot;origPos&quot;:null}"/><path d="M224.36159,165.52899l-2.12588,-5.11915" data-paper-data="{&quot;origPos&quot;:null}"/><path d="M234.09716,147.33315l4.14955,-0.06132" data-paper-data="{&quot;origPos&quot;:null}"/><path d="M252.92694,176.50809l-0.56866,-4.6421" data-paper-data="{&quot;origPos&quot;:null}"/><path d="M226.67119,250.75417l5.69938,-0.08423" data-paper-data="{&quot;origPos&quot;:null}"/><path d="M241.72693,220.5784l-0.06871,-4.64949" data-paper-data="{&quot;origPos&quot;:null}"/><path d="M253.49141,214.70392l0.04581,3.09966z" data-paper-data="{&quot;origPos&quot;:null}"/></g><g data-paper-data="{&quot;origPos&quot;:null}" fill="none" stroke="#9b4976" stroke-width="1.99513" stroke-linecap="round"><path d="M243.56343,168.89562l1.07599,5.13466" data-paper-data="{&quot;origPos&quot;:null}"/><path d="M231.4086,185.57705l0.09162,6.19932" data-paper-data="{&quot;origPos&quot;:null}"/><path d="M237.66087,226.28911l4.64949,-0.06871" data-paper-data="{&quot;origPos&quot;:null}"/><path d="M248.28878,211.18041l3.02282,-5.24524" data-paper-data="{&quot;origPos&quot;:null}"/><path d="M228.62935,244.52456l5.69938,-0.08423" data-paper-data="{&quot;origPos&quot;:null}"/><path d="M246.09,234.9655l0.06132,4.14955" data-paper-data="{&quot;origPos&quot;:null}"/><path d="M237.14246,153.98887l4.7182,4.58078" data-paper-data="{&quot;origPos&quot;:null}"/></g><g data-paper-data="{&quot;origPos&quot;:null}" fill="none" stroke="#ffffff" stroke-width="1.99513" stroke-linecap="round"><path d="M231.02736,159.77987l1.06048,4.08478" data-paper-data="{&quot;origPos&quot;:null}"/><path d="M250.97617,183.23765l-3.53828,4.20274" data-paper-data="{&quot;origPos&quot;:null}"/><path d="M215.3736,186.71074l3.71019,4.04562" data-paper-data="{&quot;origPos&quot;:null}"/><path d="M224.9925,208.22095l-3.03834,4.19535" data-paper-data="{&quot;origPos&quot;:null}"/><path d="M224.69131,221.67687l-3.10705,-0.45414z" data-paper-data="{&quot;origPos&quot;:null}"/><path d="M250.06464,226.45246l-0.06871,-4.64949" data-paper-data="{&quot;origPos&quot;:null}"/><path d="M235.79945,239.06462l-1.11047,-4.08404" data-paper-data="{&quot;origPos&quot;:null}"/><path d="M244.25745,148.1831l2.184,5.66835" data-paper-data="{&quot;origPos&quot;:null}"/><path d="M249.11819,162.40945l-3.5767,1.60303z" data-paper-data="{&quot;origPos&quot;:null}"/><path d="M237.36825,206.48789l-2.54159,0.58762z" data-paper-data="{&quot;origPos&quot;:null}"/></g></g></g></svg>