<svg version="1.1" xmlns="http://www.w3.org/2000/svg" xmlns:xlink="http://www.w3.org/1999/xlink" width="209.08228" height="92.08354" viewBox="0,0,209.08228,92.08354"><g transform="translate(-78.74703,-116.61826)"><g data-paper-data="{&quot;isPaintingLayer&quot;:true}" fill-rule="nonzero" stroke-linecap="butt" stroke-linejoin="miter" stroke-miterlimit="10" stroke-dasharray="" stroke-dashoffset="0" style="mix-blend-mode: normal"><path d="M217.9662,161.8215v0v0v0v0l-2.7524,3.4108c0,0 -3.1725,-4.6465 -4.1397,-4.7193c-0.9672,-0.0727 -6.2065,3.831 -8.4149,1.8161c-2.206,-2.0149 5.0118,-6.8186 9.0014,-6.6739c3.9897,0.1439 6.3056,6.1663 6.3056,6.1663z" fill="#74bf44" stroke="#000000" stroke-width="2.32134"/><path d="M211.6606,172.146v0v0v0v0l-1.5537,5.6045c0,0 -5.3198,-4.6852 -6.7706,-4.6852c-1.4508,0 -3.0951,9.5755 -7.9313,8.3181c-4.8361,-1.2574 3.3884,-13.9087 6.8434,-14.7018c3.4549,-0.7939 9.4122,5.4644 9.4122,5.4644z" fill="#74bf44" stroke="#000000" stroke-width="2.32134"/><path d="M213.4457,186.3349v0v0v0v0l4.1096,4.8771l0.4117,4.0469c0,0 -9.02,-5.4877 -11.0512,-5.391c-2.0312,0.0968 -8.705,11.6068 -12.9956,8.8018c-4.2907,-2.8049 7.4956,-14.6446 11.448,-15.2822c3.9525,-0.6391 8.0775,2.9474 8.0775,2.9474z" fill="#74bf44" stroke="#000000" stroke-width="2.32134"/><path d="M261.6956,161.8215c0,0 2.316,-6.0224 6.3056,-6.1663c3.988,-0.1447 11.2074,4.659 9.0014,6.6739c-2.2084,2.0149 -7.4477,-1.8888 -8.4149,-1.8161c-0.9672,0.0728 -4.1413,4.7193 -4.1413,4.7193l-2.7508,-3.4108v0z" fill="#74bf44" stroke="#000000" stroke-width="2.32134"/><path d="M268.0019,172.146c0,0 5.9558,-6.2583 9.4123,-5.4644c3.4549,0.7931 11.6795,13.4444 6.8433,14.7018c-4.8361,1.2574 -6.4804,-8.3181 -7.9312,-8.3181c-1.4509,0 -6.7706,4.6852 -6.7706,4.6852l-1.5538,-5.6045v0z" fill="#74bf44" stroke="#000000" stroke-width="2.32134"/><path d="M266.2168,186.5554c0,0 4.1251,-3.5865 8.0775,-2.9473c3.9517,0.6376 15.7387,12.4772 11.4481,15.2821c-4.2906,2.805 -10.9645,-8.705 -12.9956,-8.8017c-2.0312,-0.0967 -11.0512,5.3909 -11.0512,5.3909l0.4117,-4.0469l4.1095,-4.8771v0z" fill="#74bf44" stroke="#000000" stroke-width="2.32134"/><g stroke="none" stroke-width="0.77378"><g><path d="M240.159,177.7838l-0.8813,-24.4793l1.2295,0.0271c1.2133,0.0263 2.4776,0.1361 3.7575,0.3273c2.254,0.3358 4.4925,0.9277 6.6545,1.7572c3.9656,1.5228 7.631,3.8364 10.6016,6.6909c1.9739,1.8973 3.6019,3.9904 4.8415,6.2212c1.7805,3.2058 2.6827,6.5292 2.6827,9.8789c0,0.4271 -0.0186,0.8829 -0.0588,1.3928c-0.1741,2.2478 -0.7645,4.4237 -1.7573,6.468c-0.8759,1.8045 -2.0636,3.5145 -3.5307,5.0838c-0.4596,0.5331 -1.2265,1.2666 -2.2618,2.1588c0.0031,0.1029 0.0054,0.2066 0.0054,0.3095c0,0.7869 -0.0905,1.5685 -0.27,2.3252l-0.0967,0.4063l-0.3335,0.2522c-0.438,0.3304 -0.9255,0.674 -1.4927,1.0493c-3.6654,2.432 -8.0117,4.1405 -12.5677,4.9398c-1.748,0.3072 -3.5416,0.4867 -5.3321,0.5323l-1.1901,0.031v-25.3723v0z" fill="#a6479a"/><path d="M240.4817,154.4915l0.8364,23.2923v24.1814c1.7642,-0.0456 3.489,-0.2213 5.1611,-0.5153c4.5174,-0.7923 8.6463,-2.4544 12.1267,-4.7634c0.4898,-0.325 0.9711,-0.6593 1.4346,-1.009c0.1579,-0.6631 0.2391,-1.3503 0.2391,-2.0575c0,-0.2747 -0.0162,-0.5455 -0.0402,-0.8163c0.8457,-0.7135 1.9708,-1.7054 2.6092,-2.4452c1.3634,-1.4578 2.4931,-3.0634 3.335,-4.7982c0.9099,-1.8741 1.4779,-3.9006 1.6442,-6.0502c0.0333,-0.431 0.055,-0.8643 0.055,-1.3038c0,-3.2522 -0.9247,-6.4131 -2.5365,-9.3156c-1.1939,-2.1495 -2.7662,-4.1552 -4.6303,-5.9472c-2.8405,-2.7292 -6.3504,-4.9607 -10.2139,-6.4441c-2.0536,-0.7885 -4.2047,-1.3642 -6.4084,-1.693c-1.1924,-0.178 -2.398,-0.2886 -3.612,-0.3149M240.4817,154.4915v0v0v0v0l-2.4081,-2.374v0l2.4591,0.0557c1.2621,0.0271 2.5752,0.1408 3.9037,0.3389c2.3369,0.349 4.6574,0.9618 6.8983,1.8223c4.1088,1.5777 7.9096,3.9764 10.9908,6.9377c2.0567,1.977 3.7559,4.1614 5.0512,6.4936c1.8772,3.3806 2.8282,6.8936 2.8282,10.4429c0,0.4565 -0.0201,0.9417 -0.0619,1.4826c-0.1849,2.3925 -0.8148,4.7092 -1.8702,6.8843c-0.9201,1.8965 -2.1643,3.6925 -3.6979,5.3383c-0.4542,0.5208 -1.1166,1.1653 -1.9755,1.9229c-0.0155,0.8039 -0.1161,1.6025 -0.2994,2.377l-0.1927,0.814l-0.6662,0.503c-0.4573,0.3451 -0.9642,0.7018 -1.5507,1.091c-3.7985,2.5195 -8.2957,4.2883 -13.008,5.1155c-1.8053,0.3165 -3.6561,0.5014 -5.5032,0.5494l-2.3809,0.0611v-2.3825v-24.1404l-0.8364,-23.2498l-0.0883,-2.4575z" fill="#000000"/></g><path d="M245.6931,163.4727c0.7451,0 1.4199,0.3188 1.9089,0.8334c0.489,0.5146 0.7916,1.2257 0.7916,2.0103c0,0.7846 -0.3026,1.4957 -0.7916,2.0103c-0.489,0.5145 -1.1638,0.8333 -1.9089,0.8333c-0.7452,0 -1.4199,-0.3188 -1.9089,-0.8333c-0.4891,-0.5146 -0.7916,-1.2257 -0.7916,-2.0103c0,-0.7846 0.3025,-1.4957 0.7916,-2.0103c0.489,-0.5146 1.1637,-0.8334 1.9089,-0.8334z" fill="#f4eb43"/><path d="M256.8827,174.6918c0.7452,0 1.4199,0.3188 1.9089,0.8333c0.4891,0.5146 0.7916,1.2257 0.7916,2.0103c0,0.7846 -0.3025,1.4957 -0.7916,2.0103c-0.489,0.5146 -1.1637,0.8334 -1.9089,0.8334c-0.7451,0 -1.4199,-0.3188 -1.9089,-0.8334c-0.489,-0.5146 -0.7916,-1.2257 -0.7916,-2.0103c0,-0.7846 0.3026,-1.4957 0.7916,-2.0103c0.489,-0.5145 1.1638,-0.8333 1.9089,-0.8333z" fill="#f4eb43"/><path d="M246.8615,161.4586v0v0v0v0c-2.083,0 -3.7722,-1.7789 -3.7722,-3.9718c0,-1.0369 0.3861,-1.9724 1.0044,-2.6804c2.2029,0.3281 4.3548,0.9038 6.4084,1.693c0.0774,0.3173 0.1316,0.6446 0.1316,0.9874c0,2.1929 -1.6892,3.9718 -3.7722,3.9718z" fill="#f4eb43"/><path d="M254.046,168.2346v0v0v0v0c0,-2.9706 2.5404,-5.3786 5.6734,-5.3786c0.3405,0 0.6724,0.0341 0.9966,0.0882c1.8641,1.7921 3.4364,3.7978 4.6303,5.9473c-0.342,2.6603 -2.7283,4.7216 -5.6269,4.7216c-3.1338,0 -5.6734,-2.408 -5.6734,-5.3785z" fill="#f4eb43"/><path d="M250.6329,186.8734v0v0v0v0c4.5583,0 8.2539,3.5029 8.2539,7.8237c0,0.6887 -0.1029,1.3541 -0.2793,1.9902c-3.4805,2.3089 -7.6094,3.971 -12.1267,4.7634c-2.4506,-1.3565 -4.1011,-3.8697 -4.1011,-6.7544c0,-4.32 3.6941,-7.8229 8.2532,-7.8229z" fill="#f4eb43"/><path d="M264.3311,177.8032v0v0v0v0c1.4431,0 2.716,0.6747 3.4975,1.7069c-0.1663,2.1496 -0.7343,4.1761 -1.6443,6.0502c-0.5617,0.2561 -1.1893,0.4024 -1.8532,0.4024c-2.3778,0 -4.3037,-1.8269 -4.3037,-4.0794c0,-2.254 1.9259,-4.0801 4.3037,-4.0801z" fill="#f4eb43"/><path d="M247.3938,171.2786c1.1878,0 2.2633,0.4573 3.0425,1.1955c0.7792,0.7382 1.2613,1.7581 1.2613,2.8839c0,1.1259 -0.4821,2.1457 -1.2613,2.8839c-0.7792,0.7382 -1.8547,1.1955 -3.0425,1.1955c-1.1877,0 -2.2633,-0.4573 -3.0425,-1.1955c-0.7792,-0.7382 -1.2612,-1.758 -1.2612,-2.8839c0,-1.1258 0.482,-2.1457 1.2612,-2.8839c0.7792,-0.7382 1.8548,-1.1955 3.0425,-1.1955z" fill="#f4eb43"/></g><g stroke="none" stroke-width="0.77378"><g><path d="M238.192,203.0725c-7.3354,-0.441 -14.2236,-3.1013 -19.3963,-7.4886l-0.3475,-0.2941l-0.0541,-0.4519c-0.0534,-0.4433 -0.0797,-0.8418 -0.0797,-1.2171c0,-0.1478 0.0038,-0.2995 0.0124,-0.4589c-0.2809,-0.2584 -0.5703,-0.5292 -0.8558,-0.7977l-0.0828,0.2553l-1.3317,-1.4671c-0.3088,-0.3304 -0.6028,-0.6701 -0.8875,-1.0144c-1.974,-2.3817 -3.3111,-5.028 -3.9757,-7.8678c-0.3211,-1.3704 -0.4836,-2.7369 -0.4836,-4.0624c0,-5.0852 2.059,-10.0908 5.9534,-14.4735c3.7861,-4.262 9.0215,-7.522 14.7406,-9.1809c2.5991,-0.7537 5.2385,-1.1638 7.8438,-1.2211l1.2295,-0.027l-0.8829,24.5203l-0.1795,25.3197l-1.2226,-0.0728v0z" fill="#a6479a"/><path d="M239.273,154.493c-2.5728,0.0565 -5.1116,0.4697 -7.5467,1.1754c-5.5743,1.6164 -10.5969,4.7858 -14.1958,8.8366c-3.5044,3.9439 -5.6602,8.7197 -5.6602,13.7028c0,1.3132 0.1664,2.5767 0.4527,3.7978c0.6368,2.7206 1.9283,5.2067 3.7381,7.3903l0.0008,0.0008c0.2708,0.3266 0.5494,0.6492 0.8426,0.9626c0.0117,-0.0348 0.0287,-0.0689 0.0403,-0.1037c0.2909,0.2809 0.6376,0.6136 0.9974,0.9549c0.5246,0.4983 1.0833,1.0221 1.5862,1.4756c-0.0317,0.3095 -0.0534,0.6205 -0.0534,0.9339c0,0.366 0.0287,0.7243 0.0712,1.0787c4.8315,4.0979 11.3986,6.7744 18.7155,7.2147l0.0162,-2.2533l0.1138,-16.035l0.0418,-5.8413l0.1036,-2.8754l0.2569,-7.1249l0.479,-13.2905M239.273,154.493v0v0v0v0l2.408,-2.374v0l-0.0897,2.4576l-0.4782,13.2904l-0.2569,7.125l-0.1022,2.8421l-0.041,5.808l-0.1137,16.0351l-0.0163,2.2532l-0.0178,2.4475l-2.4428,-0.147c-7.5846,-0.4566 -14.715,-3.2128 -20.0773,-7.7611l-0.6941,-0.5896l-0.1091,-0.9037c-0.0402,-0.3328 -0.0665,-0.6438 -0.0789,-0.9417l-1.9538,-2.09c-0.2778,-0.2964 -0.5548,-0.6121 -0.8674,-0.9866l-0.0023,-0.0023l-0.065,-0.0789c-2.0877,-2.5202 -3.5045,-5.3267 -4.2102,-8.3414c-0.3412,-1.457 -0.5145,-2.9133 -0.5145,-4.3278c0,-5.3746 2.1596,-10.6456 6.2459,-15.245c3.9293,-4.4229 9.3574,-7.8059 15.2845,-9.5245c2.6959,-0.7815 5.4351,-1.2071 8.1417,-1.2659l2.4591,-0.0534z" fill="#000000"/></g><path d="M236.5803,167.1985v0v0v0v0c0.8109,0 1.5661,0.2166 2.2137,0.585l-0.2569,7.1249c-0.5873,0.2856 -1.2512,0.4496 -1.9568,0.4496c-2.3779,0 -4.3038,-1.8269 -4.3038,-4.0794c0,-2.254 1.9259,-4.0801 4.3038,-4.0801z" fill="#f4eb43"/><path d="M230.6871,176.5945c0.7452,0 1.4199,0.3188 1.909,0.8334c0.489,0.5145 0.7915,1.2256 0.7915,2.0103c0,0.7846 -0.3025,1.4957 -0.7915,2.0102c-0.4891,0.5146 -1.1638,0.8334 -1.909,0.8334c-0.7451,0 -1.4199,-0.3188 -1.9089,-0.8334c-0.489,-0.5145 -0.7916,-1.2256 -0.7916,-2.0102c0,-0.7847 0.3026,-1.4958 0.7916,-2.0103c0.489,-0.5146 1.1638,-0.8334 1.9089,-0.8334z" fill="#f4eb43"/><path d="M224.876,189.4749c0.7452,0 1.4199,0.3188 1.909,0.8333c0.489,0.5146 0.7915,1.2257 0.7915,2.0103c0,0.7846 -0.3025,1.4957 -0.7915,2.0103c-0.4891,0.5146 -1.1638,0.8334 -1.909,0.8334c-0.7451,0 -1.4198,-0.3188 -1.9089,-0.8334c-0.489,-0.5146 -0.7916,-1.2257 -0.7916,-2.0103c0,-0.7846 0.3026,-1.4957 0.7916,-2.0103c0.4891,-0.5145 1.1638,-0.8333 1.9089,-0.8333z" fill="#f4eb43"/><path d="M220.669,171.2794c1.1877,0 2.2633,0.4573 3.0425,1.1955c0.7792,0.7382 1.2613,1.758 1.2613,2.8839c0,1.1258 -0.4821,2.1457 -1.2613,2.8839c-0.7792,0.7382 -1.8548,1.1955 -3.0425,1.1955c-1.1878,0 -2.2633,-0.4573 -3.0425,-1.1955c-0.7792,-0.7382 -1.2613,-1.7581 -1.2613,-2.8839c0,-1.1259 0.4821,-2.1457 1.2613,-2.8839c0.7792,-0.7382 1.8547,-1.1955 3.0425,-1.1955z" fill="#f4eb43"/><g fill="#f4eb43"><path d="M219.6994,185.8505v0v0v0v0c0.4496,2.0776 -0.2955,4.1196 -1.7557,5.3607c-0.3598,-0.3412 -0.7064,-0.6739 -0.9974,-0.9548c-0.0116,0.0348 -0.0286,0.0689 -0.0402,0.1037c-0.2933,-0.3134 -0.5718,-0.6361 -0.8427,-0.9626l-0.0007,-0.0008c-1.8099,-2.1836 -3.1013,-4.6698 -3.7382,-7.3904c0.3521,-0.1733 0.7289,-0.3095 1.129,-0.3954c2.8119,-0.6097 5.6084,1.2899 6.2459,4.2396z"/></g><g fill="#f4eb43"><path d="M224.876,168.5108v0v0v0v0c-3.1361,0 -5.8683,-1.6118 -7.3447,-4.0058c3.5989,-4.0508 8.6215,-7.2202 14.1958,-8.8366c1.0392,1.3378 1.6605,2.9845 1.6605,4.7734c0,4.457 -3.8108,8.069 -8.5116,8.069z"/></g><g fill="#f4eb43"><path d="M230.7614,191.6515v0v0v0v0c0,-4.1745 3.3435,-7.6078 7.631,-8.0256l-0.1137,16.035c-4.2318,-0.4681 -7.5173,-3.872 -7.5173,-8.0094z"/></g></g><g><path d="M230.0673,180.6344v0v0v0v0l-4.474,1.7232c0,0 -3.3094,-3.1701 -4.2666,-7.8879c-0.9572,-4.7177 1.5476,-8.3669 4.0283,-8.6423c2.4808,-0.2755 3.1292,2.8862 2.839,6.5616c-0.2902,3.6755 1.8733,8.2454 1.8733,8.2454z" fill="#74bf44" stroke="#000000" stroke-width="2.32134"/><path d="M249.5945,180.6344c0,0 2.1635,-4.5699 1.8733,-8.2454c-0.2902,-3.6754 0.3583,-6.8371 2.839,-6.5616c2.4807,0.2754 4.9855,3.9246 4.0283,8.6423c-0.9572,4.7178 -4.2659,7.8872 -4.2659,7.8872l-4.4747,-1.7225v0z" fill="#74bf44" stroke="#000000" stroke-width="2.32134"/><g stroke="none" stroke-width="0.77378"><path d="M239.8773,207.5411c-12.2923,0 -21.5621,-5.9844 -21.5621,-13.9203c0,-8.2733 9.6722,-15.0044 21.5621,-15.0044c11.8899,0 21.5638,6.7303 21.5638,15.0044c0,7.9359 -9.2699,13.9203 -21.5638,13.9203v0v0z" fill="#74bf44"/><path d="M239.8773,179.7771c-11.1223,0 -20.4015,6.2978 -20.4015,13.8437c0,7.5444 9.2792,12.7596 20.4015,12.7596c11.1224,0 20.4031,-5.216 20.4031,-12.7596c0,-7.5459 -9.2807,-13.8437 -20.4031,-13.8437M239.8773,179.7771v0v0v0v0v-2.3214v0c12.5299,0 22.7244,7.2511 22.7244,16.1651c0,8.5975 -9.7697,15.081 -22.7244,15.081c-12.9538,0 -22.7228,-6.4835 -22.7228,-15.081c0,-8.914 10.1938,-16.1651 22.7228,-16.1651z" fill="#000000"/></g><path d="M233.5138,196.9891c3.9029,1.9011 6.9346,-1.3317 10.4445,0.4642c2.9999,1.5337 6.355,-2.9682 8.7444,1.2412c0.8481,1.4918 -0.4054,3.4626 -2.1658,4.0128c-2.343,0.7312 -5.0295,-0.9146 -7.0058,0.4534c-2.1457,1.4841 -2.4413,1.9221 -5.0543,0.9657c-1.5244,-0.561 -2.5357,-1.9406 -4.2078,-2.2409c-1.6637,-0.301 -3.472,1.2087 -5.0869,0.2299c-3.9989,-2.4258 1.9252,-6.2994 4.3317,-5.1263v0z" fill="#231f20" stroke="none" stroke-width="0.77378"/><g stroke="none" stroke-width="0.77378"><path d="M232.6255,184.5281v0v0v0v0c2.3979,0.3567 3.9919,2.9953 3.6321,5.401c-0.3598,2.4041 -2.658,4.4748 -5.0551,4.1165c-2.3972,-0.3575 -3.9889,-3.0116 -3.6314,-5.4149c0.3598,-2.4049 2.658,-4.4624 5.0544,-4.1026z" fill="#ffffff"/><path d="M231.888,187.5737c0.5022,0 0.9572,0.2166 1.2868,0.5672c0.3289,0.3497 0.5332,0.8333 0.5332,1.3672c0,0.534 -0.2043,1.0176 -0.5332,1.3673c-0.3296,0.3505 -0.7846,0.5672 -1.2868,0.5672c-0.5021,0 -0.9571,-0.2167 -1.2868,-0.5672c-0.3288,-0.3497 -0.5331,-0.8333 -0.5331,-1.3673c0,-0.5339 0.2043,-1.0175 0.5331,-1.3672c0.3297,-0.3506 0.7847,-0.5672 1.2868,-0.5672z" fill="#231f20"/><path d="M232.8228,182.4296v0v0v0v0c3.6661,0.5471 6.1778,4.0515 5.613,7.8252c-0.5641,3.7753 -3.9927,6.3899 -7.6574,5.8429c-3.6638,-0.5471 -6.1778,-4.0516 -5.6145,-7.8268c0.5625,-3.7738 3.9942,-6.3884 7.6589,-5.8413zM236.2576,189.9283v0v0v0v0c0.3598,-2.4049 -1.2342,-5.0435 -3.6321,-5.401c-2.3957,-0.3598 -4.6946,1.6985 -5.0544,4.1026c-0.3575,2.4034 1.2334,5.0574 3.6314,5.4149c2.3964,0.3583 4.6953,-1.7124 5.0551,-4.1165z" fill="#231f20"/></g><g stroke="none" stroke-width="0.77378"><path d="M248.7797,184.5281v0v0v0v0c2.3979,0.3567 3.9919,2.9953 3.6321,5.401c-0.3598,2.4041 -2.6579,4.4748 -5.0551,4.1165c-2.3972,-0.3575 -3.9888,-3.0116 -3.6314,-5.4149c0.3599,-2.4049 2.658,-4.4624 5.0544,-4.1026z" fill="#ffffff"/><path d="M248.0423,187.5737c0.5022,0 0.9571,0.2166 1.2868,0.5672c0.3288,0.3497 0.5331,0.8333 0.5331,1.3672c0,0.534 -0.2043,1.0176 -0.5331,1.3673c-0.3297,0.3505 -0.7846,0.5672 -1.2868,0.5672c-0.5022,0 -0.9572,-0.2167 -1.2868,-0.5672c-0.3289,-0.3497 -0.5332,-0.8333 -0.5332,-1.3673c0,-0.5339 0.2043,-1.0175 0.5332,-1.3672c0.3296,-0.3506 0.7846,-0.5672 1.2868,-0.5672z" fill="#231f20"/><path d="M248.977,182.4296v0v0v0v0c3.6662,0.5471 6.1779,4.0515 5.613,7.8252c-0.5641,3.7753 -3.9927,6.3899 -7.6573,5.8429c-3.6639,-0.5471 -6.1779,-4.0516 -5.6146,-7.8268c0.5625,-3.7738 3.9943,-6.3884 7.6589,-5.8413zM252.4118,189.9283v0v0v0v0c0.3598,-2.4049 -1.2342,-5.0435 -3.6321,-5.401c-2.3956,-0.3598 -4.6945,1.6985 -5.0544,4.1026c-0.3574,2.4034 1.2334,5.0574 3.6314,5.4149c2.3964,0.3583 4.6953,-1.7124 5.0551,-4.1165z" fill="#231f20"/></g></g><text transform="translate(115.48907,141.86826) scale(0.5,0.5)" font-size="40" xml:space="preserve" fill="#d3bcff" fill-rule="nonzero" stroke="none" stroke-width="1" stroke-linecap="butt" stroke-linejoin="miter" stroke-miterlimit="10" stroke-dasharray="" stroke-dashoffset="0" font-family="Pixel" font-weight="normal" text-anchor="start" style="mix-blend-mode: normal"><tspan x="0" dy="0">!##$$!@@!$#</tspan></text><text transform="translate(78.99703,166.65936) scale(0.5,0.5)" font-size="40" xml:space="preserve" fill="#d3bcff" fill-rule="nonzero" stroke="none" stroke-width="1" stroke-linecap="butt" stroke-linejoin="miter" stroke-miterlimit="10" stroke-dasharray="" stroke-dashoffset="0" font-family="Pixel" font-weight="normal" text-anchor="start" style="mix-blend-mode: normal"><tspan x="0" dy="0"> </tspan></text></g></g></svg>