<svg version="1.1" xmlns="http://www.w3.org/2000/svg" xmlns:xlink="http://www.w3.org/1999/xlink" width="371.94451" height="57.21495" viewBox="0,0,371.94451,57.21495"><g transform="translate(-115.68215,-151.142)"><g data-paper-data="{&quot;isPaintingLayer&quot;:true}" fill-rule="nonzero" stroke="none" stroke-linecap="butt" stroke-linejoin="miter" stroke-miterlimit="10" stroke-dasharray="" stroke-dashoffset="0" style="mix-blend-mode: normal"><path d="M211.87239,208.35695v-57.21495h55.61079v57.21495z" fill="#f2ceac" stroke-width="0"/><path d="M266.5,177.2c0.1,1.1 -0.2,2.3 -0.3,3.5c-0.2,3 -1.3,5.7 -2.5,8.4c-1.4,3.2 -3.9,5.6 -6.6,7.7c-2.4,2 -5,3.8 -7.6,5.5c-1.9,1.1 -4,2 -6,2.8c-1.5,0.5 -3.1,0.9 -4.3,1.2c-3.4,0 -6.5,-0.2 -9.6,-0.2c-2.9,0 -5.7,0.1 -8.6,0.2c-1.5,0.1 -3,0.2 -4.5,0.3c-0.6,0 -0.7,-0.2 -0.8,-0.7c-0.1,-0.5 -0.2,-1.1 -0.2,-1.6c0,-0.3 0.2,-0.6 0.4,-0.8c1.1,-0.9 2.1,-1.8 3.3,-2.5c0.9,-0.6 1.3,-1.3 1.2,-2.4c-0.1,-3 -0.2,-6.1 -0.2,-9.2c0,-4.7 0,-9.3 0.1,-14c0,-1.7 0.3,-3.5 0.4,-5.2c0,-1.1 -0.2,-2.2 -0.2,-3.3c0,-0.7 0,-1.4 0.1,-2.1c0.2,-1.2 -0.2,-1.7 -1.5,-1.6c-1.2,0.1 -2.5,0 -3.7,-0.1c-0.2,0 -0.4,-0.3 -0.4,-0.5c0,-0.8 0.1,-1.7 0.2,-2.5c0,-0.2 0,-0.3 0.1,-0.4c1.8,-1.7 3.5,-3.4 5.3,-5c0.2,-0.2 0.7,-0.4 1,-0.4c1.1,-0.2 2.1,-0.3 3.1,-0.3c6.3,0.1 12.6,0.2 18.9,0.3c3.6,0.1 7,1.1 10.2,2.7c3,1.5 5.7,3.4 7.7,6.2c1,1.5 1.9,3.1 2.5,4.7c1.2,3 2.2,6.1 2.5,9.3zM215.8,161.9c0.3,-0.3 0.5,-0.5 0.7,-0.6c1.2,-1.1 2.4,-2.4 3.7,-3.4c0.8,-0.7 0.8,-1.4 0.6,-2.3c-0.2,0.1 -0.3,0.3 -0.5,0.5c-1.3,1.1 -2.5,2.3 -3.8,3.4c-1,0.8 -1.1,0.8 -0.7,2.4zM221.2,164.5c-0.1,0.5 -0.1,1 -0.1,1.5c0.1,1.4 0.3,2.8 0.3,4.2c0,1.8 -0.4,3.6 -0.4,5.4c-0.1,3.8 -0.1,7.6 -0.1,11.4c0,4.1 0.1,8.1 0.1,12.1c0,0.1 0.1,0.3 0.1,0.4c0.5,-0.1 1.1,-0.2 1.6,-0.3c2.1,-0.4 2.5,-1.1 2.4,-3.2c-0.1,-1.3 -0.1,-2.7 -0.1,-4c0,-5.1 0.2,-10.2 0.2,-15.2c0,-2.5 -0.3,-4.9 -0.3,-7.4c0,-2.4 0,-4.9 0,-7.3c0,-1.3 0,-2.5 0,-3.8c0,-0.8 -0.4,-1.3 -1.2,-1.3c-0.9,0 -1.8,-0.1 -2.5,0.7c-0.6,0.7 -1.5,1.3 -2.2,2c-0.9,0.9 -1.8,1.8 -2.8,2.7c0,0.1 0.1,0.2 0.1,0.3c1,0 2,-0.1 3,-0.2c1.5,-0.1 2,0.5 1.9,2zM221,201.9c0.5,-0.4 0.5,-0.9 0.2,-1.5c-1.4,1.1 -2.9,2.1 -4.3,3.2c-1,0.7 -1,0.8 -0.6,2.1c1.6,-1.3 3.1,-2.6 4.7,-3.8zM250.2,200.9c0,0 -0.1,-0.1 -0.1,-0.2c-1.9,0.7 -3.8,0.7 -5.8,0.6c-1.4,0 -2.7,-0.1 -4.1,-0.1c-3.9,0 -7.8,0.1 -11.8,0.1c-1.7,0.1 -3.3,0.2 -4.9,0.2c-0.8,0 -1.6,0.2 -2.1,0.9c-0.2,0.4 -0.6,0.6 -1,0.9c-1,0.9 -2,1.7 -3.1,2.6c2.5,-0.1 4.9,-0.3 7.3,-0.3c4,0 7.9,0.1 11.8,0.1c3.5,-0.1 6.9,-0.8 10,-2.4c1.3,-0.7 2.6,-1.5 3.8,-2.4zM250.9,195.3c2.1,-2.3 3.2,-5.3 3.7,-8.3c0.5,-2.7 0.5,-5.5 0.6,-8.2c0,-1.4 0,-2.9 -0.4,-4.2c-0.7,-2 -1.7,-4 -2.7,-5.8c-1,-1.7 -2.8,-2.8 -4.3,-4c-1.9,-1.4 -3.9,-1.9 -6.2,-1.9c-3.1,0 -6.1,-0.1 -9.2,-0.1v0.4c0.1,4.9 0.2,9.7 0.2,14.6c0,6.4 -0.1,12.7 -0.2,19.1c0,1.1 0.2,1.3 1.2,1.6c0.3,0.1 0.6,0.1 0.9,0.1c3,0 5.9,0.1 8.8,0c2.9,-0.1 5.4,-1.2 7.6,-3.3zM258.2,171.1c-1,-2.6 -2.3,-5 -3.6,-7.5c-1.6,-3.1 -4.4,-4.9 -7.6,-5.9c-4.1,-1.3 -8.3,-0.8 -12.5,-0.7c-1.2,0 -2.1,0.9 -2.1,2c0,1 0,2 0,3.2c1.3,0 2.6,0 4,0c2.8,0.1 5.7,-0.4 8.5,0.3c2.1,0.5 3.9,1.8 5.5,3.2c1.4,1.3 2.4,3 3.5,4.6c0.4,0.6 0.8,1.2 1,1.9c0.4,1.7 0.9,3.5 1,5.3c0.4,4.9 -0.1,9.8 -2.3,14.4c-0.4,0.8 -0.9,1.7 -1.4,2.5c-0.2,0.3 -0.3,0.6 -0.5,0.9c0.1,0 0.1,0.1 0.2,0.1c0,-0.1 0.1,-0.1 0.2,-0.2c0.2,-0.2 0.4,-0.4 0.6,-0.6c2.1,-2.2 3.4,-5 4.8,-7.8c0.2,-0.4 0.4,-1 0.5,-1.5c0.4,-2.2 0.7,-4.4 1,-6.6c0.3,-2.6 0.1,-5.2 -0.8,-7.6z" fill="#ff0000" stroke-width="1"/><path d="M259,178.7c-0.3,2.2 -0.6,4.4 -1,6.6c-0.1,0.5 -0.3,1.1 -0.5,1.5c-1.4,2.8 -2.7,5.6 -4.8,7.8c-0.2,0.2 -0.4,0.4 -0.6,0.6c-0.1,0.1 -0.2,0.1 -0.2,0.2c-0.1,0 -0.1,-0.1 -0.2,-0.1c0.2,-0.3 0.3,-0.6 0.5,-0.9c0.5,-0.8 1,-1.7 1.4,-2.5c2.2,-4.6 2.7,-9.5 2.3,-14.4c-0.1,-1.8 -0.6,-3.6 -1,-5.3c-0.2,-0.7 -0.6,-1.3 -1,-1.9c-1.1,-1.6 -2.1,-3.3 -3.5,-4.6c-1.6,-1.4 -3.4,-2.7 -5.5,-3.2c-2.8,-0.7 -5.7,-0.2 -8.5,-0.3c-1.4,0 -2.7,0 -4,0c0,-1.2 0,-2.2 0,-3.2c0,-1.1 0.9,-2 2.1,-2c4.2,-0.1 8.4,-0.6 12.5,0.7c3.2,1 6,2.8 7.6,5.9c1.3,2.5 2.6,4.9 3.6,7.5c0.9,2.4 1.1,5 0.8,7.6z" fill="#ffffff" stroke-width="1"/><path d="M250.3,201.1c-1.3,0.7 -2.5,1.6 -3.9,2.2c-3.1,1.6 -6.5,2.3 -10,2.4c-3.9,0 -7.8,-0.1 -11.8,-0.1c-2.4,0 -4.8,0.2 -7.3,0.3c1.1,-0.9 2.1,-1.7 3.1,-2.6c0.4,-0.3 0.8,-0.5 1,-0.9c0.5,-0.7 1.3,-0.9 2.1,-0.9c1.6,0 3.2,-0.1 4.9,-0.2c4,0 7.9,-0.1 11.8,-0.1c1.4,0 2.7,0.1 4.1,0.1c2,0.1 3.9,0.1 5.8,-0.6c0.1,0.2 0.1,0.3 0.2,0.4z" fill="#ffffff" stroke-width="1"/><path d="M221,201.8c-1.6,1.3 -3.1,2.6 -4.7,3.9c-0.4,-1.3 -0.4,-1.4 0.6,-2.1c1.4,-1.1 2.9,-2.1 4.3,-3.2c0.4,0.5 0.3,1 -0.2,1.4z" fill="#ffffff" stroke-width="1"/><path d="M220.2,157.9c-1.3,1 -2.5,2.3 -3.7,3.4c-0.2,0.1 -0.4,0.3 -0.7,0.6c-0.4,-1.6 -0.3,-1.6 0.7,-2.4c1.3,-1.1 2.5,-2.3 3.8,-3.4c0.2,-0.2 0.3,-0.4 0.5,-0.5c0.2,0.9 0.2,1.6 -0.6,2.3z" fill="#ffffff" stroke-width="1"/><path d="M225.1,196.1c0.1,2.1 -0.3,2.8 -2.4,3.2c-0.5,0.1 -1.1,0.2 -1.6,0.3c0,-0.1 -0.1,-0.3 -0.1,-0.4c0,-4.1 -0.1,-8.1 -0.1,-12.2c0,-3.8 0,-7.6 0.1,-11.4c0,-1.8 0.4,-3.6 0.4,-5.4c0,-1.4 -0.2,-2.8 -0.3,-4.2c0,-0.5 0,-1 0.1,-1.5c0.1,-1.5 -0.4,-2.1 -1.9,-2c-1,0.1 -2,0.2 -3,0.2c0,-0.1 -0.1,-0.2 -0.1,-0.3c1,-0.9 1.9,-1.8 2.8,-2.7c0.7,-0.7 1.6,-1.3 2.2,-2c0.7,-0.8 1.6,-0.7 2.5,-0.7c0.8,0 1.2,0.5 1.2,1.3c0,1.3 0,2.5 0,3.8c0,2.4 0,4.9 0,7.3c0,2.5 0.3,4.9 0.3,7.4c0,5 -0.2,10.1 -0.2,15.2c0,1.4 0,2.7 0.1,4.1z" fill="#ffffff" stroke-width="1"/><text transform="translate(282.98755,187.06473) scale(0.60814,0.60814)" font-size="40" xml:space="preserve" fill="#ffffff" fill-rule="nonzero" stroke="none" stroke-width="1" stroke-linecap="butt" stroke-linejoin="miter" stroke-miterlimit="10" stroke-dasharray="" stroke-dashoffset="0" font-family="Pixel" font-weight="normal" text-anchor="start" style="mix-blend-mode: normal"><tspan x="0" dy="0">TO MOVE  RIGHT</tspan></text><text transform="translate(115.98622,189.03466) scale(0.60814,0.60814)" font-size="40" xml:space="preserve" fill="#ffffff" fill-rule="nonzero" stroke="none" stroke-width="1" stroke-linecap="butt" stroke-linejoin="miter" stroke-miterlimit="10" stroke-dasharray="" stroke-dashoffset="0" font-family="Pixel" font-weight="normal" text-anchor="start" style="mix-blend-mode: normal"><tspan x="0" dy="0">PRESS</tspan></text></g></g></svg>