<svg version="1.1" xmlns="http://www.w3.org/2000/svg" xmlns:xlink="http://www.w3.org/1999/xlink" width="390.93048" height="65.93576" viewBox="0,0,390.93048,65.93576"><g transform="translate(-41.25252,2.80174)"><g data-paper-data="{&quot;isPaintingLayer&quot;:true}" fill-rule="nonzero" stroke-linejoin="miter" stroke-miterlimit="10" stroke-dasharray="" stroke-dashoffset="0" style="mix-blend-mode: normal"><g stroke="#703d00" stroke-linecap="round"><path d="M60.84336,15.1426c6.48625,-4.52458 12.43678,-6.25442 19.70927,-7.1643c3.45801,-0.42924 7.53525,0.27973 11.31661,2.70901c3.0127,1.95023 6.38617,5.50644 7.30526,8.96163c1.06288,3.99568 -0.62021,7.2959 -2.34549,9.69931c-3.95286,5.49039 -9.2321,9.58036 -14.75802,13.10616c-6.0441,4.22363 -12.32559,8.31362 -19.85364,10.07655c-2.84492,0.66676 -6.66054,-0.57371 -10.01834,-2.5537c-2.20715,-1.34616 -5.14227,-4.17162 -5.98601,-7.07041c-1.02205,-4.28513 -0.4591,-8.54392 1.10019,-11.74186c3.24618,-6.61749 7.04393,-11.49781 13.53018,-16.02239z" data-paper-data="{&quot;origPos&quot;:null}" fill="#a85b00" stroke-width="2.61452"/><path d="M60.81354,15.23506c6.48945,-4.52682 11.47675,-7.57551 18.33088,-9.15698c3.18921,-0.73456 8.41587,-0.72941 10.41344,2.33024c2.11099,2.83021 -0.38084,7.12702 -2.19631,9.44947c-4.29915,5.49811 -9.63636,9.81816 -15.37293,13.68279c-5.68561,3.96799 -12.11536,7.40385 -19.07128,9.42241c-2.31524,0.67493 -6.30793,1.03374 -7.76804,-1.57679c-2.05372,-3.23324 -0.89068,-7.64198 0.74002,-10.11051c3.88033,-5.87109 8.43477,-9.51381 14.92422,-14.04063z" data-paper-data="{&quot;origPos&quot;:null}" fill="#a85b00" stroke-width="2.4183"/><path d="M62.3593,14.35903c9.66784,-6.76186 13.10446,-6.4699 19.82962,-8.85745c3.16236,-1.1221 7.4057,-1.48605 10.07108,0.35227c3.7138,2.56344 7.8634,8.70611 7.25693,11.42672c-0.42818,1.93126 -6.68942,-2.98863 -8.97223,-1.79875c-1.54298,0.61191 2.25132,3.65433 1.32065,5.40234c-1.27314,2.36632 -6.96627,1.7534 -6.9443,4.13015c0.0278,2.69703 5.79754,3.11372 6.59203,5.94093c0.63977,1.74861 -1.69549,4.75044 -3.42417,4.15647c-3.29627,-1.13441 -3.963,-6.20756 -7.12372,-7.6779c-1.66196,-0.77514 -4.08324,0.82546 -4.58874,2.48699c-0.94595,3.12878 1.85223,6.62058 0.78373,9.65262c-0.57241,1.62118 -2.79251,2.31513 -4.36005,2.32747c-4.26029,-0.39531 -8.51687,-5.06739 -12.20878,-3.41678c-2.78761,1.24214 0.37289,8.54802 -1.82162,8.98818c-2.48588,0.48839 -4.79438,-7.36625 -7.51194,-7.74707c-1.67679,-0.23104 0.19086,6.59977 -1.36992,6.56524c-1.91356,-0.1835 -4.85766,-4.10184 -5.58521,-6.98323c-0.70792,-2.93316 -0.10133,-6.53575 1.81665,-8.85689c4.79715,-5.80164 3.22802,-5.96997 16.23999,-16.09132z" data-paper-data="{&quot;origPos&quot;:null}" fill="#703d00" stroke-width="1.99513"/></g><path d="M61.02993,14.48406c5.96542,-3.94654 12.20826,-7.79558 19.02139,-10.0161c3.53064,-1.14782 8.41439,-1.86575 11.83864,0.20559c3.71665,2.28485 7.98118,8.59226 7.0371,11.59897c-0.68991,2.03271 -7.48125,-2.93943 -10.30689,-1.51886c-1.56361,0.76753 2.32174,3.75528 1.40587,5.52451c-1.25323,2.39486 -7.00813,1.69338 -6.95394,4.11634c0.06442,2.74954 5.89403,3.25204 6.73407,6.14456c0.66935,1.79102 -1.64741,4.81937 -3.40034,4.19063c-3.34257,-1.20077 -4.08392,-6.3809 -7.29416,-7.92224c-1.68802,-0.81251 -4.11052,0.78635 -4.59837,2.47318c-0.91267,3.17648 1.95886,6.77345 0.92118,9.84966c-0.55595,1.64477 -2.78756,2.32223 -4.36965,2.3137c-4.30566,-0.46035 -8.66523,-5.28008 -12.36962,-3.64735c-2.79705,1.2286 0.49161,8.71822 -1.7176,9.13729c-2.50267,0.46433 -4.93873,-7.57318 -7.68698,-7.998c-1.69564,-0.25807 0.28161,6.72986 -1.2943,6.67364c-1.93402,-0.21282 -4.95861,-4.24657 -5.73182,-7.1934c-0.75412,-2.99938 -0.19038,-6.66341 1.71436,-9.00353c4.76406,-5.84908 10.93377,-10.51941 17.05106,-14.9286z" fill="#ddc6d2" stroke="#ddc6d2" stroke-width="2.02398" stroke-linecap="round"/><path d="M65.26314,19.2123c1.49841,-1.04524 2.92978,-1.88733 4.03154,-2.40361c1.1013,-0.51597 1.87344,-0.70645 2.05403,-0.44757c0.18059,0.25888 -0.26484,0.91774 -1.1294,1.77308c-0.86502,0.85567 -2.14962,1.90816 -3.64803,2.9534c-1.49841,1.04524 -2.92978,1.88733 -4.03154,2.40361c-1.1013,0.51597 -1.87344,0.70645 -2.05403,0.44757c-0.18059,-0.25888 0.26484,-0.91774 1.1294,-1.77308c0.86502,-0.85567 2.14962,-1.90816 3.64803,-2.9534z" fill="#a85b00" stroke="#703d00" stroke-width="1.99513" stroke-linecap="butt"/><g fill="none" stroke="#6148a4" stroke-width="1.99513" stroke-linecap="round"><path d="M58.95015,33.33707l-0.71979,-4.05359" data-paper-data="{&quot;origPos&quot;:null}"/><path d="M64.44846,14.51094l-2.83582,1.97817" data-paper-data="{&quot;origPos&quot;:null}"/><path d="M72.09184,28.4899l2.18175,-2.91582" data-paper-data="{&quot;origPos&quot;:null}"/><path d="M77.22095,18.24845l3.26119,-0.88099" data-paper-data="{&quot;origPos&quot;:null}"/><path d="M55.41193,40.83917l1.70149,-2.58081" data-paper-data="{&quot;origPos&quot;:null}"/><path d="M45.66586,39.44194l-1.3241,-1.89817" data-paper-data="{&quot;origPos&quot;:null}"/><path d="M51.29905,23.34353l1.96734,-1.71232" data-paper-data="{&quot;origPos&quot;:null}"/><path d="M93.95228,7.97116l1.81864,2.60712" data-paper-data="{&quot;origPos&quot;:null}"/><path d="M77.12666,13.04457l-2.12686,1.48363" data-paper-data="{&quot;origPos&quot;:null}"/><path d="M72.15659,8.45405l-1.41791,0.98908z" data-paper-data="{&quot;origPos&quot;:null}"/></g><g fill="none" stroke="#9b4976" stroke-width="1.99513" stroke-linecap="round"><path d="M54.70942,26.23423l-2.0365,2.10055" data-paper-data="{&quot;origPos&quot;:null}"/><path d="M64.17619,28.74193l2.83582,-1.97817" data-paper-data="{&quot;origPos&quot;:null}"/><path d="M81.03501,13.14006l-1.48363,-2.12686" data-paper-data="{&quot;origPos&quot;:null}"/><path d="M67.36773,13.18852l3.36751,-0.2412" data-paper-data="{&quot;origPos&quot;:null}"/><path d="M90.46239,9.01168l1.81864,2.60712" data-paper-data="{&quot;origPos&quot;:null}"/><path d="M82.41185,6.53599l1.89817,-1.3241" data-paper-data="{&quot;origPos&quot;:null}"/><path d="M48.43347,32.346l-0.64324,3.61049" data-paper-data="{&quot;origPos&quot;:null}"/></g><g fill="none" stroke="#ffffff" stroke-width="1.99513" stroke-linecap="round"><path d="M53.6972,37.63522l1.55624,-1.76553" data-paper-data="{&quot;origPos&quot;:null}"/><path d="M58.30665,21.09271l3.04679,0.32251" data-paper-data="{&quot;origPos&quot;:null}"/><path d="M71.73961,33.4809l-0.71073,2.97761" data-paper-data="{&quot;origPos&quot;:null}"/><path d="M80.85137,25.39096l-2.88725,-0.09381" data-paper-data="{&quot;origPos&quot;:null}"/><path d="M84.27554,21.23449l0.76039,1.57743z" data-paper-data="{&quot;origPos&quot;:null}"/><path d="M78.5589,8.01937l-2.12686,1.48363" data-paper-data="{&quot;origPos&quot;:null}"/><path d="M87.30066,12.46072l1.54029,-1.7884" data-paper-data="{&quot;origPos&quot;:null}"/><path d="M44.20757,35.14347l1.93709,-2.77916" data-paper-data="{&quot;origPos&quot;:null}"/><path d="M49.26307,28.45514l1.85757,1.15206z" data-paper-data="{&quot;origPos&quot;:null}"/><path d="M73.29883,20.12005l1.06517,0.99086z" data-paper-data="{&quot;origPos&quot;:null}"/></g><path d="M329.5177,4.98568c5.5197,-1.65633 14.11293,-1.17213 19.18207,1.30064c2.89692,1.41314 4.80874,4.01288 6.60243,6.38761c0.70181,0.92915 1.80746,1.52697 2.59151,2.39566c1.76124,1.95137 3.1527,4.38765 4.39726,6.73515c4.60239,8.68101 2.58064,21.97114 -5.19174,28.22674c-0.56523,0.45493 -1.42138,0.43253 -2.07892,0.75898c-7.5903,3.76834 -14.66311,3.97135 -22.80661,1.69594c-1.03536,-0.28929 -1.77531,1.15995 -2.67057,1.72939c-1.61653,1.0282 -3.933,1.66575 -5.86968,1.97267c-3.63053,0.57536 -8.97892,0.85111 -12.41928,-0.18127c-1.15898,-0.34778 -2.15285,-1.1925 -3.35821,-1.34547c-0.58615,-0.07439 -1.76789,1.8018 -2.62635,2.13914c-1.88537,0.74087 -3.73827,1.6069 -5.72084,2.07006c-0.21537,0.05031 -6.13235,0.05031 -6.34772,0c-1.98257,-0.46316 -3.83547,-1.32919 -5.72084,-2.07006c-1.122,-0.4409 -2.64651,-1.81369 -3.98689,-1.13651c-0.74796,0.37788 -1.35661,1.2306 -2.08643,1.58661c-3.24111,1.58104 -7.26226,2.16359 -10.92293,1.95323c-4.91305,-0.28233 -10.10095,-1.45092 -14.92495,-2.65008c-0.81219,-0.2019 -3.44674,-1.11196 -3.87748,-0.91888c-5.27667,2.36531 -7.80047,2.46645 -13.36835,2.96311c-0.48354,0.04313 -0.9567,0.38272 -1.42815,0.27258c-3.02976,-0.7078 -5.91316,-1.91919 -8.06039,-3.97561c-0.52668,-0.5044 -1.41531,-1.23103 -2.06608,-1.02547c-7.55961,2.38782 -9.41941,3.26945 -18.15086,2.44599c-2.32409,-0.21918 -4.55372,-0.80569 -6.72347,-1.58522c-0.65309,-0.23464 -1.27828,-1.10507 -1.90811,-0.81943c-3.53303,1.60232 -6.89258,3.12675 -10.9167,3.05469c-1.94396,-0.03481 -6.06566,-0.70628 -7.4723,-2.18416c-0.82164,-0.86325 -2.45335,-0.20142 -3.66636,-0.39365c-0.63511,-0.10065 -1.98092,-0.7785 -2.61935,-0.62812c-2.60521,0.61364 -5.97964,2.1313 -8.5728,1.5102c-5.71976,-1.36998 -8.18036,-3.54729 -11.75437,-8.13328c-0.42172,-0.54113 -0.90055,1.09457 -1.53305,1.40311c-2.78857,1.36029 -7.75985,2.12111 -10.86143,1.66227c-1.74379,-0.25797 -3.51545,-1.89399 -5.35389,-2.14244c-0.08224,-0.01111 -10.55544,0.80433 -10.82032,0.80433c-10.04421,0 -20.20186,-5.75619 -22.70508,-15.22748c-3.24039,-12.26045 6.33716,-24.07215 18.4775,-27.57832c4.19039,-1.2102 9.05984,-0.97869 13.36218,-0.74391c2.63772,0.14394 6.26772,0.53406 8.31427,2.17678c0.05786,0.04644 0.9179,-1.01856 0.98819,-1.04574c1.43182,-0.55373 3.00371,-0.70437 4.49974,-1.07776c2.42776,-0.60594 4.27939,-0.62582 6.81477,-0.26936c2.19007,0.30791 4.49773,0.48102 6.68156,0.90019c0.345,0.06622 2.15627,0.77168 2.48606,0.58023c1.3277,-0.77074 2.38769,-2.30588 3.79634,-2.99303c3.38837,-1.65288 7.91913,-2.2735 11.75823,-2.32219c3.47538,-0.04407 8.61387,-0.30787 12.63306,0.20377c1.36798,0.17415 2.72299,0.44297 4.06268,0.75679c0.60265,0.14117 1.37117,0.79789 1.81645,0.38973c1.24509,-1.14128 9.07997,-4.1402 10.32522,-4.32442c2.36233,-0.34948 4.41287,0.25148 6.66504,0.27355c6.47465,0.06345 12.95023,0.05095 19.42501,0c3.23305,-0.02544 6.64623,-1.28723 9.97914,-1.35029c7.44573,-0.14087 12.68186,0.72635 19.23022,3.69944c1.08527,0.49273 2.28529,-0.71954 3.43809,-1.04871c2.27505,-0.64963 4.51168,-1.27448 6.92147,-1.30043c6.3538,-0.06844 13.27998,-0.09331 19.6342,-0.09331c1.31878,0 2.72822,0.51363 3.98989,0.51363c3.80745,0 7.42937,-0.80138 11.31052,-0.1863c2.56595,0.40665 4.62559,1.85655 6.99459,2.46657c4.619,1.18939 6.94676,0.22916 11.38553,3.84451z" fill="#caff96" stroke="none" stroke-width="0.5" stroke-linecap="butt"/><text transform="translate(122.80139,28.83236) scale(0.58635,0.58635)" font-size="40" xml:space="preserve" fill="#000000" fill-rule="nonzero" stroke="none" stroke-width="1" stroke-linecap="butt" stroke-linejoin="miter" stroke-miterlimit="10" stroke-dasharray="" stroke-dashoffset="0" font-family="Pixel" font-weight="normal" text-anchor="start" style="mix-blend-mode: normal"><tspan x="0" dy="0">YOUR QUEST IS TO</tspan><tspan x="0" dy="48px">COLLECT DONUTS!</tspan></text><text transform="translate(123.73611,26.94297) scale(0.58635,0.58635)" font-size="40" xml:space="preserve" fill="#00ffdc" fill-rule="nonzero" stroke="none" stroke-width="1" stroke-linecap="butt" stroke-linejoin="miter" stroke-miterlimit="10" stroke-dasharray="" stroke-dashoffset="0" font-family="Pixel" font-weight="normal" text-anchor="start" style="mix-blend-mode: normal"><tspan x="0" dy="0">YOUR QUEST IS TO</tspan><tspan x="0" dy="48px">COLLECT DONUTS!</tspan></text><g stroke="#703d00" stroke-linecap="round"><path d="M412.36639,13.84577c5.94082,4.29504 9.27205,8.97471 12.28938,15.06178c1.43173,2.8954 2.05641,6.68034 1.08509,10.73171c-0.78679,3.23233 -2.86898,7.27087 -5.61231,9.13046c-3.17245,2.1505 -6.57484,1.68532 -9.20522,0.90933c-6.01242,-1.78284 -11.20425,-5.15422 -15.97765,-8.91378c-5.5424,-3.99997 -11.04033,-8.24852 -14.88229,-14.29875c-1.45237,-2.28627 -1.53198,-6.00458 -0.82453,-9.54803c0.50412,-2.34283 2.08061,-5.77455 4.35999,-7.39828c3.43826,-2.20317 7.3375,-3.01108 10.61257,-2.62301c6.78305,0.82014 12.21416,2.65353 18.15499,6.94857z" data-paper-data="{&quot;origPos&quot;:null}" fill="#a85b00" stroke-width="2.61452"/><path d="M412.27636,13.84791c5.94376,4.29716 10.1351,7.73103 13.61243,13.24685c1.61686,2.56689 3.20855,7.14288 1.14077,9.82557c-1.83233,2.71189 -6.35393,1.84325 -8.941,0.96359c-6.12494,-2.08355 -11.53584,-5.4354 -16.67011,-9.27586c-5.20917,-3.76429 -10.17989,-8.34237 -14.07086,-13.81379c-1.29777,-1.8202 -2.83115,-5.20506 -0.9923,-7.2802c2.20257,-2.78485 6.41632,-3.11336 9.07481,-2.44003c6.32346,1.6031 10.9025,4.47671 16.84626,8.77387z" data-paper-data="{&quot;origPos&quot;:null}" fill="#a85b00" stroke-width="2.4183"/><path d="M413.51513,14.93324c8.87055,6.39634 9.66455,9.49326 13.80799,14.65004c1.94784,2.42504 3.56227,6.0277 2.76735,8.92188c-1.10937,4.03321 -5.21821,9.54092 -7.78453,9.841c-1.82102,0.21505 0.57276,-6.76735 -1.16579,-8.40191c-1.00677,-1.16355 -2.51076,3.08639 -4.32486,2.80569c-2.45984,-0.3916 -3.66205,-5.56146 -5.7355,-4.81638c-2.35197,0.84799 -0.95462,6.02497 -3.18638,7.58373c-1.33502,1.09395 -4.67542,-0.03315 -4.6835,-1.7275c-0.01382,-3.23137 4.22263,-5.36421 4.54421,-8.57954c0.17086,-1.69129 -1.96945,-3.32159 -3.57802,-3.25659c-3.02722,0.12761 -5.22873,3.64298 -8.20871,3.6338c-1.59368,-0.00588 -2.87904,-1.737 -3.36855,-3.10515c-0.9551,-3.84937 1.83402,-9.0016 -0.7381,-11.7287c-1.93845,-2.06039 -7.36742,2.93688 -8.42285,1.15065c-1.18662,-2.02651 4.98283,-6.44571 4.48619,-8.94044c-0.30988,-1.5381 -5.71789,2.18258 -6.16432,0.80602c-0.42379,-1.73081 2.10646,-5.50415 4.40608,-7.02087c2.35093,-1.51535 5.68921,-2.08468 8.30642,-1.1149c6.54268,2.42672 6.21079,1.00199 19.04287,9.29917z" data-paper-data="{&quot;origPos&quot;:null}" fill="#703d00" stroke-width="1.99513"/></g><path d="M412.99973,13.80795c5.27586,4.01573 10.55111,8.30404 14.57521,13.58882c2.08282,2.73951 4.20263,6.79456 3.43553,10.42406c-0.86467,3.95062 -5.08261,9.60923 -8.00242,9.7012c-1.98974,0.01697 0.28788,-7.44535 -1.81835,-9.48454c-1.14927,-1.13409 -2.5776,3.17884 -4.40575,2.91759c-2.47874,-0.36546 -3.62232,-5.61642 -5.72635,-4.82904c-2.38674,0.89608 -1.0462,6.15166 -3.32122,7.77024c-1.3631,1.13279 -4.72106,0.02998 -4.70613,-1.69621c0.03013,-3.29215 4.33742,-5.52298 4.70601,-8.80333c0.1956,-1.72551 -1.94355,-3.35741 -3.56887,-3.26924c-3.05881,0.17131 -5.32995,3.78299 -8.33919,3.81426c-1.6093,0.01573 -2.88374,-1.7305 -3.35944,-3.11776c-0.91203,-3.90894 1.97485,-9.1964 -0.58543,-11.93989c-1.92949,-2.07279 -7.48012,3.09277 -8.52158,1.28723c-1.17069,-2.04855 5.11985,-6.63523 4.65235,-9.17026c-0.29198,-1.56285 -5.80403,2.30173 -6.2361,0.90531c-0.40438,-1.75766 2.2023,-5.6367 4.54526,-7.21337c2.39478,-1.57601 5.77373,-2.2016 8.40353,-1.24921c6.57409,2.38327 12.5458,6.35676 18.27296,10.36412z" fill="#ddc6d2" stroke="#ddc6d2" stroke-width="2.02398" stroke-linecap="round"/><path d="M410.15433,18.95687c1.37241,0.99221 2.54655,1.98779 3.33487,2.79439c0.78791,0.8063 1.19043,1.4239 1.01901,1.66102c-0.17142,0.23711 -0.88409,0.04848 -1.89673,-0.44697c-1.01306,-0.49576 -2.32652,-1.29862 -3.69893,-2.29083c-1.37241,-0.99221 -2.54655,-1.98779 -3.33487,-2.79439c-0.78791,-0.8063 -1.19043,-1.4239 -1.01901,-1.66102c0.17142,-0.23711 0.88409,-0.04848 1.89673,0.44697c1.01306,0.49576 2.32652,1.29862 3.69893,2.29083z" fill="#a85b00" stroke="#703d00" stroke-width="1.99513" stroke-linecap="butt"/><g fill="none" stroke="#6148a4" stroke-width="1.99513" stroke-linecap="round"><path d="M395.86425,17.74533l3.32792,-1.86792" data-paper-data="{&quot;origPos&quot;:null}"/><path d="M414.0202,16.80808l-2.59736,-1.87781" data-paper-data="{&quot;origPos&quot;:null}"/><path d="M404.11995,27.76674l3.21825,1.01901" data-paper-data="{&quot;origPos&quot;:null}"/><path d="M414.64976,29.1281l1.767,2.58518" data-paper-data="{&quot;origPos&quot;:null}"/><path d="M388.21779,16.93975l2.77837,0.70099" data-paper-data="{&quot;origPos&quot;:null}"/><path d="M386.46426,7.9832l1.25692,-1.73855" data-paper-data="{&quot;origPos&quot;:null}"/><path d="M402.27408,7.99703l2.09945,1.1989" data-paper-data="{&quot;origPos&quot;:null}"/><path d="M428.75419,40.63287l-1.72637,2.38789" data-paper-data="{&quot;origPos&quot;:null}"/><path d="M419.17544,27.45634l-1.94802,-1.40836" data-paper-data="{&quot;origPos&quot;:null}"/><path d="M421.67527,21.70456l-1.29867,-0.9389z" data-paper-data="{&quot;origPos&quot;:null}"/></g><g fill="none" stroke="#9b4976" stroke-width="1.99513" stroke-linecap="round"><path d="M400.78562,11.86462l-2.46036,-1.14087" data-paper-data="{&quot;origPos&quot;:null}"/><path d="M401.48196,20.91587l2.59736,1.87781" data-paper-data="{&quot;origPos&quot;:null}"/><path d="M420.28547,30.90612l1.40836,-1.94802" data-paper-data="{&quot;origPos&quot;:null}"/><path d="M416.06913,18.95919l1.23952,2.87361" data-paper-data="{&quot;origPos&quot;:null}"/><path d="M426.77773,37.89626l-1.72637,2.38789" data-paper-data="{&quot;origPos&quot;:null}"/><path d="M426.48588,30.09429l1.73856,1.25692" data-paper-data="{&quot;origPos&quot;:null}"/><path d="M393.5199,8.23836l-3.35637,0.53966" data-paper-data="{&quot;origPos&quot;:null}"/></g><g fill="none" stroke="#ffffff" stroke-width="1.99513" stroke-linecap="round"><path d="M390.49825,14.46053l2.02048,0.82285" data-paper-data="{&quot;origPos&quot;:null}"/><path d="M406.3841,13.44276l0.64821,2.76507" data-paper-data="{&quot;origPos&quot;:null}"/><path d="M399.64421,28.9827l-2.82309,0.28731" data-paper-data="{&quot;origPos&quot;:null}"/><path d="M409.50728,34.48676l-0.79965,-2.5556" data-paper-data="{&quot;origPos&quot;:null}"/><path d="M414.19079,36.21426l-1.14836,1.14724z" data-paper-data="{&quot;origPos&quot;:null}"/><path d="M424.01094,27.17518l-1.94802,-1.40836" data-paper-data="{&quot;origPos&quot;:null}"/><path d="M422.79352,36.1824l2.03562,0.8019" data-paper-data="{&quot;origPos&quot;:null}"/><path d="M389.78096,5.39415l3.02392,0.84662" data-paper-data="{&quot;origPos&quot;:null}"/><path d="M397.17857,7.77619l-0.441,1.9776z" data-paper-data="{&quot;origPos&quot;:null}"/><path d="M411.81392,26.267l-0.54192,1.23485z" data-paper-data="{&quot;origPos&quot;:null}"/></g></g></g></svg>