<svg version="1.1" xmlns="http://www.w3.org/2000/svg" xmlns:xlink="http://www.w3.org/1999/xlink" width="281.98811" height="59.65532" viewBox="0,0,281.98811,59.65532"><g transform="translate(-175.18324,-105.36435)"><g data-paper-data="{&quot;isPaintingLayer&quot;:true}" fill-rule="nonzero" stroke="none" stroke-linecap="butt" stroke-linejoin="miter" stroke-miterlimit="10" stroke-dasharray="" stroke-dashoffset="0" style="mix-blend-mode: normal"><path d="M248.52014,165.01967v-59.65532h51.80594v59.65532z" fill="#f2ceac" stroke-width="0"/><path d="M296.74803,159.13596c-0.7,0.8 -1.3,1.8 -1.8,2.7c-0.3,0.5 -0.7,0.6 -1.2,0.6c-2.6,-0.1 -5.1,-0.2 -7.7,-0.3c-1.8,-0.1 -3.6,-0.1 -5.4,-0.1c-0.8,0 -1.1,-0.3 -0.8,-1c0.6,-1.4 1.3,-2.7 2.1,-4c0.2,-0.4 0.9,-0.5 1.4,-0.7c-0.3,-1 -0.6,-2 -0.9,-3c-0.5,-1.7 -1,-3.4 -1.5,-5.1c-0.2,-0.6 -0.3,-1.2 -0.6,-1.8c-0.1,-0.2 -0.6,-0.4 -0.8,-0.4c-4.6,0.4 -9.1,0.3 -13.6,0c-0.6,0 -0.9,0.2 -1.1,0.8c-0.3,1 -0.9,2 -1.3,3.1c-0.7,1.5 -1.2,3.1 -1.8,4.6c-0.2,0.5 -0.1,1 0.5,1.2c0.5,0.2 1,0.3 1.5,0.4c0.9,0.1 1.8,0.3 2.7,0.4c0.5,0 0.8,0.4 0.7,0.9c-0.1,0.7 -0.3,1.3 -0.7,1.9c-0.5,0.8 -1.2,1.5 -1.8,2.2c-0.2,0.2 -0.6,0.3 -0.9,0.3c-2.7,-0.1 -5.3,-0.2 -8,-0.3c-1.5,-0.1 -3.1,-0.1 -4.7,-0.1c-1,0 -1.4,-0.6 -1,-1.6c0.5,-1 1,-2.1 1.5,-3.1c0.1,-0.2 0.4,-0.3 0.7,-0.4c0.5,-0.1 1,-0.2 1.5,-0.2c1.2,-0.1 1.8,-0.9 2.3,-1.9c1.9,-4 3.8,-8.1 4.8,-12.5c0.7,-3.3 2,-6.4 3.3,-9.5c0.3,-0.6 0.4,-1.3 0.7,-2c0.5,-1.4 1.1,-2.8 1.7,-4.2c0.2,-0.5 0.3,-0.9 0.5,-1.4c0.8,-2.4 1.6,-4.7 2.4,-7.1c0.1,-0.4 0.1,-0.7 0.3,-1c0.5,-0.9 0.8,-1.8 1.4,-2.5c0.9,-1.1 2.2,-2.1 3.1,-3.5c0.6,-1.1 1.2,-0.8 2,-0.4c0.7,0.3 1.5,0.6 2.1,1c0.4,0.3 0.7,0.8 0.9,1.2c1.3,2.9 1.9,6 2.7,9.1c0.2,0.7 0.6,1.4 0.8,2.1c0.5,1.6 0.9,3.3 1.5,5c0.5,1.6 1.1,3.1 1.7,4.7c0.4,1.3 0.8,2.6 1.3,3.9c1.1,2.9 2.2,5.8 3,8.8c0.2,1 0.8,1.9 1.1,2.9c0.4,1.3 0.7,2.5 1.2,3.7c0.4,1.1 1.1,2.1 1.9,3c0.4,0.4 1.3,0.5 2,0.5c0.7,0 0.9,0.3 1,0.9c0.1,0.9 0,1.5 -0.7,2.2zM274.04803,123.93596c0.2,1.3 0.7,2.7 1,4c0.2,1 0.3,2 0.6,2.9c0.6,2.1 1.2,4.1 1.9,6.1c0.1,0.2 0.3,0.4 0.4,0.4c0.7,0 1.3,0 2.1,0c-0.1,-0.4 -0.2,-0.6 -0.3,-0.8c-0.6,-1.8 -1.3,-3.4 -1.9,-5.2c-0.8,-2.3 -1.4,-4.8 -2.2,-7.2c-0.3,-0.9 -0.8,-1.8 -1.2,-2.7c0,0 -0.1,0 -0.2,0c-0.1,0.9 -0.4,1.7 -0.2,2.5zM276.44803,136.23596c-0.7,-2.3 -1.4,-4.6 -2,-7c-0.4,-1.5 -0.7,-3.1 -1,-4.6c-0.1,-0.1 -0.2,-0.1 -0.3,-0.1c-1.5,4.2 -3,8.4 -4.6,12.7c0.4,0.1 0.5,0.1 0.7,0.1c2.2,0 4.3,0 6.5,0c1.2,0 1.2,0 0.7,-1.1zM251.94803,158.33596c0,-0.1 -0.1,-0.1 -0.2,-0.1c-0.1,0.9 -0.9,1.6 -0.8,2.6c0,0.1 0.1,0.1 0.2,0.1c0.2,-0.9 0.5,-1.8 0.8,-2.6zM253.24803,158.53596c-0.2,0 -0.5,0.1 -0.6,0.2c-0.4,0.7 -0.8,1.4 -1.2,2.2c1.6,0 3.1,0 4.5,0c2.5,0.1 5.1,0.2 7.6,0.3c0.1,0 0.4,0 0.5,-0.1c0.7,-0.7 1.3,-1.4 1.9,-2.1c-0.1,0 -0.1,-0.1 -0.1,-0.2c-0.8,0 -1.7,0 -2.6,0c-3.3,0 -6.7,-0.1 -10,-0.3zM266.14803,132.93596c0.7,-1.8 1.2,-3.7 1.9,-5.6c0.4,-1.2 1,-2.5 1.5,-3.7c0.7,-1.9 1.5,-3.8 2.2,-5.7c0.6,-1.7 1.3,-3.5 1.9,-5.2c-0.1,0 -0.1,-0.1 -0.2,-0.1c-0.4,0.4 -0.9,0.7 -1.2,1.2c-0.6,0.8 -1.3,1.6 -1.6,2.5c-1,2.7 -1.8,5.5 -2.7,8.2c-0.3,1 -0.5,1.9 -0.9,2.9c-0.5,1.3 -1.1,2.6 -1.6,3.8c-0.2,0.5 -0.3,0.9 -0.5,1.3c-0.9,2.5 -2,4.9 -2.7,7.4c-1.2,4.3 -2.6,8.5 -4.4,12.5c-0.5,1.1 -1,2.1 -1.5,3.2c0.1,0 0.1,0.1 0.2,0.1c0.6,-0.8 1.2,-1.6 1.6,-2.4c0.8,-1.9 1.5,-3.8 2.3,-5.7c1,-2.6 2,-5.1 3,-7.6c0.3,-0.7 0.4,-1.4 0.7,-2.1c0.6,-1.6 1.3,-3.3 2,-5zM281.44803,141.73596c-0.5,-0.1 -1,-0.2 -1.5,-0.2c-4.2,-0.1 -8.5,-0.2 -12.8,-0.3c-0.2,0 -0.5,0.2 -0.6,0.4c-0.4,1.1 -0.7,2.2 -1,3.4c0.7,0.1 1.5,0.2 2.2,0.2c4,0 8,0 12,0c0.2,0 0.5,-0.1 0.6,-0.3c0.4,-1 0.8,-2 1.1,-3.2zM283.94803,155.63596c0.1,0.4 0.4,0.5 0.8,0.3c1.1,-0.4 1.6,-1.2 1.3,-2.4c-0.3,-1.4 -0.8,-2.8 -1.3,-4.2c-0.3,-1 -0.6,-2 -1,-3c-0.5,-1.4 -1,-2.8 -1.5,-4.2c0,0 -0.1,0 -0.2,0c-0.4,1.2 -0.8,2.4 -1.2,3.6c-0.1,0.1 0.1,0.3 0.1,0.4c0.4,0.9 0.9,1.8 1.2,2.8c0.7,2.2 1.3,4.4 1.8,6.7zM280.84803,161.33596c0.5,-0.9 1,-1.9 1.5,-2.9c0,-0.1 -0.1,-0.4 -0.3,-0.8c-0.5,1.3 -1,2.5 -1.5,3.6c0.1,0.1 0.2,0.1 0.3,0.1zM296.14803,158.43596c-0.6,0.1 -1,0.1 -1.5,0.1c-0.7,0 -1.5,0.1 -2.3,0.1c-2.7,0 -5.5,-0.1 -8.3,-0.2c-0.2,0 -0.6,0 -0.7,0.2c-0.7,0.8 -1.2,1.8 -1.9,2.8c0.5,0 0.8,0 1.2,0c1,0 2.1,0 3.2,0c2.6,0.1 5.2,0.2 7.8,0.3c0.2,0 0.5,-0.1 0.6,-0.3c0.7,-0.9 1.3,-1.9 1.9,-3z" fill="#ff0000" stroke-width="1"/><path d="M251.94803,158.33596c-0.3,0.9 -0.5,1.7 -0.8,2.6c-0.1,0 -0.2,0 -0.2,-0.1c-0.1,-1 0.7,-1.7 0.8,-2.6c0,0 0.1,0.1 0.2,0.1z" fill="#ffffff" stroke-width="1"/><path d="M282.34803,158.53596c-0.5,1 -1,2 -1.5,2.9c-0.1,0 -0.2,-0.1 -0.3,-0.1c0.5,-1.1 1,-2.3 1.5,-3.6c0.2,0.3 0.4,0.6 0.3,0.8z" fill="#ffffff" stroke-width="1"/><path d="M296.24803,158.43596c-0.7,1.1 -1.3,2.1 -2,3c-0.1,0.2 -0.4,0.3 -0.6,0.3c-2.6,-0.1 -5.2,-0.2 -7.8,-0.3c-1.1,0 -2.2,0 -3.2,0c-0.4,0 -0.7,0 -1.2,0c0.7,-1 1.2,-2 1.9,-2.8c0.1,-0.2 0.5,-0.2 0.7,-0.2c2.8,0.1 5.6,0.2 8.3,0.2c0.8,0 1.6,-0.1 2.3,-0.1c0.5,-0.1 1,-0.1 1.6,-0.1z" fill="#ffffff" stroke-width="1"/><path d="M284.84803,155.93596c-0.4,0.2 -0.7,0.1 -0.8,-0.3c-0.6,-2.2 -1.2,-4.4 -1.9,-6.7c-0.3,-1 -0.8,-1.9 -1.2,-2.8c0,-0.1 -0.2,-0.3 -0.1,-0.4c0.4,-1.2 0.8,-2.4 1.2,-3.6c0.1,0 0.2,0 0.2,0c0.5,1.4 1,2.8 1.5,4.2c0.4,1 0.7,2 1,3c0.5,1.4 1,2.8 1.3,4.2c0.4,1.2 -0.1,1.9 -1.2,2.4z" fill="#ffffff" stroke-width="1"/><path d="M265.94803,159.13596c-0.6,0.7 -1.2,1.4 -1.9,2.1c-0.1,0.1 -0.4,0.1 -0.5,0.1c-2.5,-0.2 -5.1,-0.3 -7.6,-0.4c-1.4,0 -2.9,0 -4.5,0c0.4,-0.8 0.8,-1.5 1.2,-2.2c0.1,-0.1 0.4,-0.2 0.6,-0.2c3.3,0.1 6.7,0.2 10,0.3c0.9,0 1.8,0 2.6,0c0.1,0.1 0.1,0.2 0.1,0.3z" fill="#ffffff" stroke-width="1"/><path d="M281.54803,141.83596c-0.4,1.1 -0.8,2.1 -1.2,3.1c-0.1,0.2 -0.4,0.3 -0.6,0.3c-4,0 -8,0 -12,0c-0.7,0 -1.5,-0.1 -2.2,-0.2c0.3,-1.2 0.6,-2.3 1,-3.4c0.1,-0.2 0.4,-0.4 0.6,-0.4c4.3,0.1 8.6,0.2 12.8,0.3c0.6,0.1 1.1,0.2 1.6,0.3z" fill="#ffffff" stroke-width="1"/><path d="M280.04803,137.33596c-0.8,0 -1.4,0 -2.1,0c-0.1,0 -0.3,-0.2 -0.4,-0.4c-0.7,-2 -1.3,-4 -1.9,-6.1c-0.3,-0.9 -0.4,-1.9 -0.6,-2.9c-0.3,-1.3 -0.8,-2.7 -1,-4c-0.1,-0.8 0.2,-1.7 0.3,-2.5c0.1,0 0.2,0 0.2,0c0.4,0.9 0.9,1.8 1.2,2.7c0.8,2.4 1.4,4.9 2.2,7.2c0.6,1.8 1.3,3.4 1.9,5.2c0,0.3 0.1,0.5 0.2,0.8z" fill="#ffffff" stroke-width="1"/><path d="M273.64803,112.83596c-0.6,1.7 -1.3,3.5 -1.9,5.2c-0.7,1.9 -1.5,3.8 -2.2,5.7c-0.5,1.2 -1.1,2.5 -1.5,3.7c-0.7,1.9 -1.2,3.8 -1.9,5.6c-0.6,1.6 -1.3,3.3 -1.9,4.9c-0.3,0.7 -0.4,1.4 -0.7,2.1c-1,2.5 -2,5 -3,7.6c-0.8,1.9 -1.5,3.8 -2.3,5.7c-0.4,0.8 -1,1.6 -1.6,2.4c-0.1,0 -0.1,-0.1 -0.2,-0.1c0.5,-1.1 1,-2.1 1.5,-3.2c1.8,-4 3.2,-8.2 4.4,-12.5c0.7,-2.5 1.8,-4.9 2.7,-7.4c0.2,-0.4 0.3,-0.8 0.5,-1.3c0.5,-1.2 1.1,-2.5 1.6,-3.8c0.4,-1 0.6,-1.9 0.9,-2.9c0.9,-2.7 1.7,-5.5 2.7,-8.2c0.3,-0.9 1,-1.7 1.6,-2.5c0.3,-0.5 0.8,-0.8 1.2,-1.2c-0.1,0.1 0,0.2 0.1,0.2z" fill="#ffffff" stroke-width="1"/><text transform="translate(303.92135,139.61325) scale(0.5,0.5)" font-size="40" xml:space="preserve" fill="#ffffff" fill-rule="nonzero" stroke="none" stroke-width="1" stroke-linecap="butt" stroke-linejoin="miter" stroke-miterlimit="10" stroke-dasharray="" stroke-dashoffset="0" font-family="Pixel" font-weight="normal" text-anchor="start" style="mix-blend-mode: normal"><tspan x="0" dy="0">TO MOVE LEFT</tspan></text><text transform="translate(175.43324,141.37325) scale(0.5,0.5)" font-size="40" xml:space="preserve" fill="#ffffff" fill-rule="nonzero" stroke="none" stroke-width="1" stroke-linecap="butt" stroke-linejoin="miter" stroke-miterlimit="10" stroke-dasharray="" stroke-dashoffset="0" font-family="Pixel" font-weight="normal" text-anchor="start" style="mix-blend-mode: normal"><tspan x="0" dy="0">PRESS</tspan></text></g></g></svg>