<svg version="1.1" xmlns="http://www.w3.org/2000/svg" xmlns:xlink="http://www.w3.org/1999/xlink" width="97.82248" height="99.4677" viewBox="0,0,97.82248,99.4677"><g transform="translate(-176.59176,-146.02187)"><g data-paper-data="{&quot;isPaintingLayer&quot;:true}" fill-rule="nonzero" stroke-linejoin="miter" stroke-miterlimit="10" stroke-dasharray="" stroke-dashoffset="0" style="mix-blend-mode: normal"><g stroke="#703d00" stroke-linecap="round"><path d="M243.14327,173.40318c10.24523,9.8049 15.38802,19.65509 19.55623,32.11892c1.97596,5.92765 2.16964,13.34592 -0.76551,20.85164c-2.36447,5.98521 -7.42486,13.17187 -13.17455,16.008c-6.64908,3.27983 -13.04541,1.48653 -17.88001,-0.69767c-11.04835,-5.01003 -20.10322,-12.84647 -28.25338,-21.31586c-9.55999,-9.13389 -18.96886,-18.73231 -24.72702,-31.34413c-2.17699,-4.76592 -1.34388,-11.91201 0.95101,-18.51442c1.58703,-4.35568 5.51757,-10.51362 10.31571,-13.02077c7.17237,-3.31028 14.85822,-3.82479 21.03102,-2.21302c12.78024,3.36958 22.70128,8.3224 32.94651,18.12729z" data-paper-data="{&quot;origPos&quot;:null}" fill="#a85b00" stroke-width="2.61452"/><path d="M242.97019,173.38343c10.25029,9.80974 17.37145,17.50073 22.57256,28.99186c2.41778,5.34725 4.25477,14.53765 -0.41863,19.13008c-4.22996,4.71078 -12.66396,1.84771 -17.3881,-0.52366c-11.18423,-5.61608 -20.66406,-13.47318 -29.48428,-22.19322c-8.98394,-8.59394 -17.29523,-18.68405 -23.3007,-30.19975c-2.00427,-3.83186 -4.04527,-10.72437 0.02841,-14.21329c4.95874,-4.75246 13.12018,-4.26495 18.03586,-2.27003c11.69202,4.74806 19.7046,11.46826 29.95489,21.278z" data-paper-data="{&quot;origPos&quot;:null}" fill="#a85b00" stroke-width="2.4183"/><path d="M245.05622,175.79149c15.30212,14.608 16.00266,20.75277 22.57534,31.73248c3.08961,5.16317 5.22817,12.49452 2.93776,17.8296c-3.19488,7.43434 -12.5282,16.89898 -17.5253,16.79372c-3.54643,-0.07064 2.89139,-12.81571 -0.00672,-16.40869c-1.62074,-2.49646 -5.62924,5.24856 -9.03098,4.22981c-4.60971,-1.40244 -5.54296,-11.62756 -9.71359,-10.74947c-4.73162,1.00145 -3.42632,11.29196 -8.11601,13.68724c-2.84813,1.74233 -8.95021,-1.30287 -8.51656,-4.55172c0.83008,-6.19559 9.5133,-9.15952 10.98184,-15.23546c0.77572,-3.19554 -2.89336,-6.88687 -5.99291,-7.18871c-5.83456,-0.55792 -10.98492,5.59463 -16.6927,4.78708c-3.05223,-0.43372 -5.05636,-4.0916 -5.63168,-6.843c-0.80976,-7.6293 5.90047,-16.76262 1.69469,-22.67009c-3.16828,-4.46195 -14.89589,3.67468 -16.44481,-0.02785c-1.73661,-4.19775 11.25667,-11.03036 10.96632,-15.94239c-0.18606,-3.02943 -11.53513,2.66656 -12.02568,-0.08954c-0.35326,-3.4289 5.49544,-9.98862 10.30399,-12.28537c4.90652,-2.28051 11.45421,-2.48655 16.21223,0.06549c11.89374,6.38437 11.63547,3.56636 34.02478,22.86686z" data-paper-data="{&quot;origPos&quot;:null}" fill="#703d00" stroke-width="1.99513"/></g><path d="M244.36691,173.4986c9.04506,9.09342 18.01671,18.70902 24.3268,29.90236c3.26489,5.80153 6.25195,14.13371 3.81993,20.88518c-2.7041,7.34095 -12.28646,17.06583 -17.90575,16.46809c-3.81722,-0.49493 2.52525,-14.19039 -0.97016,-18.65619c-1.90161,-2.47777 -5.78183,5.40801 -9.21566,4.42278c-4.65286,-1.35735 -5.45225,-11.72235 -9.69271,-10.77129c-4.81099,1.08439 -3.6354,11.51043 -8.42382,14.00888c-2.91223,1.80931 -9.0544,-1.19399 -8.56821,-4.49775c0.9304,-6.30042 9.77534,-9.43333 11.35119,-15.6214c0.83221,-3.25457 -2.83424,-6.94864 -5.97203,-7.21052c-5.90667,-0.48257 -11.21599,5.83607 -16.99056,5.09832c-3.08791,-0.39644 -5.06708,-4.0804 -5.61087,-6.86475c-0.71144,-7.73203 6.22197,-17.09857 2.04323,-23.03428c-3.14782,-4.48333 -15.15317,3.94351 -16.67021,0.20767c-1.70024,-4.23575 11.56946,-11.3572 11.34563,-16.33874c-0.1452,-3.07212 -11.73176,2.87203 -12.18954,0.08169c-0.30894,-3.47521 5.7142,-10.21721 10.62169,-12.61734c5.00663,-2.38512 11.64718,-2.68819 16.4339,-0.16613c11.96544,6.30945 22.35512,15.50639 32.26716,24.70341z" data-paper-data="{&quot;origPos&quot;:null}" fill="#ddc6d2" stroke="#ddc6d2" stroke-width="2.02398" stroke-linecap="round"/><path d="M237.5497,182.61065c2.36678,2.26506 4.35275,4.48403 5.64953,6.23859c1.29606,1.75388 1.90365,3.04404 1.51231,3.45296c-0.39134,0.40891 -1.70694,-0.14145 -3.51602,-1.35926c-1.80981,-1.2185 -4.11382,-3.10513 -6.4806,-5.3702c-2.36678,-2.26506 -4.35275,-4.48403 -5.64953,-6.23859c-1.29606,-1.75388 -1.90365,-3.04404 -1.51231,-3.45296c0.39134,-0.40891 1.70694,0.14145 3.51602,1.35926c1.80981,1.2185 4.11382,3.10513 6.4806,5.3702z" fill="#a85b00" stroke="#703d00" stroke-width="1.99513" stroke-linecap="butt"/><g data-paper-data="{&quot;origPos&quot;:null}" fill="none" stroke="#6148a4" stroke-width="1.99513" stroke-linecap="round"><path d="M210.48833,176.50112l6.87208,-2.69712" data-paper-data="{&quot;origPos&quot;:null}"/><path d="M241.0478,175.23119l4.47926,4.28675" data-paper-data="{&quot;origPos&quot;:null}"/><path d="M223.65136,197.89248l5.89666,2.8057" data-paper-data="{&quot;origPos&quot;:null}"/><path d="M246.16826,208.71441l-2.70064,-5.42209" data-paper-data="{&quot;origPos&quot;:null}"/><path d="M201.18787,175.01029l-5.13807,-2.07972" data-paper-data="{&quot;origPos&quot;:null}"/><path d="M195.06388,155.30327l2.86936,-2.99822" data-paper-data="{&quot;origPos&quot;:null}"/><path d="M229.06,162.37447l-3.70515,-2.85383" data-paper-data="{&quot;origPos&quot;:null}"/><path d="M263.50371,233.19449l3.94104,-4.11803" data-paper-data="{&quot;origPos&quot;:null}"/><path d="M252.58285,201.28858l-3.35945,-3.21506" data-paper-data="{&quot;origPos&quot;:null}"/><path d="M256.65804,188.78636l2.23963,2.14337z" data-paper-data="{&quot;origPos&quot;:null}"/></g><g data-paper-data="{&quot;origPos&quot;:null}" fill="none" stroke="#9b4976" stroke-width="1.99513" stroke-linecap="round"><path d="M217.06537,163.6988l4.41209,2.8383" data-paper-data="{&quot;origPos&quot;:null}"/><path d="M220.4125,184.06561l4.47926,4.28675" data-paper-data="{&quot;origPos&quot;:null}"/><path d="M253.79541,208.19326l3.21506,-3.35945" data-paper-data="{&quot;origPos&quot;:null}"/><path d="M250.49641,190.01796l-1.61343,-5.83497" data-paper-data="{&quot;origPos&quot;:null}"/><path d="M260.44184,227.4267l3.94104,-4.11803" data-paper-data="{&quot;origPos&quot;:null}"/><path d="M265.89178,208.28125l2.99822,2.86936" data-paper-data="{&quot;origPos&quot;:null}"/><path d="M201.9417,157.8069l6.57451,-0.14439" data-paper-data="{&quot;origPos&quot;:null}"/></g><g data-paper-data="{&quot;origPos&quot;:null}" fill="none" stroke="#ffffff" stroke-width="1.99513" stroke-linecap="round"><path d="M201.77298,166.22721l3.6535,2.11232" data-paper-data="{&quot;origPos&quot;:null}"/><path d="M232.4831,168.48796l0.50914,5.47022" data-paper-data="{&quot;origPos&quot;:null}"/><path d="M209.96313,196.28105l5.48574,0.1978" data-paper-data="{&quot;origPos&quot;:null}"/><path d="M232.03454,204.5312l0.85484,5.10899" data-paper-data="{&quot;origPos&quot;:null}"/><path d="M241.40595,214.19191l-2.5046,1.89393z" data-paper-data="{&quot;origPos&quot;:null}"/><path d="M262.61932,199.4744l-3.35945,-3.21506" data-paper-data="{&quot;origPos&quot;:null}"/><path d="M261.58695,218.48746l-3.68807,-2.0762" data-paper-data="{&quot;origPos&quot;:null}"/><path d="M202.80183,148.66413l5.56999,2.42387" data-paper-data="{&quot;origPos&quot;:null}"/><path d="M216.34565,155.18953l-1.36926,3.67255z" data-paper-data="{&quot;origPos&quot;:null}"/><path d="M239.48822,194.50099l-1.36574,2.22255z" data-paper-data="{&quot;origPos&quot;:null}"/></g></g></g></svg>