<svg version="1.1" xmlns="http://www.w3.org/2000/svg" xmlns:xlink="http://www.w3.org/1999/xlink" width="340.60422" height="245.8607" viewBox="0,0,340.60422,245.8607"><g transform="translate(-134.54457,-22.99399)"><g data-paper-data="{&quot;isPaintingLayer&quot;:true}" fill-rule="nonzero" stroke="none" stroke-width="1" stroke-linecap="butt" stroke-linejoin="miter" stroke-miterlimit="10" stroke-dasharray="" stroke-dashoffset="0" style="mix-blend-mode: normal"><g><path d="M270.703,153.65l-0.974,15l-7.896,19.425l-6.407,4.5l-11.532,2.025l-4.504,0.6l-5.98,-0.9l-11.981,-2.7l-9.586,-11.85l-7.039,-21.9l-1.647,-12.545l1.348,-18.205l1.947,-8.4l2.845,-7.2l2.996,-5.4l3.454,-4.2l4.783,-5.7l4.942,-3.75l8.088,-1.95l10.634,2.55l5.541,4.05l7.885,8.25l4.213,9.45l3.328,8.85l5.542,27.45v2.55" fill="#c1b4d8"/><path d="M258.272,191.8l-7.788,2.2l-9.385,0.8c0,0 -12.481,-1 -12.78,-1.1c-0.3,-0.1 -7.589,-2.2 -7.589,-2.2l0.399,-12.6l8.387,2.2l14.378,0.9l7.09,-0.8l6.636,-2.3z" fill="#897ab8"/><path d="M220.68,96.5l1.273,-1.837l3.07,-2.138l6.29,-1.725l11.308,1.725l3.594,2.925l-9.285,3.075h-10.709l-5.541,-2.025" fill="#ef463c"/><path d="M258.946,108.65l2.696,5.85l3.295,8.85l1.947,6.825h-5.392l-5.766,-2.775l-2.921,-3.825l-1.198,-5.325l1.348,-5.025l2.022,-2.7l3.969,-1.875" fill="#ef463c"/><path d="M257.62,155.45l2.824,-2.325h6.44l6.14,1.875l5.242,5.475l2.546,9.6l-1.872,13.35l-3.744,12.825l-7.339,15.675v-7.05l-1.498,-5.55l-2.695,-5.175l-5.242,-2.625l-0.802,-36.075" fill="#ef463c"/><path d="M220.53,191.375l-3.634,3.15l-2.298,4.356v3.594v7.725l0.316,6.675l-6.515,-11.475l-5.242,-12.6l-4.568,-15l-1.348,-10.575l0.898,-5.175l2.771,-7.705l3.37,-2.645l7.713,-1.725l8.836,3l0.3,11.625l-0.599,26.775" fill="#ef463c"/><path d="M260.743,112.925l4.771,12.45h-3.348l-3.421,-1.425l-2.495,-3.75v-3.45l1.37,-2.55l3.123,-1.275" fill="#ffffff"/><path d="M186.233,264.875l-1.049,2.1l-1.722,1.125l-1.797,-0.525l-2.097,-2.025l-0.974,0.45h-1.872c0,0 -0.599,-2.024 -0.674,-2.093c-0.074,-0.069 1.273,-2.482 1.273,-2.482l1.648,-1.35l3.22,0.373l0.374,0.752l2.172,0.375l1.498,1.2z" fill="#ffffff"/><path d="M303.802,249.275v1.575l-0.899,1.275h-1.497l-0.974,-1.125v-1.65l0.974,-0.9c1.586,-0.37 2.396,0.825 2.396,0.825z" fill="#ffffff"/><g fill="#32419a"><path d="M238.421,147.323c0.439,-0.098 0.786,0.284 0.928,0.607c0.231,0.527 0.335,1.148 0.32,1.725c-0.004,0.213 -0.489,0.42 -0.764,0.617c-0.439,0.316 -0.71,-0.014 -0.95,-0.295c-0.466,-0.541 -0.563,-1.215 -0.562,-1.896c0,-0.418 0.452,-0.742 1.028,-0.758z"/><path d="M259.87,146.257c-0.097,0.782 -0.456,1.169 -1.188,1.225c-0.427,0.032 -0.972,-0.413 -1.042,-0.946c-0.05,-0.396 0.007,-0.811 0.045,-1.214c0.038,-0.402 0.269,-0.66 0.682,-0.689c0.427,-0.029 0.846,0.009 1.047,0.48c0.161,0.376 0.305,0.762 0.456,1.144z"/><path d="M216.644,145.446c0.102,0.55 0.278,1.029 0.249,1.497c-0.02,0.33 -0.319,0.642 -0.482,0.942c-0.502,-0.077 -0.906,-0.14 -1.368,-0.21c-0.291,-0.633 -0.702,-1.333 -0.229,-2.024c0.447,-0.653 1.174,-0.175 1.83,-0.205z"/></g><path d="M213.816,218.526c-0.857,-1.798 -1.562,-3.608 -2.544,-5.251c-1.036,-1.736 -1.835,-3.579 -2.749,-5.368c-0.393,-0.768 -0.651,-1.604 -1.009,-2.391c-0.199,-0.436 -0.504,-0.822 -0.714,-1.254c-0.572,-1.182 -1.157,-2.362 -1.669,-3.571c-0.726,-1.715 -1.417,-3.446 -2.08,-5.187c-0.904,-2.375 -1.765,-4.765 -2.652,-7.146c-0.269,-0.723 -0.629,-1.418 -0.84,-2.156c-0.478,-1.668 -0.885,-3.356 -1.332,-5.034c-0.097,-0.363 -0.295,-0.703 -0.357,-1.069c-0.209,-1.238 -0.366,-2.484 -0.566,-3.723c-0.132,-0.821 -0.318,-1.633 -0.448,-2.455c-0.058,-0.37 -0.023,-0.752 -0.054,-1.127c-0.081,-0.963 -0.118,-1.935 -0.281,-2.885c-0.137,-0.8 -0.266,-1.581 -0.166,-2.397c0.078,-0.639 0.102,-1.285 0.121,-1.93c0.048,-1.545 0.145,-3.081 0.639,-4.565c0.11,-0.331 0.105,-0.701 0.204,-1.038c0.124,-0.423 0.294,-0.833 0.457,-1.243c0.131,-0.329 0.297,-0.642 0.419,-0.974c0.356,-0.962 0.651,-1.95 1.064,-2.887c0.228,-0.515 0.593,-0.997 0.99,-1.403c0.672,-0.685 1.418,-1.297 2.13,-1.943c0.069,-0.062 0.117,-0.149 0.212,-0.27c-0.659,-1.332 -0.174,-2.772 -0.295,-4.177c-0.137,-1.598 -0.071,-3.22 -0.001,-4.827c0.059,-1.314 -0.114,-2.65 0.333,-3.941c0.081,-0.235 0.024,-0.65 -0.139,-0.811c-0.432,-0.428 -0.315,-0.936 -0.067,-1.237c0.525,-0.638 0.516,-1.374 0.574,-2.088c0.209,-2.573 0.291,-5.157 0.569,-7.722c0.19,-1.758 0.55,-3.509 0.975,-5.228c0.338,-1.363 0.848,-2.692 1.36,-4.005c0.795,-2.035 1.61,-4.056 2.566,-6.033c0.909,-1.881 2.076,-3.599 3.017,-5.453c0.496,-0.977 1.192,-1.874 1.98,-2.701c0.856,-0.898 1.484,-2.012 2.222,-3.023c0.775,-1.064 1.551,-2.128 2.355,-3.17c0.348,-0.45 0.764,-0.846 1.152,-1.263c0.064,-0.069 0.136,-0.147 0.219,-0.179c1.268,-0.483 2.176,-1.422 3.083,-2.38c0.772,-0.815 1.724,-1.388 2.764,-1.814c1.123,-0.46 2.242,-0.927 3.363,-1.392c0.03,-0.012 0.057,-0.036 0.088,-0.04c1.259,-0.153 2.496,-0.527 3.782,-0.402c1.249,0.122 2.504,0.218 3.743,0.419c1.354,0.22 2.7,0.515 4.036,0.835c1.844,0.441 3.546,1.261 5.253,2.062c0.256,0.12 0.486,0.299 0.715,0.469c0.1,0.074 0.143,0.252 0.245,0.289c1.295,0.459 1.993,1.665 3.047,2.424c0.078,0.057 0.146,0.129 0.225,0.184c2.924,2.093 3.231,2.81 5.393,4.982c1.412,1.419 2.466,3.039 3.48,4.704c0.413,0.677 0.86,1.432 1.032,2.185c0.249,1.088 0.989,1.87 1.377,2.854c0.317,0.806 0.76,1.561 1.112,2.354c0.338,0.765 0.635,1.548 0.943,2.325c0.34,0.861 0.66,1.731 1.012,2.586c0.195,0.471 0.419,0.932 0.666,1.377c0.316,0.57 0.525,1.146 0.612,1.812c0.097,0.747 0.401,1.467 0.62,2.198c0.338,1.132 0.662,2.269 1.026,3.393c0.785,2.424 1.087,4.947 1.57,7.434c0.006,0.031 0.018,0.064 0.015,0.095c-0.112,0.928 0.342,1.483 1.143,1.875c0.412,0.202 0.576,0.542 0.232,1.015c-0.274,0.375 -0.654,0.844 -0.619,1.239c0.081,0.939 0.379,1.861 0.59,2.788c0.091,0.401 0.176,0.804 0.284,1.202c0.173,0.645 -0.002,1.369 0.45,1.955c0.07,0.089 0.088,0.247 0.076,0.368c-0.129,1.177 0.239,2.263 0.501,3.388c0.274,1.175 0.769,2.345 0.516,3.613c-0.062,0.309 -0.016,0.648 0.023,0.967c0.022,0.18 0.085,0.41 0.213,0.512c0.372,0.295 0.761,0.589 1.187,0.792c1.838,0.874 3.241,2.268 4.53,3.787c0.366,0.431 0.605,0.987 0.837,1.513c0.738,1.672 1.785,3.2 2.232,5.01c0.545,2.198 1.098,4.402 0.985,6.676c-0.096,1.926 -0.342,3.85 -0.604,5.763c-0.226,1.66 -0.547,3.308 -0.864,4.954c-0.254,1.323 -0.505,2.651 -0.863,3.949c-0.437,1.58 -0.986,3.13 -1.477,4.696c-0.115,0.366 -0.178,0.751 -0.298,1.117c-0.26,0.795 -0.544,1.582 -0.811,2.375c-0.443,1.309 -0.88,2.621 -1.32,3.932c-0.091,0.275 -0.176,0.553 -0.276,0.824c-0.615,1.691 -1.209,3.39 -1.856,5.068c-0.645,1.672 -1.335,3.327 -2.022,4.982c-1.084,2.61 -2.166,5.219 -3.281,7.816c-0.388,0.905 -0.865,1.773 -1.334,2.727c-0.091,0.013 -0.276,0.05 -0.463,0.071c-0.664,0.075 -0.96,-0.122 -1.108,-0.739c-0.153,-0.635 -0.228,-1.208 0.223,-1.827c0.293,-0.401 0.093,-1.079 0.495,-1.518c-0.102,-1.414 0.623,-2.657 0.839,-4.015c0.337,-2.114 0.185,-4.221 0.155,-6.332c-0.008,-0.531 -0.244,-1.062 -0.382,-1.59c-0.671,-2.558 -1.366,-5.102 -2.944,-7.293c-1.004,-1.395 -2.227,-2.38 -3.953,-2.868c-1.2,-0.341 -2.091,0.319 -3.127,0.455c-0.785,0.103 -1.531,0.475 -2.311,0.658c-1.503,0.352 -3.015,0.661 -4.526,0.973c-0.314,0.066 -0.641,0.068 -0.962,0.095c-1.566,0.133 -3.132,0.269 -4.697,0.394c-0.512,0.041 -1.028,0.044 -1.54,0.079c-1.025,0.07 -2.049,0.156 -3.074,0.222c-0.188,0.013 -0.382,-0.047 -0.574,-0.061c-1.123,-0.085 -2.248,-0.153 -3.368,-0.254c-0.479,-0.043 -0.95,-0.162 -1.426,-0.228c-0.382,-0.053 -0.823,-0.215 -1.139,-0.088c-0.697,0.282 -1.224,-0.044 -1.833,-0.235c-1.01,-0.316 -2.054,-0.521 -3.083,-0.778c-1.123,-0.281 -2.304,-0.432 -3.342,-0.901c-0.663,-0.301 -1.412,-0.307 -2.019,-0.738c-0.504,-0.359 -0.945,0.048 -1.396,0.207c-0.138,0.05 -0.245,0.221 -0.378,0.237c-0.828,0.105 -1.362,0.776 -2.094,1.076c-0.32,0.13 -0.571,0.51 -0.777,0.825c-0.61,0.933 -1.193,1.884 -1.762,2.842c-0.107,0.182 -0.109,0.429 -0.146,0.65c-0.055,0.316 -0.057,0.649 -0.152,0.954c-0.617,1.957 -0.905,3.945 -0.664,5.998c0.029,0.254 0.031,0.516 -0.001,0.769c-0.213,1.684 0.004,3.349 0.188,5.016c0.174,1.57 0.287,3.147 0.536,4.705c0.12,0.744 0.046,1.388 -0.26,2.052c-0.256,0.557 -0.518,0.729 -1.1,0.624c-0.254,-0.047 -0.506,-0.105 -0.806,-0.168zM246.875,96.39c-1.115,0.466 -2.175,0.967 -3.271,1.401c-2.139,0.849 -4.389,1.167 -6.598,1.672c-1.342,0.307 -2.727,0.482 -4.103,0.576c-1.096,0.075 -2.204,0.402 -3.316,0.008c-0.374,-0.132 -0.795,-0.187 -1.195,-0.186c-1.364,0.003 -2.66,-0.401 -3.986,-0.624c-0.155,-0.026 -0.304,-0.102 -0.451,-0.164c-1.065,-0.451 -2.152,-0.859 -3.185,-1.376c-0.536,-0.268 -0.867,-0.124 -1.164,0.269c-0.562,0.74 -1.266,1.34 -1.8,2.128c-1.365,2.018 -2.943,3.892 -4.314,5.907c-1.027,1.511 -1.844,3.163 -2.792,4.729c-1.037,1.711 -1.818,3.53 -2.445,5.424c-0.151,0.458 -0.39,0.888 -0.534,1.348c-0.499,1.598 -0.899,3.229 -1.478,4.795c-0.537,1.45 -0.633,2.96 -0.814,4.451c-0.24,1.968 -0.324,3.958 -0.439,5.94c-0.077,1.316 -0.069,2.637 -0.144,3.952c-0.027,0.46 0.164,0.74 0.505,0.955c0.491,0.31 1.036,0.545 1.491,0.898c1.79,1.388 3.892,2.064 6.016,2.678c1.101,0.319 2.237,0.517 3.354,0.783c2.127,0.506 4.25,1.04 6.448,1.127c2.059,0.082 4.119,0.122 6.179,0.181c0.931,0.027 1.864,0.096 2.795,0.073c2.19,-0.054 4.38,-0.15 6.569,-0.232c1.148,-0.044 2.298,-0.05 3.44,-0.152c2.145,-0.192 4.287,-0.425 6.426,-0.674c1.246,-0.145 2.496,-0.296 3.723,-0.545c1.833,-0.372 3.638,-0.876 5.47,-1.245c2.307,-0.465 4.601,-0.959 6.763,-1.911c1.109,-0.488 2.315,-0.819 3.244,-1.785c-0.343,-1.637 -0.683,-3.305 -1.046,-4.968c-0.139,-0.635 -0.233,-0.673 -0.856,-0.617c-0.802,0.073 -1.606,0.124 -2.407,0.206c-0.794,0.082 -1.573,0.15 -2.342,-0.189c-0.378,-0.167 -0.814,-0.203 -1.211,-0.335c-0.573,-0.192 -1.161,-0.366 -1.698,-0.637c-1.204,-0.609 -2.227,-1.475 -3.207,-2.396c-0.276,-0.261 -0.605,-0.468 -0.881,-0.73c-0.789,-0.747 -1.193,-1.707 -1.613,-2.698c-0.688,-1.623 -1.149,-3.253 -1.186,-5.029c-0.051,-2.408 0.506,-4.666 1.497,-6.824c0.416,-0.908 1.022,-1.707 1.853,-2.321c1.017,-0.751 2,-1.55 3.04,-2.361c-0.231,-0.35 -0.472,-0.72 -0.599,-0.915c0.09,-0.341 0.234,-0.576 0.167,-0.685c-0.481,-0.794 -0.92,-1.639 -1.532,-2.326c-1.458,-1.633 -2.952,-3.238 -4.527,-4.757c-1.151,-1.107 -2.424,-2.101 -3.846,-2.819zM204.476,150.084c1.092,-0.533 2.038,-0.857 3.067,-0.84c0.089,0.001 0.177,-0.081 0.27,-0.098c0.601,-0.102 1.205,-0.291 1.804,-0.274c1.602,0.042 3.202,0.24 4.804,0.249c1.15,0.007 2.118,0.582 3.194,0.795c0.305,0.06 0.611,0.187 0.878,0.348c0.819,0.493 1.613,1.026 2.429,1.524c0.499,0.304 1.01,0.604 1.03,1.263c0.008,0.295 -0.19,0.597 -0.184,0.892c0.021,0.833 0.112,1.663 0.151,2.495c0.058,1.218 0.111,2.436 0.137,3.655c0.023,1.075 -0.019,2.152 0.014,3.227c0.034,1.119 0.264,2.238 -0.099,3.349c-0.078,0.237 -0.074,0.522 -0.029,0.771c0.184,1.026 0.056,2.043 0.015,3.072c-0.055,1.348 0.063,2.703 0.102,4.055c0.003,0.127 -0.028,0.254 -0.043,0.381c-0.102,0.831 -0.206,1.662 -0.306,2.494c-0.05,0.416 0.059,0.635 0.509,0.863c1.207,0.615 2.414,1.156 3.764,1.386c1.671,0.284 3.321,0.685 4.993,0.956c1.289,0.209 2.599,0.294 3.899,0.44c0.639,0.071 1.297,0.3 1.906,0.206c1.516,-0.234 3.027,-0.118 4.536,-0.081c2.645,0.064 5.267,-0.189 7.853,-0.678c1.729,-0.326 3.424,-0.858 5.111,-1.377c0.848,-0.261 1.657,-0.671 2.454,-1.076c0.206,-0.105 0.4,-0.439 0.412,-0.678c0.053,-0.933 0.047,-1.87 0.034,-2.805c-0.019,-1.388 -0.091,-2.776 -0.085,-4.164c0.006,-0.835 0.163,-1.669 0.171,-2.505c0.012,-1.804 -0.026,-3.609 -0.042,-5.413c-0.007,-0.707 0.086,-1.429 -0.031,-2.117c-0.262,-1.555 -0.393,-3.118 -0.301,-4.685c0.044,-0.705 0.007,-1.605 0.821,-1.936c0.682,-0.277 1.044,-0.801 1.307,-1.159c0.736,-0.071 1.311,-0.066 1.856,-0.194c1.1,-0.255 2.184,-0.573 3.332,-0.347c0.061,0.012 0.129,0.004 0.193,0c1.413,-0.101 2.817,-0.199 4.172,0.414c0.205,0.093 0.611,-0.08 0.831,-0.252c0.254,-0.199 0.402,-0.531 0.691,-0.94c-1.131,-3.895 -1.216,-8.151 -2.46,-12.234c-0.501,0.243 -0.99,0.354 -1.289,0.654c-0.446,0.45 -0.987,0.573 -1.536,0.742c-0.49,0.15 -0.98,0.302 -1.467,0.461c-0.26,0.084 -0.508,0.211 -0.771,0.275c-1.302,0.318 -2.607,0.622 -3.911,0.929c-0.966,0.227 -1.931,0.464 -2.901,0.668c-0.31,0.064 -0.682,-0.063 -0.949,0.062c-1.916,0.884 -3.977,0.955 -6.02,1.145c-0.705,0.065 -1.407,0.163 -2.112,0.24c-1.079,0.119 -2.16,0.227 -3.239,0.353c-0.443,0.051 -0.879,0.18 -1.322,0.198c-0.853,0.034 -1.707,-0.006 -2.559,0.024c-0.733,0.025 -1.464,0.114 -2.196,0.157c-0.803,0.047 -1.608,0.082 -2.412,0.107c-0.672,0.022 -1.345,0.028 -2.018,0.032c-0.158,0 -0.317,-0.056 -0.476,-0.053c-1.825,0.03 -3.649,0.083 -5.474,0.095c-0.925,0.007 -1.851,-0.033 -2.775,-0.092c-1.08,-0.069 -2.166,-0.132 -3.236,-0.286c-0.945,-0.137 -1.868,-0.413 -2.808,-0.594c-0.718,-0.137 -1.448,-0.206 -2.169,-0.333c-1.069,-0.188 -2.136,-0.394 -3.2,-0.611c-0.245,-0.049 -0.476,-0.171 -0.711,-0.265c-0.922,-0.372 -1.823,-0.806 -2.767,-1.101c-0.787,-0.246 -1.488,-0.582 -2.091,-1.139c-0.161,-0.15 -0.345,-0.293 -0.544,-0.379c-0.724,-0.314 -1.461,-0.603 -2.306,-0.947c-0.09,1.077 -0.241,2.162 -0.258,3.249c-0.021,1.352 0.05,2.706 0.114,4.058c0.048,1.057 0.149,2.112 0.243,3.369zM213.448,213.306c0.072,-0.006 0.145,-0.012 0.217,-0.017c0.022,-0.178 0.074,-0.357 0.061,-0.532c-0.044,-0.576 -0.113,-1.15 -0.168,-1.725c-0.04,-0.415 -0.064,-0.835 -0.109,-1.25c-0.219,-2.007 -0.312,-4.015 -0.125,-6.032c0.122,-1.315 0.258,-2.632 0.332,-3.951c0.079,-1.443 0.636,-2.746 1.079,-4.085c0.324,-0.98 1.087,-1.679 1.694,-2.444c0.622,-0.784 1.498,-1.434 2.386,-1.914c0.636,-0.345 0.887,-0.773 0.977,-1.384c0.093,-0.636 0.181,-1.281 0.174,-1.922c-0.016,-1.404 -0.138,-2.809 -0.134,-4.213c0.004,-1.542 0.109,-3.084 0.157,-4.626c0.016,-0.515 -0.028,-1.031 -0.01,-1.545c0.036,-1.018 0.094,-2.036 0.145,-3.053c0.064,-1.287 0.135,-2.574 0.193,-3.861c0.013,-0.286 -0.014,-0.575 -0.02,-0.862c-0.016,-0.834 -0.036,-1.667 -0.043,-2.501c-0.002,-0.29 0.043,-0.58 0.04,-0.87c-0.017,-1.503 -0.037,-3.006 -0.068,-4.507c-0.018,-0.899 0.013,-1.808 -0.115,-2.692c-0.103,-0.71 -0.099,-1.384 0.001,-2.087c0.066,-0.468 0.18,-1.107 -0.058,-1.406c-0.466,-0.588 -0.466,-1.21 -0.378,-1.807c0.084,-0.569 -0.073,-0.848 -0.547,-1.055c-0.96,-0.418 -1.904,-0.881 -2.882,-1.257c-0.594,-0.228 -1.23,-0.421 -1.859,-0.466c-1.587,-0.116 -3.18,-0.176 -4.771,-0.181c-0.591,-0.002 -1.187,0.184 -1.772,0.324c-0.342,0.082 -0.658,0.325 -0.998,0.353c-0.965,0.081 -1.744,0.554 -2.576,0.986c-1.183,0.615 -2.102,1.484 -2.816,2.556c-0.839,1.259 -1.548,2.613 -1.956,4.073c-0.388,1.388 -0.602,2.824 -0.936,4.228c-0.47,1.975 -0.388,3.975 -0.251,5.965c0.126,1.85 0.372,3.693 0.576,5.537c0.054,0.48 0.16,0.954 0.224,1.432c0.123,0.924 0.124,1.88 0.372,2.768c0.662,2.378 0.878,4.898 2.172,7.083c0.062,0.105 0.037,0.256 0.078,0.376c0.658,1.887 1.271,3.791 1.995,5.652c0.72,1.85 1.552,3.655 2.337,5.479c0.99,2.302 1.952,4.618 2.984,6.901c0.572,1.265 1.262,2.477 1.901,3.711c0.83,1.608 1.663,3.214 2.497,4.821zM268.961,208.823c1.102,-1.897 1.719,-3.79 2.437,-5.633c0.631,-1.614 1.11,-3.286 1.697,-4.919c0.441,-1.23 0.957,-2.432 1.421,-3.654c0.287,-0.753 0.565,-1.512 0.801,-2.282c0.502,-1.631 1.012,-3.262 1.448,-4.911c0.525,-1.985 1.165,-3.935 1.489,-5.982c0.384,-2.416 1.112,-4.769 1.369,-7.216c0.246,-2.372 0.309,-4.734 -0.118,-7.089c-0.534,-2.949 -1.73,-5.629 -3.399,-8.1c-0.352,-0.525 -0.751,-1.039 -1.216,-1.462c-1.523,-1.39 -3.346,-2.271 -5.289,-2.891c-0.73,-0.234 -1.507,-0.335 -2.269,-0.449c-0.339,-0.05 -0.699,0.053 -1.043,0.025c-1.149,-0.098 -2.294,-0.229 -3.442,-0.336c-0.19,-0.017 -0.393,-0.004 -0.58,0.039c-1.088,0.256 -2.175,0.525 -3.244,0.785c0,2.821 -0.014,5.56 0.006,8.297c0.009,1.193 0.115,2.385 0.115,3.577c0,0.836 -0.145,1.671 -0.153,2.507c-0.013,1.965 0.02,3.93 0.028,5.895c0.007,1.579 -0.011,3.158 0.009,4.737c0.011,0.804 0.102,1.607 0.119,2.411c0.022,1.019 0.009,2.04 0.009,3.06c0,1.03 0.001,2.061 -0.002,3.09c-0.001,0.634 -0.039,1.27 -0.009,1.903c0.025,0.489 0.229,0.854 0.82,0.887c0.346,0.02 0.716,0.092 1.025,0.247c1.968,0.987 3.647,2.346 4.643,4.334c0.674,1.344 1.343,2.699 1.816,4.152c0.575,1.774 1.212,3.513 1.283,5.403c0.042,1.119 0.141,2.237 0.229,3.575zM247.702,193.475c0,-0.512 0.011,-0.891 -0.004,-1.269c-0.012,-0.28 -0.103,-0.562 -0.081,-0.836c0.081,-0.951 0.32,-1.907 0.27,-2.848c-0.103,-1.913 -0.355,-3.818 -0.553,-5.815c-0.25,0.04 -0.523,0.094 -0.799,0.125c-0.702,0.082 -1.407,0.218 -2.11,0.217c-1.36,-0.001 -2.737,-0.238 -4.076,-0.093c-2.005,0.217 -3.964,-0.046 -5.94,-0.199c-0.536,-0.042 -1.071,-0.074 -1.678,-0.116c0,0.35 0,0.569 0,0.787c-0.002,1.647 0.124,3.306 -0.043,4.935c-0.16,1.571 -0.02,3.079 0.251,4.605c0.066,0.369 0.19,0.59 0.585,0.64c1.044,0.129 2.082,0.352 3.128,0.403c2.4,0.118 4.801,0.006 7.195,-0.184c1.305,-0.101 2.605,-0.236 3.855,-0.352zM222.22,96.335c0.395,0.145 0.694,0.246 0.987,0.364c1.248,0.502 2.51,0.951 3.86,1.087c0.669,0.069 1.337,0.161 2.009,0.189c1.503,0.061 3.023,0.233 4.51,0.089c1.617,-0.155 3.208,-0.596 4.801,-0.953c0.812,-0.181 1.591,-0.563 2.407,-0.655c1.312,-0.149 2.437,-0.802 3.664,-1.173c0.156,-0.048 0.263,-0.263 0.384,-0.391c-0.484,-0.283 -0.877,-0.49 -1.246,-0.731c-1.677,-1.098 -3.6,-1.541 -5.501,-1.975c-1.37,-0.313 -2.794,-0.425 -4.201,-0.526c-1.074,-0.078 -2.164,-0.052 -3.241,0.027c-0.913,0.066 -1.816,0.39 -2.724,0.389c-0.864,0 -1.317,0.328 -1.496,1.082c-1.923,0.349 -3.117,1.579 -4.213,3.177zM230.801,182.631c-2.981,-0.756 -5.89,-1.493 -8.925,-2.262c-0.041,0.626 -0.078,1.258 -0.126,1.888c-0.061,0.798 -0.177,1.595 -0.187,2.393c-0.016,1.224 0.042,2.448 0.061,3.672c0.01,0.67 0.002,1.34 0.002,2.146c0.983,0.36 2.013,0.798 3.078,1.112c1.384,0.407 2.795,0.719 4.197,1.063c0.608,0.149 1.222,0.276 1.879,0.422c0.029,-0.243 0.074,-0.372 0.054,-0.491c-0.257,-1.5 0.175,-2.981 0.125,-4.475c-0.061,-1.861 0.155,-3.733 -0.158,-5.468zM249.745,193.348c1.332,-0.327 2.574,-0.604 3.8,-0.943c1.011,-0.279 1.998,-0.653 3.008,-0.944c0.684,-0.197 0.888,-0.663 0.896,-1.304c0.006,-0.541 0.052,-1.082 0.046,-1.622c-0.021,-1.935 -0.036,-3.87 -0.098,-5.804c-0.025,-0.754 -0.172,-1.503 -0.277,-2.364c-1.023,0.291 -1.91,0.524 -2.785,0.795c-0.761,0.237 -1.5,0.546 -2.264,0.767c-0.675,0.193 -1.367,0.333 -2.059,0.451c-0.522,0.089 -0.687,0.372 -0.668,0.87c0.061,1.58 0.073,3.162 0.157,4.74c0.09,1.732 0.377,3.454 0.244,5.358zM264.947,126.751c-0.994,0.328 -1.899,0.468 -2.803,0.096c-0.674,-0.276 -1.313,-0.645 -2.001,-0.876c-0.711,-0.238 -1.371,-0.516 -1.915,-1.057c-0.428,-0.426 -0.921,-0.784 -1.349,-1.209c-0.196,-0.195 -0.311,-0.476 -0.452,-0.725c-0.19,-0.334 -0.417,-0.657 -0.539,-1.015c-0.383,-1.106 -1.016,-2.166 -0.709,-3.414c0.09,-0.366 0.244,-0.722 0.298,-1.092c0.185,-1.313 0.781,-2.457 1.478,-3.542c0.283,-0.442 0.713,-0.845 1.169,-1.109c1.537,-0.891 1.554,-0.865 0.627,-2.356c-0.085,-0.137 -0.159,-0.307 -0.284,-0.387c-0.195,-0.123 -0.473,-0.304 -0.64,-0.244c-1.137,0.4 -2.353,0.699 -3.02,1.867c-0.189,0.333 -0.333,0.696 -0.558,1.002c-1.112,1.518 -1.301,3.34 -1.637,5.094c-0.276,1.439 -0.014,2.879 0.45,4.269c0.567,1.691 1.282,3.285 2.792,4.373c0.236,0.169 0.475,0.346 0.666,0.56c0.78,0.875 1.868,1.356 2.896,1.602c1.569,0.375 3.234,0.362 4.86,0.474c0.362,0.025 0.734,-0.116 1.18,-0.196c-0.182,-0.757 -0.338,-1.407 -0.509,-2.115zM264.214,124.492c-0.875,-3.631 -2.534,-6.93 -3.596,-10.33c-1.066,-0.002 -1.905,0.24 -2.517,1.064c-0.295,0.395 -0.381,0.854 -0.592,1.249c-0.651,1.218 -0.49,2.46 -0.194,3.661c0.391,1.595 2.678,3.874 4.78,3.855c0.698,-0.006 1.461,-0.054 2.119,0.501z" fill="#32419a"/></g><g><path d="M256.924,209.539c0.225,0.014 2.995,4.305 3.819,11.911c0.824,7.606 -3.744,15.225 -3.744,15.225c0,0 -4.493,7.425 -7.564,10.897c-3.07,3.472 -6.889,11.303 -6.889,11.303h-1.348l-6.59,-8.623l-7.338,-7.202c0,0 -3.969,-4.125 -6.141,-7.35c-2.172,-3.225 -1.722,-14.769 -1.722,-14.769l3.07,-8.406l3.22,-6.225c0,0 6.365,-4.875 9.061,-5.775c2.696,-0.9 9.211,0 9.211,0c9.061,2.625 12.73,8.999 12.955,9.014z" fill="#f7ec1e"/><path d="M244.643,212.75l1.947,3.75l0.449,5.7c0,0 -1.872,5.775 -2.321,6c-0.45,0.225 -2.921,2.55 -2.921,2.55l-4.193,0.375l-2.921,-1.625l-1.647,-3.025l-1.348,-7.132l1.497,-4.943l2.696,-3.413l4.154,-0.337l3.485,0.675z" fill="#fbf5a8"/><path d="M261.679,223.58c0.053,0.997 0.211,2.003 0.133,2.99c-0.085,1.041 -0.144,2.098 -0.64,3.095c-0.645,1.3 -1.175,2.66 -1.398,4.12c-0.049,0.324 -0.242,0.663 -0.458,0.92c-1.193,1.417 -2.171,2.954 -2.995,4.624c-0.58,1.177 -1.413,2.236 -2.188,3.308c-1.552,2.148 -3.137,4.273 -4.719,6.4c-1.101,1.479 -2.278,2.906 -3.308,4.433c-0.827,1.228 -1.528,2.547 -2.197,3.871c-0.286,0.563 -0.32,1.248 -0.512,1.862c-0.191,0.612 -1.158,1.29 -1.791,1.242c-0.214,-0.016 -0.462,-0.193 -0.612,-0.367c-0.479,-0.562 -0.929,-1.15 -1.371,-1.743c-0.169,-0.23 -0.295,-0.496 -0.423,-0.755c-0.439,-0.877 -0.979,-1.661 -1.769,-2.276c-0.344,-0.268 -0.588,-0.671 -0.855,-1.03c-0.346,-0.466 -0.655,-0.959 -1.004,-1.422c-1.463,-1.946 -3.279,-3.551 -5.017,-5.234c-0.927,-0.897 -1.784,-1.868 -2.671,-2.806c-1.867,-1.976 -3.785,-3.907 -5.577,-5.948c-0.851,-0.968 -1.706,-1.977 -2.036,-3.327c-0.212,-0.867 -0.687,-1.67 -1.034,-2.505c-0.099,-0.238 -0.232,-0.492 -0.231,-0.737c0.011,-1.741 -0.643,-3.376 -0.728,-5.115c-0.155,-3.155 0.143,-6.228 0.966,-9.272c0.499,-1.843 1.031,-3.66 2.032,-5.303c0.127,-1.22 0.737,-2.255 1.314,-3.287c0.482,-0.864 1.091,-1.658 1.643,-2.483c0.143,-0.212 0.278,-0.431 0.432,-0.633c0.442,-0.584 0.794,-1.243 1.559,-1.517c0.245,-0.087 0.412,-0.384 0.624,-0.574c0.782,-0.703 1.69,-1.242 2.407,-2.043c0.357,-0.398 0.979,-0.578 1.505,-0.803c1.086,-0.462 2.215,-0.834 3.276,-1.346c1.036,-0.502 2.25,-0.33 3.238,-0.959c0.103,-0.065 0.255,-0.092 0.377,-0.077c0.746,0.101 1.491,0.216 2.235,0.333c0.342,0.054 0.72,0.251 1.014,0.163c1.007,-0.304 1.974,0.022 2.953,0.084c0.394,0.025 0.772,0.259 1.168,0.358c1.965,0.489 3.957,1.029 5.613,2.185c1.616,1.128 3.198,2.339 4.59,3.793c1.399,1.463 2.222,3.24 3.256,4.917c0.923,1.498 1.404,3.157 2.079,4.737c0.48,1.123 0.542,2.432 0.739,3.666c0.082,0.505 0.038,1.014 0.325,1.49c0.136,0.224 0.103,0.561 0.109,0.846c0.013,0.708 0.004,1.415 0.004,2.123c-0.019,0.002 -0.039,0.002 -0.057,0.002zM241.642,257.98c1.148,-1.956 2.132,-3.848 3.32,-5.603c1.612,-2.382 3.372,-4.663 5.084,-6.977c0.883,-1.194 1.819,-2.35 2.691,-3.552c0.929,-1.281 1.851,-2.568 2.7,-3.902c0.727,-1.142 1.375,-2.338 2.005,-3.538c0.359,-0.685 0.625,-1.419 0.915,-2.139c0.491,-1.221 1.231,-2.357 1.342,-3.712c0.087,-1.057 0.178,-2.116 0.189,-3.174c0.022,-2.147 0.134,-4.304 -0.42,-6.413c-0.015,-0.062 -0.015,-0.128 -0.029,-0.19c-0.239,-1.066 -0.415,-2.153 -0.735,-3.194c-0.565,-1.842 -1.411,-3.573 -2.329,-5.262c-0.852,-1.566 -2.103,-2.835 -3.342,-4.084c-0.715,-0.721 -1.655,-1.213 -2.436,-1.874c-0.736,-0.623 -1.58,-0.984 -2.471,-1.277c-0.243,-0.081 -0.524,-0.105 -0.728,-0.244c-1.259,-0.863 -2.785,-0.957 -4.159,-1.481c-0.175,-0.066 -0.405,-0.107 -0.571,-0.051c-0.675,0.23 -1.331,0.051 -1.995,-0.021c-1.857,-0.205 -3.706,-0.328 -5.445,0.582c-0.081,0.042 -0.188,0.036 -0.284,0.051c-1.386,0.219 -2.595,0.918 -3.851,1.475c-0.576,0.253 -1.065,0.705 -1.596,1.062c-0.237,0.16 -0.486,0.302 -0.723,0.464c-0.995,0.679 -1.68,1.669 -2.452,2.558c-0.917,1.055 -1.872,2.112 -2.377,3.468c-0.19,0.512 -0.445,0.998 -0.653,1.503c-0.663,1.605 -1.448,3.175 -1.943,4.83c-0.542,1.816 -0.866,3.706 -1.184,5.58c-0.169,1.002 -0.186,2.04 -0.162,3.06c0.045,1.904 0.474,3.757 0.947,5.591c0.322,1.246 0.59,2.547 1.168,3.676c0.761,1.487 1.703,2.91 2.751,4.212c1.173,1.455 2.539,2.754 3.846,4.098c0.697,0.717 1.464,1.364 2.166,2.077c1.108,1.128 2.106,2.379 3.298,3.403c1.496,1.286 2.602,2.865 3.772,4.41c0.814,1.078 1.637,2.151 2.476,3.212c0.377,0.473 0.799,0.908 1.215,1.376z" fill="#32419a"/><path d="M179.482,266.806c-0.599,0.161 -1.141,0.4 -1.695,0.433c-1.223,0.073 -2.124,-0.702 -2.247,-1.926c-0.175,-1.725 0.205,-3.346 1.121,-4.821c0.462,-0.745 1.132,-1.306 1.996,-1.415c0.982,-0.125 1.995,-0.158 2.978,-0.062c0.747,0.074 1.357,0.563 1.71,1.299c1.385,-0.098 2.268,0.818 3.229,1.56c0.167,0.131 0.309,0.352 0.366,0.558c0.469,1.695 0.302,4.32 -1.572,5.607c-0.964,0.662 -1.987,0.94 -3.108,0.764c-0.418,-0.066 -0.838,-0.327 -1.185,-0.594c-0.584,-0.45 -1.112,-0.974 -1.593,-1.403zM181.502,260.768c-0.024,-0.08 -0.048,-0.161 -0.071,-0.242c-0.568,-0.014 -1.136,-0.035 -1.704,-0.041c-0.896,-0.009 -1.536,0.404 -1.941,1.2c-0.461,0.911 -0.674,1.883 -0.727,2.893c-0.01,0.19 0.004,0.393 0.057,0.576c0.156,0.533 0.57,0.689 1.053,0.409c0.448,-0.261 0.69,-0.66 0.775,-1.169c0.075,-0.447 0.353,-0.684 0.805,-0.676c0.414,0.008 0.703,0.332 0.78,0.846c0.014,0.095 0.017,0.194 0.008,0.291c-0.053,0.571 0.219,0.993 0.621,1.353c0.216,0.193 0.439,0.38 0.663,0.566c0.718,0.598 1.398,0.671 2.213,0.241c1.24,-0.657 1.95,-2.542 1.457,-3.88c-0.033,-0.088 -0.084,-0.175 -0.144,-0.251c-0.725,-0.921 -1.956,-1.183 -3.058,-0.672c-0.228,0.106 -0.501,0.229 -0.727,0.189c-0.25,-0.044 -0.576,-0.215 -0.671,-0.424c-0.093,-0.202 0.014,-0.543 0.127,-0.78c0.086,-0.178 0.317,-0.287 0.484,-0.429z" fill="#32419a"/><path d="M302.986,248.167c1.093,-0.299 1.48,-0.034 1.629,1.065c0.148,1.094 -0.059,2.118 -0.596,3.063c-0.165,0.29 -0.442,0.579 -0.738,0.725c-0.986,0.487 -2.473,0.124 -3.19,-0.716c-0.895,-1.051 -1.003,-2.427 -0.271,-3.485c0.129,-0.185 0.251,-0.376 0.398,-0.546c0.768,-0.895 1.921,-0.935 2.768,-0.106zM302.814,248.909c-0.468,0.138 -0.984,0.173 -1.341,0.43c-0.365,0.262 -0.669,0.7 -0.54,1.252c0.186,0.8 0.7,1.067 1.68,0.873c0.409,-0.818 0.704,-1.644 0.201,-2.555z" fill="#32419a"/><path d="M231.224,220.023c0,-0.937 -0.02,-1.875 0.009,-2.813c0.013,-0.382 0.038,-0.81 0.215,-1.131c0.791,-1.432 1.179,-3.069 2.265,-4.354c1.109,-1.313 2.438,-2.199 4.2,-2.186c1.451,0.009 2.901,0.114 4.349,0.203c0.278,0.016 0.603,0.085 0.814,0.247c0.638,0.49 1.321,0.965 1.823,1.58c1.107,1.352 2.089,2.814 2.454,4.564c0.176,0.844 0.171,1.727 0.248,2.592c0.005,0.065 -0.002,0.131 0.004,0.194c0.27,2.744 -0.301,5.329 -1.437,7.818c-0.374,0.822 -0.67,1.679 -1.013,2.516c-0.084,0.206 -0.165,0.448 -0.323,0.586c-2.863,2.488 -5.962,3.435 -9.745,1.299c-0.25,-0.141 -0.534,-0.294 -0.692,-0.518c-1.187,-1.689 -2.518,-3.321 -2.972,-5.394c-0.225,-1.027 -0.229,-2.107 -0.293,-3.165c-0.041,-0.676 -0.007,-1.358 -0.007,-2.038c0.033,0 0.067,0 0.101,0zM232.659,219.756c0.044,1.546 -0.092,3.037 0.438,4.478c0.265,0.717 0.408,1.478 0.634,2.212c0.63,2.045 1.821,3.589 4.006,4.04c0.867,0.179 1.805,0.125 2.698,0.042c1.54,-0.139 2.619,-0.993 3.236,-2.413c0.515,-1.183 0.977,-2.391 1.534,-3.552c0.781,-1.629 0.97,-3.339 0.863,-5.109c-0.042,-0.679 -0.075,-1.359 -0.144,-2.035c-0.245,-2.388 -1.472,-4.232 -3.242,-5.756c-0.23,-0.197 -0.562,-0.354 -0.86,-0.38c-1.252,-0.106 -2.511,-0.216 -3.765,-0.198c-0.585,0.01 -1.246,0.185 -1.732,0.502c-1.154,0.752 -2.067,1.76 -2.511,3.113c-0.21,0.644 -0.386,1.299 -0.599,1.942c-0.129,0.388 -0.376,0.751 -0.435,1.147c-0.098,0.669 -0.088,1.354 -0.121,1.967z" fill="#32419a"/></g><text transform="translate(135.0993,79.02172) scale(1.10946,1.10946)" font-size="40" xml:space="preserve" fill="#dbc9ff" fill-rule="nonzero" stroke="none" stroke-width="1" stroke-linecap="butt" stroke-linejoin="miter" stroke-miterlimit="10" stroke-dasharray="" stroke-dashoffset="0" font-family="Pixel" font-weight="normal" text-anchor="start" style="mix-blend-mode: normal"><tspan x="0" dy="0">BEGIN QUEST!!</tspan></text><text transform="translate(146.58713,134.37262) scale(0.5,0.5)" font-size="40" xml:space="preserve" fill="#dbc9ff" fill-rule="nonzero" stroke="none" stroke-width="1" stroke-linecap="butt" stroke-linejoin="miter" stroke-miterlimit="10" stroke-dasharray="" stroke-dashoffset="0" font-family="Pixel" font-weight="normal" text-anchor="start" style="mix-blend-mode: normal"><tspan x="0" dy="0"> </tspan></text></g></g></svg>