<svg version="1.1" xmlns="http://www.w3.org/2000/svg" xmlns:xlink="http://www.w3.org/1999/xlink" width="99.11289" height="98.10539" viewBox="0,0,99.11289,98.10539"><g transform="translate(-172.89318,-147.30984)"><g data-paper-data="{&quot;isPaintingLayer&quot;:true}" fill-rule="nonzero" stroke-linejoin="miter" stroke-miterlimit="10" stroke-dasharray="" stroke-dashoffset="0" style="mix-blend-mode: normal"><g stroke="#703d00" stroke-linecap="round"><path d="M199.90222,179.01663c9.70613,-10.33884 19.50652,-15.57591 31.92979,-19.86353c5.90842,-2.03275 13.32449,-2.29761 20.85803,0.56539c6.00762,2.30693 13.24251,7.29812 16.13368,13.02034c3.34348,6.61731 1.61164,13.03055 -0.52607,17.88588c-4.90378,11.09592 -12.65298,20.22556 -21.04377,28.45661c-9.04173,9.6472 -18.54943,19.14774 -31.10542,25.02664c-4.74481,2.22262 -11.89857,1.45812 -18.52269,-0.77332c-4.37071,-1.54516 -10.56608,-5.41644 -13.11916,-10.19029c-3.37895,-7.14027 -3.96718,-14.82084 -2.41472,-21.00882c3.2468,-12.81199 8.10418,-22.78009 17.81033,-33.11893z" data-paper-data="{&quot;origPos&quot;:null}" fill="#a85b00" stroke-width="2.61452"/><path d="M199.88413,179.18989c9.71093,-10.34395 17.33323,-17.53857 28.77393,-22.84971c5.32381,-2.46898 14.49615,-4.39408 19.13322,0.23505c4.75115,4.18457 1.96914,12.64565 -0.35678,17.39233c-5.5085,11.23761 -13.27428,20.79239 -21.90929,29.69588c-8.50734,9.06599 -18.51724,17.47372 -29.97477,23.58941c-3.81245,2.04095 -10.68506,4.148 -14.21291,0.10797c-4.79982,-4.91292 -4.39065,-13.07865 -2.44298,-18.01325c4.63566,-11.73704 11.27866,-19.81374 20.98958,-30.15769z" data-paper-data="{&quot;origPos&quot;:null}" fill="#a85b00" stroke-width="2.4183"/><path d="M202.27206,177.08085c14.4605,-15.44159 20.59826,-16.20106 31.5144,-22.87878c5.13328,-3.13901 12.44378,-5.34782 17.80059,-3.10871c7.46465,3.1234 17.01842,12.36547 16.96111,17.36335c-0.03661,3.54694 -12.84286,-2.76829 -16.40786,0.16417c-2.48079,1.64462 5.30234,5.57862 4.31628,8.98998c-1.35814,4.62295 -11.57383,5.65428 -10.65577,9.81629c1.0468,4.72179 11.32431,3.3178 13.76448,7.9843c1.76958,2.83129 -1.21693,8.9623 -4.46979,8.55985c-6.20327,-0.77059 -9.25038,-9.42496 -15.34014,-10.83515c-3.20284,-0.74502 -6.85879,2.95931 -7.13087,6.06162c-0.50191,5.83965 5.69977,10.93073 4.94703,16.646c-0.40441,3.05625 -4.04289,5.09539 -6.78865,5.69708c-7.62117,0.88293 -16.81847,-5.73935 -22.68531,-1.47708c-4.43134,3.21095 3.81744,14.85995 0.12995,16.44432c-4.18089,1.77681 -11.13787,-11.1503 -16.04689,-10.81284c-3.0275,0.21512 2.77712,11.50901 0.02586,12.02599c-3.42535,0.38615 -10.04089,-5.39933 -12.38368,-10.18563c-2.32749,-4.88441 -2.59634,-11.42981 -0.09008,-16.21212c6.26995,-11.95446 3.45455,-11.66915 22.53932,-34.24263z" data-paper-data="{&quot;origPos&quot;:null}" fill="#703d00" stroke-width="1.99513"/></g><path d="M199.98589,177.79214c9.00621,-9.13189 18.53528,-18.19541 29.66756,-24.61261c5.76993,-3.32041 14.07307,-6.38728 20.84757,-4.02016c7.36656,2.63354 17.18294,12.12214 16.63915,17.7469c-0.45828,3.8218 -14.21397,-2.38897 -18.64603,1.14914c-2.45941,1.9253 5.46323,5.72967 4.511,9.17279c-1.31265,4.66567 -11.66949,5.56448 -10.67779,9.79562c1.1305,4.80036 11.54478,3.52478 14.08906,8.28901c1.83717,2.89473 -1.10706,9.06544 -4.41533,8.61098c-6.30906,-0.8699 -9.5267,-9.68438 -15.7296,-11.20077c-3.2624,-0.80095 -6.92112,2.90079 -7.15289,6.04095c-0.42587,5.91103 5.94343,11.15947 5.26112,16.94086c-0.36679,3.09157 -4.03159,5.106 -6.81059,5.67648c-7.72485,0.7856 -17.15748,-6.05762 -23.05283,-1.82212c-4.45292,3.19069 4.08873,15.11463 0.36762,16.66745c-4.21923,1.74081 -11.4677,-11.45995 -16.44685,-11.18832c-3.07059,0.17467 2.98446,11.70367 0.19865,12.1882c-3.47208,0.34228 -10.27157,-5.6159 -12.71868,-10.50014c-2.43306,-4.98351 -2.79982,-11.62085 -0.32381,-16.43155c6.19435,-12.02544 15.29117,-22.50288 24.39265,-32.50272z" data-paper-data="{&quot;origPos&quot;:null}" fill="#ddc6d2" stroke="#ddc6d2" stroke-width="2.02398" stroke-linecap="round"/><path d="M209.16294,184.52159c2.24225,-2.38841 4.44205,-4.39557 6.1841,-5.70913c1.74136,-1.31283 3.02564,-1.93277 3.43829,-1.54537c0.41265,0.38739 -0.12507,1.70822 -1.32546,3.5289c-1.20108,1.82142 -3.06552,4.14342 -5.30776,6.53183c-2.24225,2.38841 -4.44205,4.39557 -6.1841,5.70913c-1.74136,1.31283 -3.02564,1.93277 -3.43829,1.54537c-0.41265,-0.38739 0.12507,-1.70822 1.32546,-3.5289c1.20108,-1.82142 3.06552,-4.14342 5.30776,-6.53183z" fill="#a85b00" stroke="#703d00" stroke-width="1.99513" stroke-linecap="butt"/><g data-paper-data="{&quot;origPos&quot;:null}" fill="none" stroke="#6148a4" stroke-width="1.99513" stroke-linecap="round"><path d="M203.31335,211.64034l-2.76294,-6.84589" data-paper-data="{&quot;origPos&quot;:null}"/><path d="M205.99381,176.57428l-4.24356,4.52019" data-paper-data="{&quot;origPos&quot;:null}"/><path d="M224.57742,198.27266l2.74899,-5.92331" data-paper-data="{&quot;origPos&quot;:null}"/><path d="M235.18279,175.65296l-5.39593,2.75254" data-paper-data="{&quot;origPos&quot;:null}"/><path d="M201.91184,220.95468l-2.03032,5.15779" data-paper-data="{&quot;origPos&quot;:null}"/><path d="M182.26448,227.26748l-3.02561,-2.84045" data-paper-data="{&quot;origPos&quot;:null}"/><path d="M189.00914,193.20508l-2.81815,3.73237" data-paper-data="{&quot;origPos&quot;:null}"/><path d="M255.33974,154.18205l4.15566,3.90135" data-paper-data="{&quot;origPos&quot;:null}"/><path d="M224.51307,172.70005l3.18268,-3.39014" data-paper-data="{&quot;origPos&quot;:null}"/><path d="M215.15501,165.35487l2.12178,-2.26009z" data-paper-data="{&quot;origPos&quot;:null}"/></g><g data-paper-data="{&quot;origPos&quot;:null}" fill="none" stroke="#9b4976" stroke-width="1.99513" stroke-linecap="round"><path d="M190.44851,205.18644l2.79584,-4.43912" data-paper-data="{&quot;origPos&quot;:null}"/><path d="M215.02583,197.12385l-4.24356,4.52019" data-paper-data="{&quot;origPos&quot;:null}"/><path d="M234.58848,168.03115l-3.39014,-3.18268" data-paper-data="{&quot;origPos&quot;:null}"/><path d="M216.44568,171.50439l-5.81922,1.66934" data-paper-data="{&quot;origPos&quot;:null}"/><path d="M253.75726,161.20047l-4.15566,-3.90135" data-paper-data="{&quot;origPos&quot;:null}"/><path d="M234.56039,155.93449l2.84045,-3.02561" data-paper-data="{&quot;origPos&quot;:null}"/><path d="M184.49454,213.79314l0.20747,6.57282" data-paper-data="{&quot;origPos&quot;:null}"/></g><g data-paper-data="{&quot;origPos&quot;:null}" fill="none" stroke="#ffffff" stroke-width="1.99513" stroke-linecap="round"><path d="M193.12354,220.45387l2.07717,-3.6736" data-paper-data="{&quot;origPos&quot;:null}"/><path d="M195.08952,189.72347l5.46508,-0.5616" data-paper-data="{&quot;origPos&quot;:null}"/><path d="M223.09741,211.97572l0.14515,-5.48738" data-paper-data="{&quot;origPos&quot;:null}"/><path d="M231.1354,189.82616l5.10055,-0.90383" data-paper-data="{&quot;origPos&quot;:null}"/><path d="M240.70574,180.36248l1.91787,2.48632z" data-paper-data="{&quot;origPos&quot;:null}"/><path d="M225.78535,159.29131l-3.18268,3.39014" data-paper-data="{&quot;origPos&quot;:null}"/><path d="M244.80744,160.14119l-2.04072,3.70782" data-paper-data="{&quot;origPos&quot;:null}"/><path d="M177.92171,214.00061l-2.37031,5.593" data-paper-data="{&quot;origPos&quot;:null}"/><path d="M181.94654,205.98779l3.68552,1.33396z" data-paper-data="{&quot;origPos&quot;:null}"/><path d="M221.03413,182.46906l2.23556,1.34436z" data-paper-data="{&quot;origPos&quot;:null}"/></g></g></g></svg>