<svg version="1.1" xmlns="http://www.w3.org/2000/svg" xmlns:xlink="http://www.w3.org/1999/xlink" width="106.58811" height="88.26855" viewBox="0,0,106.58811,88.26855"><g transform="translate(-172.92592,-153.69687)"><g data-paper-data="{&quot;isPaintingLayer&quot;:true}" fill-rule="nonzero" stroke-linejoin="miter" stroke-miterlimit="10" stroke-dasharray="" stroke-dashoffset="0" style="mix-blend-mode: normal"><g stroke="#703d00" stroke-linecap="round"><path d="M243.16199,222.08682c-12.01824,7.52745 -22.82893,10.09722 -35.93439,11.0811c-6.23124,0.46173 -13.47042,-1.16997 -20.02697,-5.85639c-5.22246,-3.76023 -10.94845,-10.42872 -12.28773,-16.6984c-1.54883,-7.25043 1.7585,-13.01154 5.06177,-17.16275c7.56682,-9.48208 17.38478,-16.33833 27.59444,-22.16225c11.19966,-7.02773 22.81261,-13.795 36.4515,-16.28399c5.1543,-0.94156 11.87777,1.61882 17.71564,5.46298c3.83339,2.60687 8.83919,7.9277 10.09293,13.1942c1.45,7.7652 0.0637,15.34248 -3.01283,20.93142c-6.40126,11.56341 -13.63611,19.96664 -25.65436,27.4941z" data-paper-data="{&quot;origPos&quot;:null}" fill="#a85b00" stroke-width="2.61452"/><path d="M243.2236,221.92388c-12.02418,7.53116 -21.22685,12.54845 -33.64266,14.77227c-5.77692,1.03242 -15.13716,0.55918 -18.44307,-5.09786c-3.52942,-5.25617 1.3148,-12.73033 4.77243,-16.72855c8.18768,-9.46517 18.1299,-16.72833 28.74691,-23.14037c10.53492,-6.6017 22.35533,-12.18433 34.99223,-15.18192c4.2064,-1.00321 11.38898,-1.29135 13.77218,3.51362c3.39107,5.97291 0.9167,13.76549 -2.22295,18.04173c-7.47072,10.17034 -15.95089,16.28991 -27.97506,23.82109z" data-paper-data="{&quot;origPos&quot;:null}" fill="#a85b00" stroke-width="2.4183"/><path d="M240.37745,223.35556c-17.91494,11.25182 -24.04383,10.42384 -36.30025,14.10278c-5.76325,1.72888 -13.39519,2.00396 -18.00554,-1.52502c-6.42365,-4.9207 -13.31003,-16.29032 -11.98234,-21.10897c0.93832,-3.42078 11.71509,5.94637 15.90913,4.01803c2.81773,-0.95893 -3.70756,-6.7446 -1.8856,-9.79257c2.49022,-4.12494 12.63192,-2.52178 12.80357,-6.78038c0.18966,-4.83272 -10.10667,-6.09123 -11.27856,-11.22516c-0.99055,-3.18848 3.45828,-8.35727 6.50154,-7.14003c5.80275,2.32431 6.54643,11.46926 12.07658,14.38319c2.90767,1.5358 7.38616,-1.11584 8.439,-4.04669c1.97192,-5.5195 -2.72948,-12.02158 -0.54666,-17.35695c1.16909,-2.85262 5.20679,-3.89837 8.01525,-3.78128c7.59487,1.08621 14.8034,9.83159 21.56198,7.2032c5.10274,-1.97713 0.09106,-15.34219 4.06041,-15.93567c4.49546,-0.65399 7.93253,13.61824 12.76574,14.54153c2.98253,0.56265 0.2441,-11.83681 3.03633,-11.6364c3.41081,0.49853 8.33566,7.77747 9.38286,13.00248c1.00744,5.31598 -0.39876,11.71421 -4.03985,15.70097c-9.10653,9.96456 -6.31124,10.40535 -30.51362,27.37696z" data-paper-data="{&quot;origPos&quot;:null}" fill="#703d00" stroke-width="1.99513"/></g><path d="M242.76938,223.24968c-11.03414,6.53844 -22.55649,12.87764 -34.95561,16.24961c-6.4251,1.74223 -15.23541,2.59442 -21.18416,-1.41923c-6.45349,-4.42201 -13.53106,-16.09689 -11.57335,-21.39793c1.41607,-3.57924 13.13759,5.92858 18.32429,3.63526c2.8685,-1.23581 -3.82471,-6.93165 -2.02737,-10.01894c2.45709,-4.17782 12.70155,-2.41058 12.8196,-6.75478c0.12872,-4.93 -10.26719,-6.34751 -11.51487,-11.60246c-1.03976,-3.26704 3.37829,-8.48499 6.46189,-7.20333c5.87977,2.44728 6.74761,11.79046 12.36015,14.83592c2.95104,1.60503 7.43155,-1.04338 8.45504,-4.0211c1.91655,-5.60789 -2.90687,-12.3048 -0.77533,-17.72205c1.1417,-2.89635 5.19856,-3.9115 8.03124,-3.75577c7.67035,1.20672 15.05024,10.22567 21.82956,7.63042c5.11844,-1.95204 -0.10644,-15.65753 3.88736,-16.21196c4.52338,-0.6094 8.17267,14.00165 13.05694,15.00646c3.0139,0.61273 0.09314,-12.07784 2.91052,-11.83725c3.44484,0.55286 8.50361,8.04562 9.62677,13.3919c1.0843,5.4387 -0.25062,11.95074 -3.86967,15.97267c-9.05148,10.05245 -20.51576,17.86905 -31.86299,25.22258z" data-paper-data="{&quot;origPos&quot;:null}" fill="#ddc6d2" stroke="#ddc6d2" stroke-width="2.02398" stroke-linecap="round"/><path d="M235.6077,214.4058c-2.77637,1.73894 -5.41466,3.12001 -7.43369,3.94683c-2.01819,0.8263 -3.41797,1.0989 -3.71841,0.61921c-0.30044,-0.47968 0.5558,-1.62011 2.18012,-3.07524c1.62517,-1.45566 4.01928,-3.22657 6.79565,-4.96551c2.77637,-1.73894 5.41466,-3.12001 7.43369,-3.94683c2.01819,-0.8263 3.41797,-1.0989 3.71841,-0.61921c0.30044,0.47968 -0.5558,1.62011 -2.18012,3.07524c-1.62517,1.45566 -4.01928,3.22657 -6.79565,4.96551z" fill="#a85b00" stroke="#703d00" stroke-width="1.99513" stroke-linecap="butt"/><g data-paper-data="{&quot;origPos&quot;:null}" fill="none" stroke="#6148a4" stroke-width="1.99513" stroke-linecap="round"><path d="M248.16794,189.6695l0.92923,7.3237" data-paper-data="{&quot;origPos&quot;:null}"/><path d="M236.64935,222.89804l5.25443,-3.29104" data-paper-data="{&quot;origPos&quot;:null}"/><path d="M224.20149,197.18382l-4.16627,5.02839" data-paper-data="{&quot;origPos&quot;:null}"/><path d="M214.10627,215.07038l-5.91886,1.28828" data-paper-data="{&quot;origPos&quot;:null}"/><path d="M255.17075,176.54773l-3.27641,4.47104" data-paper-data="{&quot;origPos&quot;:null}"/><path d="M274.70431,183.43246l-2.20287,-3.51709" data-paper-data="{&quot;origPos&quot;:null}"/><path d="M257.30803,211.13873l3.67541,-2.89202" data-paper-data="{&quot;origPos&quot;:null}"/><path d="M183.22886,231.99109l-3.02563,-4.83069" data-paper-data="{&quot;origPos&quot;:null}"/><path d="M217.75395,221.93037l-3.94082,2.46828" data-paper-data="{&quot;origPos&quot;:null}"/><path d="M222.30672,233.06128l2.62721,-1.64552z" data-paper-data="{&quot;origPos&quot;:null}"/></g><g data-paper-data="{&quot;origPos&quot;:null}" fill="none" stroke="#9b4976" stroke-width="1.99513" stroke-linecap="round"><path d="M255.1323,202.76683l3.83376,-3.58117" data-paper-data="{&quot;origPos&quot;:null}"/><path d="M233.14598,200.72623l5.25443,-3.29104" data-paper-data="{&quot;origPos&quot;:null}"/><path d="M209.29021,227.82148l-2.46828,-3.94082" data-paper-data="{&quot;origPos&quot;:null}"/><path d="M225.25122,225.14027l6.05246,-0.13301" data-paper-data="{&quot;origPos&quot;:null}"/><path d="M186.54582,225.60672l3.02563,4.83069" data-paper-data="{&quot;origPos&quot;:null}"/><path d="M203.76977,235.58596l-3.51709,2.20287" data-paper-data="{&quot;origPos&quot;:null}"/><path d="M266.91482,192.37814l1.47255,-6.4091" data-paper-data="{&quot;origPos&quot;:null}"/></g><g data-paper-data="{&quot;origPos&quot;:null}" fill="none" stroke="#ffffff" stroke-width="1.99513" stroke-linecap="round"><path d="M257.32174,186.76406l2.9439,-3.02383" data-paper-data="{&quot;origPos&quot;:null}"/><path d="M250.54169,212.95782l-5.428,-0.84809" data-paper-data="{&quot;origPos&quot;:null}"/><path d="M227.58375,189.5786l1.53724,-5.26967" data-paper-data="{&quot;origPos&quot;:null}"/><path d="M210.54681,203.25832l5.1626,0.42435" data-paper-data="{&quot;origPos&quot;:null}"/><path d="M202.8235,207.50573l1.22177,2.89262z" data-paper-data="{&quot;origPos&quot;:null}"/><path d="M213.11025,234.57351l3.94082,-2.46828" data-paper-data="{&quot;origPos&quot;:null}"/><path d="M194.93115,228.90936l2.91736,-3.0662" data-paper-data="{&quot;origPos&quot;:null}"/><path d="M277.03991,189.04533l-3.71598,4.80536" data-paper-data="{&quot;origPos&quot;:null}"/><path d="M267.39195,200.57497l-3.22453,-2.2282z" data-paper-data="{&quot;origPos&quot;:null}"/><path d="M221.78541,211.49963l1.81969,1.86915z" data-paper-data="{&quot;origPos&quot;:null}"/></g></g></g></svg>