<svg version="1.1" xmlns="http://www.w3.org/2000/svg" xmlns:xlink="http://www.w3.org/1999/xlink" width="258.72705" height="105.60447" viewBox="0,0,258.72705,105.60447"><g transform="translate(-218.39736,-166.68773)"><g data-paper-data="{&quot;isPaintingLayer&quot;:true}" fill-rule="nonzero" stroke-linecap="butt" stroke-linejoin="miter" stroke-miterlimit="10" stroke-dasharray="" stroke-dashoffset="0" style="mix-blend-mode: normal"><path d="M236.60434,173.31176v0v0v0v0l-1.87881,2.32824c0,0 -2.16557,-3.17174 -2.82579,-3.22143c-0.66022,-0.04963 -4.23661,2.61507 -5.74408,1.23968c-1.50583,-1.37539 3.4211,-4.65443 6.14443,-4.55566c2.7234,0.09823 4.30425,4.20917 4.30425,4.20917z" fill="#74bf44" stroke="#000000" stroke-width="2.32134"/><path d="M232.30009,180.35935v0v0v0v0l-1.06057,3.82568c0,0 -3.63134,-3.19816 -4.62167,-3.19816c-0.99033,0 -2.11274,6.53631 -5.41397,5.678c-3.30116,-0.85831 2.31295,-9.49419 4.67136,-10.03557c2.35834,-0.54192 6.42484,3.73004 6.42484,3.73004z" fill="#74bf44" stroke="#000000" stroke-width="2.32134"/><path d="M233.51861,190.04481v0v0v0v0l2.80525,3.32915l0.28103,2.76245c0,0 -6.15713,-3.74595 -7.54364,-3.67994c-1.38651,0.06608 -5.9421,7.9229 -8.8709,6.00818c-2.92887,-1.91465 5.11656,-9.99652 7.8145,-10.43175c2.69801,-0.43625 5.51377,2.01192 5.51377,2.01192z" fill="#74bf44" stroke="#000000" stroke-width="2.32134"/><path d="M266.45439,173.31176c0,0 1.58092,-4.11094 4.30425,-4.20917c2.72224,-0.09877 7.65026,3.18027 6.14443,4.55566c-1.50747,1.37539 -5.08386,-1.28931 -5.74408,-1.23968c-0.66022,0.04969 -2.82689,3.22143 -2.82689,3.22143l-1.87772,-2.32824v0z" fill="#74bf44" stroke="#000000" stroke-width="2.32134"/><path d="M270.75912,180.35935c0,0 4.06548,-4.27197 6.42491,-3.73004c2.35834,0.54138 7.97252,9.17726 4.67129,10.03557c-3.30116,0.85831 -4.42357,-5.678 -5.4139,-5.678c-0.9904,0 -4.62167,3.19816 -4.62167,3.19816l-1.06064,-3.82568v0z" fill="#74bf44" stroke="#000000" stroke-width="2.32134"/><path d="M269.5406,190.19532c0,0 2.81583,-2.44817 5.51377,-2.01185c2.69746,0.43523 10.74337,8.51704 7.81457,10.43169c-2.9288,1.91472 -7.48446,-5.9421 -8.8709,-6.00811c-1.38651,-0.06601 -7.54364,3.67987 -7.54364,3.67987l0.28103,-2.76245l2.80518,-3.32915v0z" fill="#74bf44" stroke="#000000" stroke-width="2.32134"/><g stroke="none" stroke-width="0.77378"><g><path d="M251.75333,184.20776l-0.60158,-16.70977l0.83927,0.0185c0.82821,0.01795 1.69123,0.0929 2.5649,0.22342c1.5386,0.22922 3.06662,0.63326 4.54242,1.19948c2.70695,1.03948 5.20898,2.61876 7.23674,4.56726c1.3474,1.29511 2.45869,2.72388 3.30485,4.24664c1.21538,2.18831 1.83123,4.45689 1.83123,6.74342c0,0.29154 -0.0127,0.60267 -0.04014,0.95074c-0.11884,1.53437 -0.52185,3.01965 -1.19955,4.41511c-0.5979,1.23177 -1.40863,2.39903 -2.41008,3.47024c-0.31373,0.3639 -0.83722,0.86459 -1.54392,1.47361c0.00212,0.07024 0.00369,0.14103 0.00369,0.21127c0,0.53714 -0.06178,1.07067 -0.1843,1.5872l-0.06601,0.27734l-0.22765,0.17215c-0.29898,0.22553 -0.63175,0.46008 -1.01893,0.71626c-2.50203,1.6601 -5.46885,2.82634 -8.57881,3.37195c-1.1932,0.2097 -2.41753,0.33223 -3.63974,0.36335l-0.81237,0.02116v-17.31934v0z" fill="#a6479a"/><path d="M251.97361,168.30824l0.57093,15.89951v16.50642c1.20426,-0.03113 2.38162,-0.15106 3.52301,-0.35175c3.08361,-0.54083 5.90204,-1.67539 8.27778,-3.25154c0.33434,-0.22185 0.66288,-0.45004 0.97927,-0.68875c0.10778,-0.45264 0.16321,-0.92173 0.16321,-1.40447c0,-0.18751 -0.01106,-0.37236 -0.02744,-0.55721c0.57728,-0.48704 1.34528,-1.16412 1.78106,-1.66911c0.93067,-0.99511 1.70181,-2.0911 2.2765,-3.27529c0.62111,-1.27928 1.00883,-2.66258 1.12234,-4.12992c0.02273,-0.2942 0.03754,-0.58998 0.03754,-0.88998c0,-2.21998 -0.63121,-4.37763 -1.73144,-6.3589c-0.81497,-1.46727 -1.88823,-2.83637 -3.16068,-4.05961c-1.93895,-1.86297 -4.33484,-3.38621 -6.97209,-4.3988c-1.4018,-0.53824 -2.87016,-0.93121 -4.37443,-1.15566c-0.81394,-0.1215 -1.63689,-0.197 -2.46558,-0.21495M251.97361,168.30824v0v0v0v0l-1.64379,-1.62051v0l1.6786,0.03802c0.86152,0.0185 1.75785,0.09611 2.6647,0.23134c1.59519,0.23823 3.17918,0.65653 4.70884,1.24392c2.8047,1.07695 5.39916,2.71432 7.50241,4.73573c1.40392,1.34952 2.56381,2.84061 3.44799,4.43258c1.28139,2.30763 1.93055,4.70563 1.93055,7.12841c0,0.31161 -0.01372,0.64281 -0.04225,1.01203c-0.12621,1.63314 -0.55619,3.21454 -1.27661,4.69928c-0.62807,1.29457 -1.47737,2.52053 -2.52422,3.64397c-0.31004,0.3555 -0.7622,0.79544 -1.34849,1.31259c-0.01058,0.54875 -0.07925,1.09388 -0.20437,1.62256l-0.13154,0.55564l-0.45475,0.34335c-0.31216,0.23557 -0.65817,0.47905 -1.05852,0.74473c-2.59289,1.71983 -5.66271,2.92723 -8.87937,3.49188c-1.23231,0.21605 -2.49568,0.34226 -3.75653,0.37502l-1.62522,0.04171v-1.62631v-16.47843l-0.57093,-15.8705l-0.06027,-1.67751z" fill="#000000"/></g><path d="M255.53095,174.43888c0.50861,0 0.96924,0.21762 1.30303,0.56889c0.3338,0.35127 0.54035,0.83667 0.54035,1.37225c0,0.53557 -0.20656,1.02098 -0.54035,1.37225c-0.3338,0.3512 -0.79442,0.56882 -1.30303,0.56882c-0.50868,0 -0.96924,-0.21762 -1.30303,-0.56882c-0.33386,-0.35127 -0.54035,-0.83667 -0.54035,-1.37225c0,-0.53557 0.20649,-1.02098 0.54035,-1.37225c0.3338,-0.35127 0.79435,-0.56889 1.30303,-0.56889z" fill="#f4eb43"/><path d="M263.16906,182.09713c0.50868,0 0.96924,0.21762 1.30303,0.56882c0.33386,0.35127 0.54035,0.83667 0.54035,1.37225c0,0.53557 -0.20649,1.02098 -0.54035,1.37225c-0.3338,0.35127 -0.79435,0.56889 -1.30303,0.56889c-0.50861,0 -0.96924,-0.21762 -1.30303,-0.56889c-0.3338,-0.35127 -0.54035,-0.83667 -0.54035,-1.37225c0,-0.53557 0.20656,-1.02098 0.54035,-1.37225c0.3338,-0.3512 0.79442,-0.56882 1.30303,-0.56882z" fill="#f4eb43"/><path d="M256.32851,173.06404v0v0v0v0c-1.42187,0 -2.57493,-1.21429 -2.57493,-2.71118c0,-0.7078 0.26356,-1.34638 0.68561,-1.82966c1.50372,0.22396 2.97262,0.61694 4.37443,1.15566c0.05283,0.21659 0.08983,0.44001 0.08983,0.67401c0,1.49689 -1.15306,2.71118 -2.57493,2.71118z" fill="#f4eb43"/><path d="M261.23271,177.68939v0v0v0v0c0,-2.02776 1.7341,-3.67148 3.87271,-3.67148c0.23243,0 0.45899,0.02328 0.68029,0.06021c1.27245,1.2233 2.34571,2.59241 3.16068,4.05968c-0.23345,1.81594 -1.86236,3.223 -3.84097,3.223c-2.13916,0 -3.87271,-1.64372 -3.87271,-3.67141z" fill="#f4eb43"/><path d="M258.9029,190.41239v0v0v0v0c3.11153,0 5.63418,2.39111 5.63418,5.34052c0,0.47011 -0.07024,0.92432 -0.19065,1.35853c-2.37582,1.57607 -5.19424,2.71064 -8.27778,3.25154c-1.6728,-0.92596 -2.79944,-2.64149 -2.79944,-4.61061c0,-2.94887 2.52162,-5.33998 5.6337,-5.33998z" fill="#f4eb43"/><path d="M268.2534,184.221v0v0v0v0c0.98507,0 1.85396,0.46056 2.38742,1.16514c-0.11352,1.46733 -0.50124,2.85064 -1.12241,4.12992c-0.38342,0.17482 -0.81183,0.27468 -1.26501,0.27468c-1.62311,0 -2.93774,-1.24706 -2.93774,-2.78463c0,-1.5386 1.31464,-2.78511 2.93774,-2.78511z" fill="#f4eb43"/><path d="M256.69186,179.76725c0.8108,0 1.54495,0.31216 2.07684,0.81606c0.53189,0.5039 0.86097,1.20009 0.86097,1.96857c0,0.76855 -0.32909,1.46467 -0.86097,1.96857c-0.53189,0.5039 -1.26603,0.81606 -2.07684,0.81606c-0.81073,0 -1.54495,-0.31216 -2.07684,-0.81606c-0.53189,-0.5039 -0.86091,-1.20003 -0.86091,-1.96857c0,-0.76848 0.32902,-1.46467 0.86091,-1.96857c0.53189,-0.5039 1.2661,-0.81606 2.07684,-0.81606z" fill="#f4eb43"/></g><g stroke="none" stroke-width="0.77378"><g><path d="M250.41064,201.47003c-5.0072,-0.30103 -9.70915,-2.11697 -13.24007,-5.11178l-0.23721,-0.20076l-0.03693,-0.30847c-0.03645,-0.3026 -0.0544,-0.57462 -0.0544,-0.8308c0,-0.10089 0.00259,-0.20444 0.00846,-0.31325c-0.19174,-0.17639 -0.38929,-0.36124 -0.58418,-0.54452l-0.05652,0.17427l-0.90903,-1.00145c-0.21079,-0.22553 -0.41148,-0.45742 -0.60581,-0.69244c-1.34747,-1.62577 -2.26018,-3.43215 -2.71385,-5.37062c-0.21919,-0.93545 -0.33011,-1.86823 -0.33011,-2.77303c0,-3.4712 1.40549,-6.88806 4.06384,-9.87973c2.58442,-2.90928 6.15815,-5.13458 10.06205,-6.26696c1.77417,-0.51448 3.57584,-0.79442 5.35424,-0.83353l0.83927,-0.01843l-0.60267,16.73776l-0.12253,17.28343l-0.83456,-0.04969v0z" fill="#a6479a"/><path d="M251.14854,168.30927c-1.75621,0.03857 -3.48922,0.32062 -5.15144,0.80234c-3.80506,1.10337 -7.23353,3.26683 -9.69017,6.03194c-2.39213,2.69214 -3.8637,5.95214 -3.8637,9.35364c0,0.8964 0.11359,1.75888 0.30902,2.59241c0.43468,1.8571 1.31627,3.55414 2.55166,5.04468l0.00055,0.00055c0.18485,0.22294 0.37502,0.44315 0.57517,0.65708c0.00799,-0.02375 0.01959,-0.04703 0.02751,-0.07079c0.19857,0.19174 0.43523,0.41885 0.68083,0.65182c0.3581,0.34014 0.73947,0.69769 1.08275,1.00726c-0.02164,0.21127 -0.03645,0.42356 -0.03645,0.63749c0,0.24983 0.01959,0.49441 0.0486,0.73633c3.29802,2.79726 7.78078,4.62426 12.77535,4.92481l0.01106,-1.53812l0.07768,-10.94562l0.02853,-3.98732l0.07072,-1.96277l0.17536,-4.86352l0.32697,-9.0722M251.14854,168.30927v0v0v0v0l1.64372,-1.62051v0l-0.06123,1.67758l-0.32642,9.07214l-0.17536,4.86358l-0.06976,1.94004l-0.02799,3.96459l-0.07761,10.94569l-0.01113,1.53805l-0.01215,1.67068l-1.66748,-0.10034c-5.17731,-0.31168 -10.04458,-2.19308 -13.70493,-5.29779l-0.4738,-0.40247l-0.07447,-0.61687c-0.02744,-0.22717 -0.04539,-0.43946 -0.05386,-0.64281l-1.33368,-1.42665c-0.18963,-0.20233 -0.37871,-0.41782 -0.59209,-0.67346l-0.00157,-0.00157l-0.04437,-0.05386c-1.42508,-1.72031 -2.3922,-3.63605 -2.87392,-5.69391c-0.23291,-0.99456 -0.3512,-1.98864 -0.3512,-2.95419c0,-3.66875 1.47416,-7.26677 4.2635,-10.40636c2.68217,-3.01911 6.38744,-5.32837 10.43332,-6.5015c1.84024,-0.53346 3.71004,-0.82398 5.55759,-0.86411l1.6786,-0.03645z" fill="#000000"/></g><path d="M249.31048,176.98214v0v0v0v0c0.55353,0 1.06903,0.14785 1.51109,0.39933l-0.17536,4.86352c-0.4009,0.19495 -0.85408,0.3069 -1.33573,0.3069c-1.62317,0 -2.93781,-1.24706 -2.93781,-2.78463c0,-1.5386 1.31464,-2.78511 2.93781,-2.78511z" fill="#f4eb43"/><path d="M245.28773,183.39593c0.50868,0 0.96924,0.21762 1.3031,0.56889c0.3338,0.3512 0.54028,0.8366 0.54028,1.37225c0,0.53557 -0.20649,1.02098 -0.54028,1.37218c-0.33386,0.35127 -0.79442,0.56889 -1.3031,0.56889c-0.50861,0 -0.96924,-0.21762 -1.30303,-0.56889c-0.3338,-0.3512 -0.54035,-0.8366 -0.54035,-1.37218c0,-0.53564 0.20656,-1.02105 0.54035,-1.37225c0.3338,-0.35127 0.79442,-0.56889 1.30303,-0.56889z" fill="#f4eb43"/><path d="M241.32103,192.1882c0.50868,0 0.96924,0.21762 1.3031,0.56882c0.3338,0.35127 0.54028,0.83667 0.54028,1.37225c0,0.53557 -0.20649,1.02098 -0.54028,1.37225c-0.33386,0.35127 -0.79442,0.56889 -1.3031,0.56889c-0.50861,0 -0.96917,-0.21762 -1.30303,-0.56889c-0.3338,-0.35127 -0.54035,-0.83667 -0.54035,-1.37225c0,-0.53557 0.20656,-1.02098 0.54035,-1.37225c0.33386,-0.3512 0.79442,-0.56882 1.30303,-0.56882z" fill="#f4eb43"/><path d="M238.4493,179.7678c0.81073,0 1.54495,0.31216 2.07684,0.81606c0.53189,0.5039 0.86097,1.20003 0.86097,1.96857c0,0.76848 -0.32909,1.46467 -0.86097,1.96857c-0.53189,0.5039 -1.2661,0.81606 -2.07684,0.81606c-0.8108,0 -1.54495,-0.31216 -2.07684,-0.81606c-0.53189,-0.5039 -0.86097,-1.20009 -0.86097,-1.96857c0,-0.76855 0.32909,-1.46467 0.86097,-1.96857c0.53189,-0.5039 1.26603,-0.81606 2.07684,-0.81606z" fill="#f4eb43"/><g fill="#f4eb43"><path d="M237.78744,189.71415v0v0v0v0c0.3069,1.41819 -0.20171,2.81207 -1.19846,3.65926c-0.2456,-0.23291 -0.48219,-0.46001 -0.68083,-0.65175c-0.00792,0.02375 -0.01952,0.04703 -0.02744,0.07079c-0.20021,-0.21393 -0.39032,-0.43421 -0.57523,-0.65708l-0.00048,-0.00055c-1.23545,-1.49054 -2.11697,-3.18764 -2.55173,-5.04475c0.24035,-0.1183 0.49755,-0.21127 0.77066,-0.2699c1.91943,-0.41619 3.82834,0.8805 4.2635,2.89399z"/></g><g fill="#f4eb43"><path d="M241.32103,177.87793v0v0v0v0c-2.14073,0 -4.00575,-1.10023 -5.01355,-2.73439c2.45664,-2.76511 5.88511,-4.92857 9.69017,-6.03194c0.70937,0.91319 1.13347,2.03724 1.13347,3.25836c0,3.04238 -2.60128,5.50797 -5.81009,5.50797z"/></g><g fill="#f4eb43"><path d="M245.33845,193.67396v0v0v0v0c0,-2.84955 2.2823,-5.19315 5.20898,-5.47834l-0.07761,10.94562c-2.88866,-0.31953 -5.13137,-2.64306 -5.13137,-5.46728z"/></g></g><g><path d="M244.64844,191.12648v0v0v0v0l-3.05399,1.17627c0,0 -2.25902,-2.16394 -2.91242,-5.38435c-0.65339,-3.22034 1.0564,-5.71131 2.74975,-5.8993c1.69341,-0.18806 2.13602,1.97014 1.93792,4.479c-0.19809,2.50893 1.27873,5.62838 1.27873,5.62838z" fill="#74bf44" stroke="#000000" stroke-width="2.32134"/><path d="M257.97787,191.12648c0,0 1.47682,-3.11945 1.27873,-5.62838c-0.19809,-2.50886 0.24458,-4.66706 1.93792,-4.479c1.69335,0.18799 3.40314,2.67896 2.74975,5.8993c-0.65339,3.22041 -2.91194,5.38387 -2.91194,5.38387l-3.05447,-1.17579v0z" fill="#74bf44" stroke="#000000" stroke-width="2.32134"/><g stroke="none" stroke-width="0.77378"><path d="M251.34483,209.49322c-8.39082,0 -14.71847,-4.085 -14.71847,-9.50211c0,-5.64742 6.60232,-10.24213 14.71847,-10.24213c8.11614,0 14.71963,4.59416 14.71963,10.24213c0,5.41711 -6.32771,9.50211 -14.71963,9.50211v0v0z" fill="#74bf44"/><path d="M251.34483,190.54128c-7.59217,0 -13.92623,4.29893 -13.92623,9.44982c0,5.14987 6.33406,8.70981 13.92623,8.70981c7.59224,0 13.92732,-3.56048 13.92732,-8.70981c0,-5.15089 -6.33508,-9.44982 -13.92732,-9.44982M251.34483,190.54128v0v0v0v0v-1.58461v0c8.55301,0 15.51186,4.94966 15.51186,11.03443c0,5.86872 -6.66888,10.29441 -15.51186,10.29441c-8.84237,0 -15.51077,-4.42569 -15.51077,-10.29441c0,-6.08477 6.95837,-11.03443 15.51077,-11.03443z" fill="#000000"/></g><path d="M247.00105,202.29033c2.66415,1.29771 4.73361,-0.90903 7.1295,0.31687c2.04776,1.04692 4.33798,-2.02612 5.969,0.84725c0.57892,1.01831 -0.27673,2.3636 -1.47839,2.73917c-1.59935,0.49912 -3.43318,-0.62431 -4.78222,0.30949c-1.46467,1.01306 -1.66645,1.31204 -3.45011,0.65919c-1.04057,-0.38294 -1.73089,-1.32467 -2.87228,-1.52966c-1.13566,-0.20547 -2.37002,0.82507 -3.47236,0.15693c-2.72968,-1.65587 1.31416,-4.30002 2.95685,-3.49925v0z" fill="#231f20" stroke="none" stroke-width="0.77378"/><g stroke="none" stroke-width="0.77378"><path d="M246.39469,193.78435v0v0v0v0c1.63683,0.24349 2.7249,2.04462 2.4793,3.68677c-0.2456,1.64106 -1.81437,3.05454 -3.45065,2.80996c-1.63635,-0.24403 -2.72286,-2.05574 -2.47882,-3.69626c0.2456,-1.6416 1.81437,-3.04607 3.45017,-2.80047z" fill="#ffffff"/><path d="M245.89127,195.86331c0.34281,0 0.65339,0.14785 0.87838,0.38718c0.22451,0.23871 0.36397,0.56882 0.36397,0.93326c0,0.36451 -0.13946,0.69462 -0.36397,0.93333c-0.22499,0.23925 -0.53557,0.38718 -0.87838,0.38718c-0.34274,0 -0.65332,-0.14792 -0.87838,-0.38718c-0.22444,-0.23871 -0.3639,-0.56882 -0.3639,-0.93333c0,-0.36444 0.13946,-0.69455 0.3639,-0.93326c0.22506,-0.23932 0.53564,-0.38718 0.87838,-0.38718z" fill="#231f20"/><path d="M246.52937,192.3519v0v0v0v0c2.50251,0.37345 4.21702,2.76559 3.83148,5.34155c-0.38506,2.57705 -2.72545,4.3618 -5.227,3.98841c-2.50094,-0.37345 -4.21702,-2.76566 -3.8325,-5.34264c0.38397,-2.57603 2.72647,-4.36077 5.22803,-3.98732zM248.87399,197.47057v0v0v0v0c0.2456,-1.6416 -0.84248,-3.44273 -2.4793,-3.68677c-1.63532,-0.2456 -3.20457,1.15941 -3.45017,2.80047c-0.24403,1.64058 0.84193,3.45222 2.47882,3.69626c1.6358,0.24458 3.20505,-1.1689 3.45065,-2.80996z" fill="#231f20"/></g><g stroke="none" stroke-width="0.77378"><path d="M257.42168,193.78435v0v0v0v0c1.63683,0.24349 2.7249,2.04462 2.4793,3.68677c-0.2456,1.64106 -1.8143,3.05454 -3.45065,2.80996c-1.63635,-0.24403 -2.72279,-2.05574 -2.47882,-3.69626c0.24567,-1.6416 1.81437,-3.04607 3.45017,-2.80047z" fill="#ffffff"/><path d="M256.91832,195.86331c0.34281,0 0.65332,0.14785 0.87838,0.38718c0.22444,0.23871 0.3639,0.56882 0.3639,0.93326c0,0.36451 -0.13946,0.69462 -0.3639,0.93333c-0.22506,0.23925 -0.53557,0.38718 -0.87838,0.38718c-0.34281,0 -0.65339,-0.14792 -0.87838,-0.38718c-0.22451,-0.23871 -0.36397,-0.56882 -0.36397,-0.93333c0,-0.36444 0.13946,-0.69455 0.36397,-0.93326c0.22499,-0.23932 0.53557,-0.38718 0.87838,-0.38718z" fill="#231f20"/><path d="M257.55636,192.3519v0v0v0v0c2.50258,0.37345 4.21709,2.76559 3.83148,5.34155c-0.38506,2.57705 -2.72545,4.3618 -5.22694,3.98841c-2.50101,-0.37345 -4.21709,-2.76566 -3.83257,-5.34264c0.38397,-2.57603 2.72654,-4.36077 5.22803,-3.98732zM259.90098,197.47057v0v0v0v0c0.2456,-1.6416 -0.84248,-3.44273 -2.4793,-3.68677c-1.63526,-0.2456 -3.2045,1.15941 -3.45017,2.80047c-0.24396,1.64058 0.84193,3.45222 2.47882,3.69626c1.6358,0.24458 3.20505,-1.1689 3.45065,-2.80996z" fill="#231f20"/></g></g><text transform="translate(293.87442,192.97577) scale(0.5,0.5)" font-size="40" xml:space="preserve" fill="#672323" fill-rule="nonzero" stroke="none" stroke-width="1" stroke-linecap="butt" stroke-linejoin="miter" stroke-miterlimit="10" stroke-dasharray="" stroke-dashoffset="0" font-family="Pixel" font-weight="normal" text-anchor="start" style="mix-blend-mode: normal"><tspan x="0" dy="0">AVOID THE BUGS!</tspan></text><text transform="translate(262.36901,243.0422) scale(0.5,0.5)" font-size="40" xml:space="preserve" fill="#09270a" fill-rule="nonzero" stroke="none" stroke-width="1" stroke-linecap="butt" stroke-linejoin="miter" stroke-miterlimit="10" stroke-dasharray="" stroke-dashoffset="0" font-family="Pixel" font-weight="normal" text-anchor="start" style="mix-blend-mode: normal"><tspan x="0" dy="0">LAUNCHING NOW......</tspan><tspan x="0" dy="48px">                GODSPEED!!!</tspan></text></g></g></svg>