<svg version="1.1" xmlns="http://www.w3.org/2000/svg" xmlns:xlink="http://www.w3.org/1999/xlink" width="709.47935" height="45" viewBox="0,0,709.47935,45"><defs><linearGradient x1="-63.13401" y1="351.79617" x2="646.34535" y2="351.79617" gradientUnits="userSpaceOnUse" id="color-1"><stop offset="0" stop-color="#e0e0b9"/><stop offset="1" stop-color="#ffe1e7"/></linearGradient><linearGradient x1="275.21241" y1="343.6503" x2="312.12941" y2="343.6503" gradientUnits="userSpaceOnUse" id="color-2"><stop offset="0" stop-color="#e0e0e0"/><stop offset="1" stop-color="#ffe1e7"/></linearGradient><linearGradient x1="377.10335" y1="345.49615" x2="428.04881" y2="345.49615" gradientUnits="userSpaceOnUse" id="color-3"><stop offset="0" stop-color="#e0e0e0"/><stop offset="1" stop-color="#ffe1e7"/></linearGradient><linearGradient x1="123.85268" y1="347.71117" x2="239.03374" y2="347.71117" gradientUnits="userSpaceOnUse" id="color-4"><stop offset="0" stop-color="#e0e0e0"/><stop offset="1" stop-color="#ffe1e7"/></linearGradient><linearGradient x1="27.13013" y1="346.23449" x2="127.54438" y2="346.23449" gradientUnits="userSpaceOnUse" id="color-5"><stop offset="0" stop-color="#e0e0e0"/><stop offset="1" stop-color="#ffe1e7"/></linearGradient><linearGradient x1="50.01867" y1="344.75781" x2="117.20762" y2="344.75781" gradientUnits="userSpaceOnUse" id="color-6"><stop offset="0" stop-color="#848484"/><stop offset="1" stop-color="#ffe1e7"/></linearGradient><linearGradient x1="152.17674" y1="346.2447" x2="236.59982" y2="346.2447" gradientUnits="userSpaceOnUse" id="color-7"><stop offset="0" stop-color="#848484"/><stop offset="1" stop-color="#ffe1e7"/></linearGradient><linearGradient x1="283.57717" y1="340.45763" x2="319.66123" y2="340.45763" gradientUnits="userSpaceOnUse" id="color-8"><stop offset="0" stop-color="#848484"/><stop offset="1" stop-color="#ffe1e7"/></linearGradient><linearGradient x1="374.80856" y1="344.88304" x2="418.38176" y2="344.88304" gradientUnits="userSpaceOnUse" id="color-9"><stop offset="0" stop-color="#848484"/><stop offset="1" stop-color="#ffe1e7"/></linearGradient><linearGradient x1="442.89168" y1="344.88304" x2="500.08151" y2="344.88304" gradientUnits="userSpaceOnUse" id="color-10"><stop offset="0" stop-color="#848484"/><stop offset="1" stop-color="#ffe1e7"/></linearGradient></defs><g transform="translate(63.13401,-329.29617)"><g data-paper-data="{&quot;isPaintingLayer&quot;:true}" fill-rule="nonzero" stroke="none" stroke-linecap="butt" stroke-linejoin="miter" stroke-miterlimit="10" stroke-dasharray="" stroke-dashoffset="0" style="mix-blend-mode: normal"><path d="M-63.13401,351.79617c0,-12.42641 158.82236,-22.5 354.73968,-22.5c195.91731,0 354.73968,10.07359 354.73968,22.5c0,12.42641 -158.82236,22.5 -354.73968,22.5c-195.91731,0 -354.73968,-10.07359 -354.73968,-22.5z" fill="url(#color-1)" stroke-width="1"/><path d="M312.12941,343.6503c0,2.65053 -8.26415,4.79921 -18.4585,4.79921c-10.19435,0 -18.4585,-2.14868 -18.4585,-4.79921c0,-2.65053 8.26415,-4.79921 18.4585,-4.79921c10.19435,0 18.4585,2.14868 18.4585,4.79921z" fill="url(#color-2)" stroke-width="0"/><path d="M428.04881,345.49615c0,1.6311 -11.40453,2.95336 -25.47273,2.95336c-14.0682,0 -25.47273,-1.32226 -25.47273,-2.95336c0,-1.6311 11.40453,-2.95336 25.47273,-2.95336c14.0682,0 25.47273,1.32226 25.47273,2.95336z" fill="url(#color-3)" stroke-width="0"/><path d="M239.03374,347.71117c0,3.66997 -25.78416,6.64506 -57.59053,6.64506c-31.80637,0 -57.59053,-2.9751 -57.59053,-6.64506c0,-3.66997 25.78416,-6.64506 57.59053,-6.64506c31.80637,0 57.59053,2.9751 57.59053,6.64506z" fill="url(#color-4)" stroke-width="0"/><path d="M127.54438,346.23449c0,2.03887 -22.4785,3.6917 -50.20713,3.6917c-27.72863,0 -50.20713,-1.65283 -50.20713,-3.6917c0,-2.03887 22.4785,-3.6917 50.20713,-3.6917c27.72863,0 50.20713,1.65283 50.20713,3.6917z" fill="url(#color-5)" stroke-width="0"/><path d="M117.20762,344.75781c0,1.22332 -15.04076,2.21502 -33.59448,2.21502c-18.55372,0 -33.59448,-0.9917 -33.59448,-2.21502c0,-1.22332 15.04076,-2.21502 33.59448,-2.21502c18.55372,0 33.59448,0.9917 33.59448,2.21502z" fill="url(#color-6)" stroke-width="0"/><path d="M236.59982,346.2447c0,1.69206 -18.89875,3.06374 -42.21154,3.06374c-23.31279,0 -42.21154,-1.37168 -42.21154,-3.06374c0,-1.69206 18.89875,-3.06374 42.21154,-3.06374c23.31279,0 42.21154,1.37168 42.21154,3.06374z" fill="url(#color-7)" stroke-width="0"/><path d="M319.66123,340.45763c0,1.12804 -8.07769,2.04249 -18.04203,2.04249c-9.96434,0 -18.04203,-0.91446 -18.04203,-2.04249c0,-1.12804 8.07769,-2.04249 18.04203,-2.04249c9.96434,0 18.04203,0.91446 18.04203,2.04249z" fill="url(#color-8)" stroke-width="0"/><path d="M418.38176,344.88304c0,1.31604 -9.75419,2.38291 -21.7866,2.38291c-12.03241,0 -21.7866,-1.06686 -21.7866,-2.38291c0,-1.31604 9.75419,-2.38291 21.7866,-2.38291c12.03241,0 21.7866,1.06686 21.7866,2.38291z" fill="url(#color-9)" stroke-width="0"/><path d="M500.08151,344.88304c0,1.69206 -12.80238,3.06374 -28.59491,3.06374c-15.79253,0 -28.59491,-1.37168 -28.59491,-3.06374c0,-1.69206 12.80238,-3.06374 28.59491,-3.06374c15.79253,0 28.59491,1.37168 28.59491,3.06374z" fill="url(#color-10)" stroke-width="0"/></g></g></svg>