<svg version="1.1" xmlns="http://www.w3.org/2000/svg" xmlns:xlink="http://www.w3.org/1999/xlink" width="95.01555" height="101.11708" viewBox="0,0,95.01555,101.11708"><g transform="translate(-176.01079,-148.61245)"><g data-paper-data="{&quot;isPaintingLayer&quot;:true}" fill-rule="nonzero" stroke-linejoin="miter" stroke-miterlimit="10" stroke-dasharray="" stroke-dashoffset="0" style="mix-blend-mode: normal"><g stroke="#703d00" stroke-linecap="round"><path d="M203.38385,220.33162c-9.37546,-10.63962 -13.66307,-20.89101 -16.75764,-33.66381c-1.46537,-6.07405 -1.02831,-13.48197 2.53372,-20.71129c2.86426,-5.76276 8.51675,-12.49367 14.48654,-14.83122c6.90363,-2.70325 13.12453,-0.37319 17.75616,2.21373c10.58292,5.93028 18.93951,14.50746 26.34089,23.63845c8.74969,9.91283 17.30934,20.27569 21.97556,33.33098c1.76435,4.93359 0.32731,11.98311 -2.52004,18.36675c-1.95123,4.20516 -6.39058,10.00702 -11.38432,12.09759c-7.42761,2.68915 -15.12938,2.54902 -21.14299,0.41882c-12.44787,-4.44287 -21.91242,-10.22039 -31.28787,-20.86001z" data-paper-data="{&quot;origPos&quot;:null}" fill="#a85b00" stroke-width="2.61452"/><path d="M203.55464,220.36599c-9.38008,-10.64487 -15.8223,-18.91289 -20.02866,-30.80424c-1.95489,-5.53328 -3.00468,-14.84649 2.04188,-19.0254c4.61477,-4.3345 12.77513,-0.76546 17.2808,1.99858c10.66684,6.54569 19.44509,15.17954 27.49283,24.61719c8.22159,9.32592 15.64587,20.08546 20.65159,32.0696c1.67158,3.98824 3.11981,11.02919 -1.23547,14.15952c-5.34447,4.31413 -13.43501,3.13521 -18.16349,0.73c-11.24651,-5.72393 -18.65938,-13.10037 -28.03947,-23.74524z" data-paper-data="{&quot;origPos&quot;:null}" fill="#a85b00" stroke-width="2.4183"/><path d="M201.68067,217.78946c-14.00614,-15.85486 -14.18226,-22.03693 -19.79866,-33.5352c-2.63993,-5.40692 -4.14809,-12.89342 -1.41284,-18.01469c3.81475,-7.13613 13.91819,-15.77388 18.8883,-15.24458c3.52761,0.37159 -3.9694,12.52383 -1.38693,16.34997c1.40285,2.62509 6.05467,-4.75149 9.3576,-3.44751c4.47394,1.78888 4.53538,12.05632 8.76552,11.53563c4.79957,-0.59596 4.37298,-10.96015 9.24917,-12.94847c2.98582,-1.49414 8.80722,2.05832 8.0992,5.2586c-1.35328,6.1027 -10.25686,8.31844 -12.23614,14.2477c-1.04433,3.11812 2.29799,7.10773 5.3607,7.67172c5.76609,1.05145 11.42039,-4.64144 17.03897,-3.35204c3.00436,0.69139 4.69058,4.50626 5.03014,7.29658c0.15886,7.6705 -7.30283,16.20091 -3.61398,22.44424c2.77788,4.71491 15.15417,-2.39627 16.38302,1.42444c1.37381,4.33007 -12.15283,10.03446 -12.28071,14.9534c-0.0719,3.03428 11.71993,-1.67722 11.97462,1.11058c0.06077,3.44651 -6.32393,9.48579 -11.31018,11.36584c-5.08248,1.85555 -11.62401,1.50474 -16.14809,-1.44219c-11.30853,-7.37147 -11.29053,-4.5417 -31.95971,-25.67404z" data-paper-data="{&quot;origPos&quot;:null}" fill="#703d00" stroke-width="1.99513"/></g><path d="M202.17274,220.13262c-8.24006,-9.82878 -16.36261,-20.17161 -21.69923,-31.86044c-2.76036,-6.05786 -5.02896,-14.61363 -2.03231,-21.13415c3.31781,-7.08476 13.6915,-15.96065 19.23972,-14.88782c3.76139,0.81735 -3.72134,13.92465 -0.61785,18.67118c1.68429,2.63033 6.22025,-4.8974 9.558,-3.6241c4.52076,1.74763 4.43695,12.14306 8.74286,11.55559c4.88571,-0.67186 4.59987,-11.16007 9.58319,-13.2428c3.05537,-1.55542 8.92028,1.95868 8.15525,5.20922c-1.46215,6.19863 -10.54121,8.56901 -12.63694,14.60088c-1.10563,3.17213 2.23384,7.16426 5.33804,7.69169c5.84435,0.9825 11.67114,-4.86239 17.36218,-3.63685c3.04308,0.65727 4.70221,4.49602 5.00756,7.31649c0.05218,7.76452 -7.6517,16.50834 -3.9922,22.77752c2.75566,4.73448 15.43334,-2.64227 16.62761,1.20891c1.33435,4.36485 -12.49225,10.33355 -12.69232,15.31609c-0.11625,3.07335 11.9333,-1.86525 12.15244,0.95389c0.01268,3.48889 -6.56132,9.69498 -11.65493,11.66963c-5.19111,1.95129 -11.8334,1.68926 -16.38863,-1.23024c-11.38633,-7.3029 -20.95735,-17.34902 -30.05247,-27.35467z" data-paper-data="{&quot;origPos&quot;:null}" fill="#ddc6d2" stroke="#ddc6d2" stroke-width="2.02398" stroke-linecap="round"/><path d="M209.73923,211.63249c-2.16586,-2.45789 -3.95619,-4.83751 -5.09926,-6.69588c-1.14241,-1.85761 -1.63823,-3.19472 -1.21358,-3.56892c0.42466,-0.3742 1.68875,0.28592 3.38787,1.65298c1.69978,1.36781 3.83524,3.44331 6.00109,5.90121c2.16586,2.45789 3.95619,4.83751 5.09926,6.69588c1.14241,1.85761 1.63823,3.19472 1.21358,3.56892c-0.42466,0.3742 -1.68875,-0.28592 -3.38787,-1.65298c-1.69978,-1.36781 -3.83524,-3.44331 -6.00109,-5.90121z" fill="#a85b00" stroke="#703d00" stroke-width="1.99513" stroke-linecap="butt"/><g data-paper-data="{&quot;origPos&quot;:null}" fill="none" stroke="#6148a4" stroke-width="1.99513" stroke-linecap="round"><path d="M229.10759,222.12203l7.07633,-2.10371" data-paper-data="{&quot;origPos&quot;:null}"/><path d="M201.52802,214.03649l4.099,4.65169" data-paper-data="{&quot;origPos&quot;:null}"/><path d="M224.88527,197.58629l-5.63705,-3.29638" data-paper-data="{&quot;origPos&quot;:null}"/><path d="M203.36885,184.89106l2.23038,5.63187" data-paper-data="{&quot;origPos&quot;:null}"/><path d="M245.32416,222.29367l4.94287,2.50859" data-paper-data="{&quot;origPos&quot;:null}"/><path d="M249.75226,242.44961l-3.11363,2.74368" data-paper-data="{&quot;origPos&quot;:null}"/><path d="M216.47955,232.51661l3.44938,3.1582" data-paper-data="{&quot;origPos&quot;:null}"/><path d="M188.17518,159.02709l-4.27656,3.76843" data-paper-data="{&quot;origPos&quot;:null}"/><path d="M196.34674,191.74526l3.07425,3.48877" data-paper-data="{&quot;origPos&quot;:null}"/><path d="M191.22445,203.85618l-2.0495,-2.32585z" data-paper-data="{&quot;origPos&quot;:null}"/></g><g data-paper-data="{&quot;origPos&quot;:null}" fill="none" stroke="#9b4976" stroke-width="1.99513" stroke-linecap="round"><path d="M228.54331,232.21578l-4.15508,-3.20277" data-paper-data="{&quot;origPos&quot;:null}"/><path d="M222.83908,206.98659l4.099,4.65169" data-paper-data="{&quot;origPos&quot;:null}"/><path d="M192.23624,187.83678l3.48877,-3.07425" data-paper-data="{&quot;origPos&quot;:null}"/><path d="M198.58044,209.10326l-1.11202,-5.95091" data-paper-data="{&quot;origPos&quot;:null}"/><path d="M186.45956,168.80253l4.27656,-3.76843" data-paper-data="{&quot;origPos&quot;:null}"/><path d="M180.93613,180.53386l2.74368,3.11363" data-paper-data="{&quot;origPos&quot;:null}"/><path d="M236.54891,238.95635l6.56302,0.41452" data-paper-data="{&quot;origPos&quot;:null}"/></g><g data-paper-data="{&quot;origPos&quot;:null}" fill="none" stroke="#ffffff" stroke-width="1.99513" stroke-linecap="round"><path d="M243.99519,230.99532l-3.4609,-2.41499" data-paper-data="{&quot;origPos&quot;:null}"/><path d="M213.54534,220.64076l0.0427,5.4937" data-paper-data="{&quot;origPos&quot;:null}"/><path d="M232.93806,199.69147l5.44912,0.663" data-paper-data="{&quot;origPos&quot;:null}"/><path d="M217.09622,190.25955l-0.41783,-5.16313" data-paper-data="{&quot;origPos&quot;:null}"/><path d="M208.57917,179.83782l2.65641,-1.67436z" data-paper-data="{&quot;origPos&quot;:null}"/><path d="M186.19246,192.70046l3.07425,3.48877" data-paper-data="{&quot;origPos&quot;:null}"/><path d="M188.83592,173.84378l3.49841,2.38194" data-paper-data="{&quot;origPos&quot;:null}"/><path d="M241.4784,248.40755l-5.344,-2.88818" data-paper-data="{&quot;origPos&quot;:null}"/><path d="M230.21397,237.21245l-1.67624,3.54298z" data-paper-data="{&quot;origPos&quot;:null}"/><path d="M208.81758,199.62047l1.54957,-2.09853z" data-paper-data="{&quot;origPos&quot;:null}"/></g></g></g></svg>